<?xml version="1.0" encoding="utf-8" standalone="no"?>
<!DOCTYPE svg PUBLIC "-//W3C//DTD SVG 1.1//EN"
  "http://www.w3.org/Graphics/SVG/1.1/DTD/svg11.dtd">
<svg xmlns:xlink="http://www.w3.org/1999/xlink" width="432pt" height="360pt" viewBox="0 0 432 360" xmlns="http://www.w3.org/2000/svg" version="1.1">
 <metadata>
  <rdf:RDF xmlns:dc="http://purl.org/dc/elements/1.1/" xmlns:cc="http://creativecommons.org/ns#" xmlns:rdf="http://www.w3.org/1999/02/22-rdf-syntax-ns#">
   <cc:Work>
    <dc:type rdf:resource="http://purl.org/dc/dcmitype/StillImage"/>
    <dc:date>2025-04-23T16:07:32.221061</dc:date>
    <dc:format>image/svg+xml</dc:format>
    <dc:creator>
     <cc:Agent>
      <dc:title>Matplotlib v3.7.2, https://matplotlib.org/</dc:title>
     </cc:Agent>
    </dc:creator>
   </cc:Work>
  </rdf:RDF>
 </metadata>
 <defs>
  <style type="text/css">*{stroke-linejoin: round; stroke-linecap: butt}</style>
 </defs>
 <g id="figure_1">
  <g id="patch_1">
   <path d="M 0 360 
L 432 360 
L 432 0 
L 0 0 
z
" style="fill: #ffffff"/>
  </g>
  <g id="axes_1">
   <g id="patch_2">
    <path d="M 61.028 306.46 
L 421.2 306.46 
L 421.2 29.76 
L 61.028 29.76 
z
" style="fill: #ffffff"/>
   </g>
   <g id="PathCollection_1">
    <defs>
     <path id="mce2a29437b" d="M 0 4.472136 
C 1.186024 4.472136 2.323632 4.000923 3.162278 3.162278 
C 4.000923 2.323632 4.472136 1.186024 4.472136 0 
C 4.472136 -1.186024 4.000923 -2.323632 3.162278 -3.162278 
C 2.323632 -4.000923 1.186024 -4.472136 0 -4.472136 
C -1.186024 -4.472136 -2.323632 -4.000923 -3.162278 -3.162278 
C -4.000923 -2.323632 -4.472136 -1.186024 -4.472136 0 
C -4.472136 1.186024 -4.000923 2.323632 -3.162278 3.162278 
C -2.323632 4.000923 -1.186024 4.472136 0 4.472136 
z
" style="stroke: #ffffff; stroke-width: 2"/>
    </defs>
    <g clip-path="url(#p2fb75509ee)">
     <use xlink:href="#mce2a29437b" x="61.028" y="111.964731" style="fill: #4169e1; stroke: #ffffff; stroke-width: 2"/>
     <use xlink:href="#mce2a29437b" x="1222.873161" y="179.005003" style="fill: #4169e1; stroke: #ffffff; stroke-width: 2"/>
     <use xlink:href="#mce2a29437b" x="990.504129" y="177.753853" style="fill: #4169e1; stroke: #ffffff; stroke-width: 2"/>
     <use xlink:href="#mce2a29437b" x="758.135097" y="172.523265" style="fill: #4169e1; stroke: #ffffff; stroke-width: 2"/>
     <use xlink:href="#mce2a29437b" x="525.766065" y="168.459596" style="fill: #4169e1; stroke: #ffffff; stroke-width: 2"/>
     <use xlink:href="#mce2a29437b" x="293.397032" y="156.301459" style="fill: #4169e1; stroke: #ffffff; stroke-width: 2"/>
     <use xlink:href="#mce2a29437b" x="246.923226" y="152.161776" style="fill: #4169e1; stroke: #ffffff; stroke-width: 2"/>
     <use xlink:href="#mce2a29437b" x="200.449419" y="132.268696" style="fill: #4169e1; stroke: #ffffff; stroke-width: 2"/>
     <use xlink:href="#mce2a29437b" x="153.975613" y="124.527591" style="fill: #4169e1; stroke: #ffffff; stroke-width: 2"/>
    </g>
   </g>
   <g id="PathCollection_2">
    <defs>
     <path id="me191b68efc" d="M -4.472136 4.472136 
L 4.472136 -4.472136 
M -4.472136 -4.472136 
L 4.472136 4.472136 
" style="stroke: #4169e1; stroke-opacity: 0.7; stroke-width: 2"/>
    </defs>
    <g clip-path="url(#p2fb75509ee)">
     <use xlink:href="#me191b68efc" x="61.028" y="63.451817" style="fill: #4169e1; fill-opacity: 0.7; stroke: #4169e1; stroke-opacity: 0.7; stroke-width: 2"/>
     <use xlink:href="#me191b68efc" x="1222.873161" y="168.466369" style="fill: #4169e1; fill-opacity: 0.7; stroke: #4169e1; stroke-opacity: 0.7; stroke-width: 2"/>
     <use xlink:href="#me191b68efc" x="990.504129" y="167.265973" style="fill: #4169e1; fill-opacity: 0.7; stroke: #4169e1; stroke-opacity: 0.7; stroke-width: 2"/>
     <use xlink:href="#me191b68efc" x="758.135097" y="165.308972" style="fill: #4169e1; fill-opacity: 0.7; stroke: #4169e1; stroke-opacity: 0.7; stroke-width: 2"/>
     <use xlink:href="#me191b68efc" x="525.766065" y="161.555224" style="fill: #4169e1; fill-opacity: 0.7; stroke: #4169e1; stroke-opacity: 0.7; stroke-width: 2"/>
     <use xlink:href="#me191b68efc" x="293.397032" y="151.493426" style="fill: #4169e1; fill-opacity: 0.7; stroke: #4169e1; stroke-opacity: 0.7; stroke-width: 2"/>
     <use xlink:href="#me191b68efc" x="246.923226" y="147.074498" style="fill: #4169e1; fill-opacity: 0.7; stroke: #4169e1; stroke-opacity: 0.7; stroke-width: 2"/>
     <use xlink:href="#me191b68efc" x="200.449419" y="140.495847" style="fill: #4169e1; fill-opacity: 0.7; stroke: #4169e1; stroke-opacity: 0.7; stroke-width: 2"/>
     <use xlink:href="#me191b68efc" x="153.975613" y="129.762997" style="fill: #4169e1; fill-opacity: 0.7; stroke: #4169e1; stroke-opacity: 0.7; stroke-width: 2"/>
     <use xlink:href="#me191b68efc" x="61.028" y="63.451817" style="fill: #4169e1; fill-opacity: 0.7; stroke: #4169e1; stroke-opacity: 0.7; stroke-width: 2"/>
    </g>
   </g>
   <g id="PolyCollection_1"/>
   <g id="PathCollection_3">
    <defs>
     <path id="mfc455508c1" d="M 0 4.472136 
C 1.186024 4.472136 2.323632 4.000923 3.162278 3.162278 
C 4.000923 2.323632 4.472136 1.186024 4.472136 0 
C 4.472136 -1.186024 4.000923 -2.323632 3.162278 -3.162278 
C 2.323632 -4.000923 1.186024 -4.472136 0 -4.472136 
C -1.186024 -4.472136 -2.323632 -4.000923 -3.162278 -3.162278 
C -4.000923 -2.323632 -4.472136 -1.186024 -4.472136 0 
C -4.472136 1.186024 -4.000923 2.323632 -3.162278 3.162278 
C -2.323632 4.000923 -1.186024 4.472136 0 4.472136 
z
" style="stroke: #ffffff; stroke-width: 2"/>
    </defs>
    <g clip-path="url(#p2fb75509ee)">
     <use xlink:href="#mfc455508c1" x="61.028" y="68.647233" style="fill: #ff8c00; stroke: #ffffff; stroke-width: 2"/>
     <use xlink:href="#mfc455508c1" x="119.120258" y="93.348632" style="fill: #ff8c00; stroke: #ffffff; stroke-width: 2"/>
     <use xlink:href="#mfc455508c1" x="177.212516" y="106.836506" style="fill: #ff8c00; stroke: #ffffff; stroke-width: 2"/>
     <use xlink:href="#mfc455508c1" x="293.397032" y="112.777004" style="fill: #ff8c00; stroke: #ffffff; stroke-width: 2"/>
     <use xlink:href="#mfc455508c1" x="409.581548" y="118.104418" style="fill: #ff8c00; stroke: #ffffff; stroke-width: 2"/>
    </g>
   </g>
   <g id="PathCollection_4">
    <defs>
     <path id="mea8214d5d8" d="M -4.472136 4.472136 
L 4.472136 -4.472136 
M -4.472136 -4.472136 
L 4.472136 4.472136 
" style="stroke: #ff8c00; stroke-opacity: 0.7; stroke-width: 2"/>
    </defs>
    <g clip-path="url(#p2fb75509ee)">
     <use xlink:href="#mea8214d5d8" x="61.028" y="50.894267" style="fill: #ff8c00; fill-opacity: 0.7; stroke: #ff8c00; stroke-opacity: 0.7; stroke-width: 2"/>
     <use xlink:href="#mea8214d5d8" x="119.120258" y="85.493192" style="fill: #ff8c00; fill-opacity: 0.7; stroke: #ff8c00; stroke-opacity: 0.7; stroke-width: 2"/>
     <use xlink:href="#mea8214d5d8" x="177.212516" y="99.777103" style="fill: #ff8c00; fill-opacity: 0.7; stroke: #ff8c00; stroke-opacity: 0.7; stroke-width: 2"/>
     <use xlink:href="#mea8214d5d8" x="293.397032" y="112.007486" style="fill: #ff8c00; fill-opacity: 0.7; stroke: #ff8c00; stroke-opacity: 0.7; stroke-width: 2"/>
     <use xlink:href="#mea8214d5d8" x="409.581548" y="117.404549" style="fill: #ff8c00; fill-opacity: 0.7; stroke: #ff8c00; stroke-opacity: 0.7; stroke-width: 2"/>
     <use xlink:href="#mea8214d5d8" x="61.028" y="50.894267" style="fill: #ff8c00; fill-opacity: 0.7; stroke: #ff8c00; stroke-opacity: 0.7; stroke-width: 2"/>
    </g>
   </g>
   <g id="PolyCollection_2"/>
   <g id="PathCollection_5">
    <defs>
     <path id="mccdf1caffa" d="M 0 4.472136 
C 1.186024 4.472136 2.323632 4.000923 3.162278 3.162278 
C 4.000923 2.323632 4.472136 1.186024 4.472136 0 
C 4.472136 -1.186024 4.000923 -2.323632 3.162278 -3.162278 
C 2.323632 -4.000923 1.186024 -4.472136 0 -4.472136 
C -1.186024 -4.472136 -2.323632 -4.000923 -3.162278 -3.162278 
C -4.000923 -2.323632 -4.472136 -1.186024 -4.472136 0 
C -4.472136 1.186024 -4.000923 2.323632 -3.162278 3.162278 
C -2.323632 4.000923 -1.186024 4.472136 0 4.472136 
z
" style="stroke: #ffffff; stroke-width: 2"/>
    </defs>
    <g clip-path="url(#p2fb75509ee)">
     <use xlink:href="#mccdf1caffa" x="61.028" y="77.632995" style="fill: #32cd32; stroke: #ffffff; stroke-width: 2"/>
     <use xlink:href="#mccdf1caffa" x="119.120258" y="102.438378" style="fill: #32cd32; stroke: #ffffff; stroke-width: 2"/>
     <use xlink:href="#mccdf1caffa" x="177.212516" y="122.820249" style="fill: #32cd32; stroke: #ffffff; stroke-width: 2"/>
     <use xlink:href="#mccdf1caffa" x="293.397032" y="138.834799" style="fill: #32cd32; stroke: #ffffff; stroke-width: 2"/>
     <use xlink:href="#mccdf1caffa" x="409.581548" y="149.854558" style="fill: #32cd32; stroke: #ffffff; stroke-width: 2"/>
    </g>
   </g>
   <g id="PathCollection_6">
    <defs>
     <path id="mbd2b2a9a30" d="M -4.472136 4.472136 
L 4.472136 -4.472136 
M -4.472136 -4.472136 
L 4.472136 4.472136 
" style="stroke: #32cd32; stroke-opacity: 0.7; stroke-width: 2"/>
    </defs>
    <g clip-path="url(#p2fb75509ee)">
     <use xlink:href="#mbd2b2a9a30" x="61.028" y="61.084994" style="fill: #32cd32; fill-opacity: 0.7; stroke: #32cd32; stroke-opacity: 0.7; stroke-width: 2"/>
     <use xlink:href="#mbd2b2a9a30" x="119.120258" y="110.521398" style="fill: #32cd32; fill-opacity: 0.7; stroke: #32cd32; stroke-opacity: 0.7; stroke-width: 2"/>
     <use xlink:href="#mbd2b2a9a30" x="177.212516" y="129.395505" style="fill: #32cd32; fill-opacity: 0.7; stroke: #32cd32; stroke-opacity: 0.7; stroke-width: 2"/>
     <use xlink:href="#mbd2b2a9a30" x="293.397032" y="144.580607" style="fill: #32cd32; fill-opacity: 0.7; stroke: #32cd32; stroke-opacity: 0.7; stroke-width: 2"/>
     <use xlink:href="#mbd2b2a9a30" x="409.581548" y="150.973484" style="fill: #32cd32; fill-opacity: 0.7; stroke: #32cd32; stroke-opacity: 0.7; stroke-width: 2"/>
     <use xlink:href="#mbd2b2a9a30" x="61.028" y="61.084994" style="fill: #32cd32; fill-opacity: 0.7; stroke: #32cd32; stroke-opacity: 0.7; stroke-width: 2"/>
    </g>
   </g>
   <g id="PolyCollection_3"/>
   <g id="PathCollection_7">
    <defs>
     <path id="m4fd496983d" d="M 0 4.472136 
C 1.186024 4.472136 2.323632 4.000923 3.162278 3.162278 
C 4.000923 2.323632 4.472136 1.186024 4.472136 0 
C 4.472136 -1.186024 4.000923 -2.323632 3.162278 -3.162278 
C 2.323632 -4.000923 1.186024 -4.472136 0 -4.472136 
C -1.186024 -4.472136 -2.323632 -4.000923 -3.162278 -3.162278 
C -4.000923 -2.323632 -4.472136 -1.186024 -4.472136 0 
C -4.472136 1.186024 -4.000923 2.323632 -3.162278 3.162278 
C -2.323632 4.000923 -1.186024 4.472136 0 4.472136 
z
" style="stroke: #ffffff; stroke-width: 2"/>
    </defs>
    <g clip-path="url(#p2fb75509ee)">
     <use xlink:href="#m4fd496983d" x="61.028" y="75.422904" style="fill: #800080; stroke: #ffffff; stroke-width: 2"/>
     <use xlink:href="#m4fd496983d" x="119.120258" y="131.923338" style="fill: #800080; stroke: #ffffff; stroke-width: 2"/>
     <use xlink:href="#m4fd496983d" x="177.212516" y="159.848531" style="fill: #800080; stroke: #ffffff; stroke-width: 2"/>
     <use xlink:href="#m4fd496983d" x="293.397032" y="180.576022" style="fill: #800080; stroke: #ffffff; stroke-width: 2"/>
     <use xlink:href="#m4fd496983d" x="409.581548" y="186.396156" style="fill: #800080; stroke: #ffffff; stroke-width: 2"/>
    </g>
   </g>
   <g id="PathCollection_8">
    <defs>
     <path id="m08f4de43fc" d="M -4.472136 4.472136 
L 4.472136 -4.472136 
M -4.472136 -4.472136 
L 4.472136 4.472136 
" style="stroke: #800080; stroke-opacity: 0.7; stroke-width: 2"/>
    </defs>
    <g clip-path="url(#p2fb75509ee)">
     <use xlink:href="#m08f4de43fc" x="61.028" y="74.551016" style="fill: #800080; fill-opacity: 0.7; stroke: #800080; stroke-opacity: 0.7; stroke-width: 2"/>
     <use xlink:href="#m08f4de43fc" x="119.120258" y="141.316419" style="fill: #800080; fill-opacity: 0.7; stroke: #800080; stroke-opacity: 0.7; stroke-width: 2"/>
     <use xlink:href="#m08f4de43fc" x="177.212516" y="164.027432" style="fill: #800080; fill-opacity: 0.7; stroke: #800080; stroke-opacity: 0.7; stroke-width: 2"/>
     <use xlink:href="#m08f4de43fc" x="293.397032" y="180.825934" style="fill: #800080; fill-opacity: 0.7; stroke: #800080; stroke-opacity: 0.7; stroke-width: 2"/>
     <use xlink:href="#m08f4de43fc" x="409.581548" y="187.492479" style="fill: #800080; fill-opacity: 0.7; stroke: #800080; stroke-opacity: 0.7; stroke-width: 2"/>
     <use xlink:href="#m08f4de43fc" x="61.028" y="74.551016" style="fill: #800080; fill-opacity: 0.7; stroke: #800080; stroke-opacity: 0.7; stroke-width: 2"/>
    </g>
   </g>
   <g id="PolyCollection_4"/>
   <g id="PathCollection_9"/>
   <g id="matplotlib.axis_1">
    <g id="xtick_1">
     <g id="line2d_1">
      <defs>
       <path id="mecdd2e6c52" d="M 0 0 
L 0 5 
" style="stroke: #000000; stroke-width: 0.8"/>
      </defs>
      <g>
       <use xlink:href="#mecdd2e6c52" x="61.028" y="306.46" style="stroke: #000000; stroke-width: 0.8"/>
      </g>
     </g>
     <g id="text_1">
      <!-- 0.0 -->
      <g transform="translate(51.486125 324.078125) scale(0.12 -0.12)">
       <defs>
        <path id="DejaVuSans-30" d="M 2034 4250 
Q 1547 4250 1301 3770 
Q 1056 3291 1056 2328 
Q 1056 1369 1301 889 
Q 1547 409 2034 409 
Q 2525 409 2770 889 
Q 3016 1369 3016 2328 
Q 3016 3291 2770 3770 
Q 2525 4250 2034 4250 
z
M 2034 4750 
Q 2819 4750 3233 4129 
Q 3647 3509 3647 2328 
Q 3647 1150 3233 529 
Q 2819 -91 2034 -91 
Q 1250 -91 836 529 
Q 422 1150 422 2328 
Q 422 3509 836 4129 
Q 1250 4750 2034 4750 
z
" transform="scale(0.015625)"/>
        <path id="DejaVuSans-2e" d="M 684 794 
L 1344 794 
L 1344 0 
L 684 0 
L 684 794 
z
" transform="scale(0.015625)"/>
       </defs>
       <use xlink:href="#DejaVuSans-30"/>
       <use xlink:href="#DejaVuSans-2e" x="63.623047"/>
       <use xlink:href="#DejaVuSans-30" x="95.410156"/>
      </g>
     </g>
    </g>
    <g id="xtick_2">
     <g id="line2d_2">
      <g>
       <use xlink:href="#mecdd2e6c52" x="130.73871" y="306.46" style="stroke: #000000; stroke-width: 0.8"/>
      </g>
     </g>
     <g id="text_2">
      <!-- 0.3 -->
      <g transform="translate(121.196835 324.078125) scale(0.12 -0.12)">
       <defs>
        <path id="DejaVuSans-33" d="M 2597 2516 
Q 3050 2419 3304 2112 
Q 3559 1806 3559 1356 
Q 3559 666 3084 287 
Q 2609 -91 1734 -91 
Q 1441 -91 1130 -33 
Q 819 25 488 141 
L 488 750 
Q 750 597 1062 519 
Q 1375 441 1716 441 
Q 2309 441 2620 675 
Q 2931 909 2931 1356 
Q 2931 1769 2642 2001 
Q 2353 2234 1838 2234 
L 1294 2234 
L 1294 2753 
L 1863 2753 
Q 2328 2753 2575 2939 
Q 2822 3125 2822 3475 
Q 2822 3834 2567 4026 
Q 2313 4219 1838 4219 
Q 1578 4219 1281 4162 
Q 984 4106 628 3988 
L 628 4550 
Q 988 4650 1302 4700 
Q 1616 4750 1894 4750 
Q 2613 4750 3031 4423 
Q 3450 4097 3450 3541 
Q 3450 3153 3228 2886 
Q 3006 2619 2597 2516 
z
" transform="scale(0.015625)"/>
       </defs>
       <use xlink:href="#DejaVuSans-30"/>
       <use xlink:href="#DejaVuSans-2e" x="63.623047"/>
       <use xlink:href="#DejaVuSans-33" x="95.410156"/>
      </g>
     </g>
    </g>
    <g id="xtick_3">
     <g id="line2d_3">
      <g>
       <use xlink:href="#mecdd2e6c52" x="200.449419" y="306.46" style="stroke: #000000; stroke-width: 0.8"/>
      </g>
     </g>
     <g id="text_3">
      <!-- 0.6 -->
      <g transform="translate(190.907544 324.078125) scale(0.12 -0.12)">
       <defs>
        <path id="DejaVuSans-36" d="M 2113 2584 
Q 1688 2584 1439 2293 
Q 1191 2003 1191 1497 
Q 1191 994 1439 701 
Q 1688 409 2113 409 
Q 2538 409 2786 701 
Q 3034 994 3034 1497 
Q 3034 2003 2786 2293 
Q 2538 2584 2113 2584 
z
M 3366 4563 
L 3366 3988 
Q 3128 4100 2886 4159 
Q 2644 4219 2406 4219 
Q 1781 4219 1451 3797 
Q 1122 3375 1075 2522 
Q 1259 2794 1537 2939 
Q 1816 3084 2150 3084 
Q 2853 3084 3261 2657 
Q 3669 2231 3669 1497 
Q 3669 778 3244 343 
Q 2819 -91 2113 -91 
Q 1303 -91 875 529 
Q 447 1150 447 2328 
Q 447 3434 972 4092 
Q 1497 4750 2381 4750 
Q 2619 4750 2861 4703 
Q 3103 4656 3366 4563 
z
" transform="scale(0.015625)"/>
       </defs>
       <use xlink:href="#DejaVuSans-30"/>
       <use xlink:href="#DejaVuSans-2e" x="63.623047"/>
       <use xlink:href="#DejaVuSans-36" x="95.410156"/>
      </g>
     </g>
    </g>
    <g id="xtick_4">
     <g id="line2d_4">
      <g>
       <use xlink:href="#mecdd2e6c52" x="270.160129" y="306.46" style="stroke: #000000; stroke-width: 0.8"/>
      </g>
     </g>
     <g id="text_4">
      <!-- 0.9 -->
      <g transform="translate(260.618254 324.078125) scale(0.12 -0.12)">
       <defs>
        <path id="DejaVuSans-39" d="M 703 97 
L 703 672 
Q 941 559 1184 500 
Q 1428 441 1663 441 
Q 2288 441 2617 861 
Q 2947 1281 2994 2138 
Q 2813 1869 2534 1725 
Q 2256 1581 1919 1581 
Q 1219 1581 811 2004 
Q 403 2428 403 3163 
Q 403 3881 828 4315 
Q 1253 4750 1959 4750 
Q 2769 4750 3195 4129 
Q 3622 3509 3622 2328 
Q 3622 1225 3098 567 
Q 2575 -91 1691 -91 
Q 1453 -91 1209 -44 
Q 966 3 703 97 
z
M 1959 2075 
Q 2384 2075 2632 2365 
Q 2881 2656 2881 3163 
Q 2881 3666 2632 3958 
Q 2384 4250 1959 4250 
Q 1534 4250 1286 3958 
Q 1038 3666 1038 3163 
Q 1038 2656 1286 2365 
Q 1534 2075 1959 2075 
z
" transform="scale(0.015625)"/>
       </defs>
       <use xlink:href="#DejaVuSans-30"/>
       <use xlink:href="#DejaVuSans-2e" x="63.623047"/>
       <use xlink:href="#DejaVuSans-39" x="95.410156"/>
      </g>
     </g>
    </g>
    <g id="xtick_5">
     <g id="line2d_5">
      <g>
       <use xlink:href="#mecdd2e6c52" x="339.870839" y="306.46" style="stroke: #000000; stroke-width: 0.8"/>
      </g>
     </g>
     <g id="text_5">
      <!-- 1.2 -->
      <g transform="translate(330.328964 324.078125) scale(0.12 -0.12)">
       <defs>
        <path id="DejaVuSans-31" d="M 794 531 
L 1825 531 
L 1825 4091 
L 703 3866 
L 703 4441 
L 1819 4666 
L 2450 4666 
L 2450 531 
L 3481 531 
L 3481 0 
L 794 0 
L 794 531 
z
" transform="scale(0.015625)"/>
        <path id="DejaVuSans-32" d="M 1228 531 
L 3431 531 
L 3431 0 
L 469 0 
L 469 531 
Q 828 903 1448 1529 
Q 2069 2156 2228 2338 
Q 2531 2678 2651 2914 
Q 2772 3150 2772 3378 
Q 2772 3750 2511 3984 
Q 2250 4219 1831 4219 
Q 1534 4219 1204 4116 
Q 875 4013 500 3803 
L 500 4441 
Q 881 4594 1212 4672 
Q 1544 4750 1819 4750 
Q 2544 4750 2975 4387 
Q 3406 4025 3406 3419 
Q 3406 3131 3298 2873 
Q 3191 2616 2906 2266 
Q 2828 2175 2409 1742 
Q 1991 1309 1228 531 
z
" transform="scale(0.015625)"/>
       </defs>
       <use xlink:href="#DejaVuSans-31"/>
       <use xlink:href="#DejaVuSans-2e" x="63.623047"/>
       <use xlink:href="#DejaVuSans-32" x="95.410156"/>
      </g>
     </g>
    </g>
    <g id="xtick_6">
     <g id="line2d_6">
      <g>
       <use xlink:href="#mecdd2e6c52" x="409.581548" y="306.46" style="stroke: #000000; stroke-width: 0.8"/>
      </g>
     </g>
     <g id="text_6">
      <!-- 1.5 -->
      <g transform="translate(400.039673 324.078125) scale(0.12 -0.12)">
       <defs>
        <path id="DejaVuSans-35" d="M 691 4666 
L 3169 4666 
L 3169 4134 
L 1269 4134 
L 1269 2991 
Q 1406 3038 1543 3061 
Q 1681 3084 1819 3084 
Q 2600 3084 3056 2656 
Q 3513 2228 3513 1497 
Q 3513 744 3044 326 
Q 2575 -91 1722 -91 
Q 1428 -91 1123 -41 
Q 819 9 494 109 
L 494 744 
Q 775 591 1075 516 
Q 1375 441 1709 441 
Q 2250 441 2565 725 
Q 2881 1009 2881 1497 
Q 2881 1984 2565 2268 
Q 2250 2553 1709 2553 
Q 1456 2553 1204 2497 
Q 953 2441 691 2322 
L 691 4666 
z
" transform="scale(0.015625)"/>
       </defs>
       <use xlink:href="#DejaVuSans-31"/>
       <use xlink:href="#DejaVuSans-2e" x="63.623047"/>
       <use xlink:href="#DejaVuSans-35" x="95.410156"/>
      </g>
     </g>
    </g>
    <g id="text_7">
     <!-- [AAP]$/\mu$M -->
     <g transform="translate(204.394 342.73375) scale(0.16 -0.16)">
      <defs>
       <path id="DejaVuSans-5b" d="M 550 4863 
L 1875 4863 
L 1875 4416 
L 1125 4416 
L 1125 -397 
L 1875 -397 
L 1875 -844 
L 550 -844 
L 550 4863 
z
" transform="scale(0.015625)"/>
       <path id="DejaVuSans-41" d="M 2188 4044 
L 1331 1722 
L 3047 1722 
L 2188 4044 
z
M 1831 4666 
L 2547 4666 
L 4325 0 
L 3669 0 
L 3244 1197 
L 1141 1197 
L 716 0 
L 50 0 
L 1831 4666 
z
" transform="scale(0.015625)"/>
       <path id="DejaVuSans-50" d="M 1259 4147 
L 1259 2394 
L 2053 2394 
Q 2494 2394 2734 2622 
Q 2975 2850 2975 3272 
Q 2975 3691 2734 3919 
Q 2494 4147 2053 4147 
L 1259 4147 
z
M 628 4666 
L 2053 4666 
Q 2838 4666 3239 4311 
Q 3641 3956 3641 3272 
Q 3641 2581 3239 2228 
Q 2838 1875 2053 1875 
L 1259 1875 
L 1259 0 
L 628 0 
L 628 4666 
z
" transform="scale(0.015625)"/>
       <path id="DejaVuSans-5d" d="M 1947 4863 
L 1947 -844 
L 622 -844 
L 622 -397 
L 1369 -397 
L 1369 4416 
L 622 4416 
L 622 4863 
L 1947 4863 
z
" transform="scale(0.015625)"/>
       <path id="DejaVuSans-2f" d="M 1625 4666 
L 2156 4666 
L 531 -594 
L 0 -594 
L 1625 4666 
z
" transform="scale(0.015625)"/>
       <path id="DejaVuSans-Oblique-3bc" d="M -84 -1331 
L 856 3500 
L 1434 3500 
L 1009 1322 
Q 997 1256 987 1175 
Q 978 1094 978 1013 
Q 978 722 1161 565 
Q 1344 409 1684 409 
Q 2147 409 2431 671 
Q 2716 934 2816 1459 
L 3213 3500 
L 3788 3500 
L 3266 809 
Q 3253 750 3248 706 
Q 3244 663 3244 628 
Q 3244 531 3283 486 
Q 3322 441 3406 441 
Q 3438 441 3492 456 
Q 3547 472 3647 513 
L 3559 50 
Q 3422 -19 3297 -55 
Q 3172 -91 3053 -91 
Q 2847 -91 2730 40 
Q 2613 172 2613 403 
Q 2438 153 2195 31 
Q 1953 -91 1625 -91 
Q 1334 -91 1117 43 
Q 900 178 831 397 
L 494 -1331 
L -84 -1331 
z
" transform="scale(0.015625)"/>
       <path id="DejaVuSans-4d" d="M 628 4666 
L 1569 4666 
L 2759 1491 
L 3956 4666 
L 4897 4666 
L 4897 0 
L 4281 0 
L 4281 4097 
L 3078 897 
L 2444 897 
L 1241 4097 
L 1241 0 
L 628 0 
L 628 4666 
z
" transform="scale(0.015625)"/>
      </defs>
      <use xlink:href="#DejaVuSans-5b" transform="translate(0 0.015625)"/>
      <use xlink:href="#DejaVuSans-41" transform="translate(39.013672 0.015625)"/>
      <use xlink:href="#DejaVuSans-41" transform="translate(107.421875 0.015625)"/>
      <use xlink:href="#DejaVuSans-50" transform="translate(175.830078 0.015625)"/>
      <use xlink:href="#DejaVuSans-5d" transform="translate(236.132812 0.015625)"/>
      <use xlink:href="#DejaVuSans-2f" transform="translate(275.146484 0.015625)"/>
      <use xlink:href="#DejaVuSans-Oblique-3bc" transform="translate(308.837891 0.015625)"/>
      <use xlink:href="#DejaVuSans-4d" transform="translate(372.460938 0.015625)"/>
     </g>
    </g>
   </g>
   <g id="matplotlib.axis_2">
    <g id="ytick_1">
     <g id="line2d_7">
      <defs>
       <path id="ma3193aa26b" d="M 0 0 
L -5 0 
" style="stroke: #000000; stroke-width: 0.8"/>
      </defs>
      <g>
       <use xlink:href="#ma3193aa26b" x="61.028" y="306.46" style="stroke: #000000; stroke-width: 0.8"/>
      </g>
     </g>
     <g id="text_8">
      <!-- 0.0 -->
      <g transform="translate(33.44425 311.019063) scale(0.12 -0.12)">
       <use xlink:href="#DejaVuSans-30"/>
       <use xlink:href="#DejaVuSans-2e" x="63.623047"/>
       <use xlink:href="#DejaVuSans-30" x="95.410156"/>
      </g>
     </g>
    </g>
    <g id="ytick_2">
     <g id="line2d_8">
      <g>
       <use xlink:href="#ma3193aa26b" x="61.028" y="251.12" style="stroke: #000000; stroke-width: 0.8"/>
      </g>
     </g>
     <g id="text_9">
      <!-- 0.2 -->
      <g transform="translate(33.44425 255.679062) scale(0.12 -0.12)">
       <use xlink:href="#DejaVuSans-30"/>
       <use xlink:href="#DejaVuSans-2e" x="63.623047"/>
       <use xlink:href="#DejaVuSans-32" x="95.410156"/>
      </g>
     </g>
    </g>
    <g id="ytick_3">
     <g id="line2d_9">
      <g>
       <use xlink:href="#ma3193aa26b" x="61.028" y="195.78" style="stroke: #000000; stroke-width: 0.8"/>
      </g>
     </g>
     <g id="text_10">
      <!-- 0.4 -->
      <g transform="translate(33.44425 200.339062) scale(0.12 -0.12)">
       <defs>
        <path id="DejaVuSans-34" d="M 2419 4116 
L 825 1625 
L 2419 1625 
L 2419 4116 
z
M 2253 4666 
L 3047 4666 
L 3047 1625 
L 3713 1625 
L 3713 1100 
L 3047 1100 
L 3047 0 
L 2419 0 
L 2419 1100 
L 313 1100 
L 313 1709 
L 2253 4666 
z
" transform="scale(0.015625)"/>
       </defs>
       <use xlink:href="#DejaVuSans-30"/>
       <use xlink:href="#DejaVuSans-2e" x="63.623047"/>
       <use xlink:href="#DejaVuSans-34" x="95.410156"/>
      </g>
     </g>
    </g>
    <g id="ytick_4">
     <g id="line2d_10">
      <g>
       <use xlink:href="#ma3193aa26b" x="61.028" y="140.44" style="stroke: #000000; stroke-width: 0.8"/>
      </g>
     </g>
     <g id="text_11">
      <!-- 0.6 -->
      <g transform="translate(33.44425 144.999062) scale(0.12 -0.12)">
       <use xlink:href="#DejaVuSans-30"/>
       <use xlink:href="#DejaVuSans-2e" x="63.623047"/>
       <use xlink:href="#DejaVuSans-36" x="95.410156"/>
      </g>
     </g>
    </g>
    <g id="ytick_5">
     <g id="line2d_11">
      <g>
       <use xlink:href="#ma3193aa26b" x="61.028" y="85.1" style="stroke: #000000; stroke-width: 0.8"/>
      </g>
     </g>
     <g id="text_12">
      <!-- 0.8 -->
      <g transform="translate(33.44425 89.659062) scale(0.12 -0.12)">
       <defs>
        <path id="DejaVuSans-38" d="M 2034 2216 
Q 1584 2216 1326 1975 
Q 1069 1734 1069 1313 
Q 1069 891 1326 650 
Q 1584 409 2034 409 
Q 2484 409 2743 651 
Q 3003 894 3003 1313 
Q 3003 1734 2745 1975 
Q 2488 2216 2034 2216 
z
M 1403 2484 
Q 997 2584 770 2862 
Q 544 3141 544 3541 
Q 544 4100 942 4425 
Q 1341 4750 2034 4750 
Q 2731 4750 3128 4425 
Q 3525 4100 3525 3541 
Q 3525 3141 3298 2862 
Q 3072 2584 2669 2484 
Q 3125 2378 3379 2068 
Q 3634 1759 3634 1313 
Q 3634 634 3220 271 
Q 2806 -91 2034 -91 
Q 1263 -91 848 271 
Q 434 634 434 1313 
Q 434 1759 690 2068 
Q 947 2378 1403 2484 
z
M 1172 3481 
Q 1172 3119 1398 2916 
Q 1625 2713 2034 2713 
Q 2441 2713 2670 2916 
Q 2900 3119 2900 3481 
Q 2900 3844 2670 4047 
Q 2441 4250 2034 4250 
Q 1625 4250 1398 4047 
Q 1172 3844 1172 3481 
z
" transform="scale(0.015625)"/>
       </defs>
       <use xlink:href="#DejaVuSans-30"/>
       <use xlink:href="#DejaVuSans-2e" x="63.623047"/>
       <use xlink:href="#DejaVuSans-38" x="95.410156"/>
      </g>
     </g>
    </g>
    <g id="ytick_6">
     <g id="line2d_12">
      <g>
       <use xlink:href="#ma3193aa26b" x="61.028" y="29.76" style="stroke: #000000; stroke-width: 0.8"/>
      </g>
     </g>
     <g id="text_13">
      <!-- 1.0 -->
      <g transform="translate(33.44425 34.319062) scale(0.12 -0.12)">
       <use xlink:href="#DejaVuSans-31"/>
       <use xlink:href="#DejaVuSans-2e" x="63.623047"/>
       <use xlink:href="#DejaVuSans-30" x="95.410156"/>
      </g>
     </g>
    </g>
    <g id="text_14">
     <!-- [ATP]/[ATP$_0$] -->
     <g transform="translate(26.11675 217.55) rotate(-90) scale(0.16 -0.16)">
      <defs>
       <path id="DejaVuSans-54" d="M -19 4666 
L 3928 4666 
L 3928 4134 
L 2272 4134 
L 2272 0 
L 1638 0 
L 1638 4134 
L -19 4134 
L -19 4666 
z
" transform="scale(0.015625)"/>
      </defs>
      <use xlink:href="#DejaVuSans-5b" transform="translate(0 0.015625)"/>
      <use xlink:href="#DejaVuSans-41" transform="translate(39.013672 0.015625)"/>
      <use xlink:href="#DejaVuSans-54" transform="translate(107.421875 0.015625)"/>
      <use xlink:href="#DejaVuSans-50" transform="translate(168.505859 0.015625)"/>
      <use xlink:href="#DejaVuSans-5d" transform="translate(228.808594 0.015625)"/>
      <use xlink:href="#DejaVuSans-2f" transform="translate(267.822266 0.015625)"/>
      <use xlink:href="#DejaVuSans-5b" transform="translate(301.513672 0.015625)"/>
      <use xlink:href="#DejaVuSans-41" transform="translate(340.527344 0.015625)"/>
      <use xlink:href="#DejaVuSans-54" transform="translate(408.935547 0.015625)"/>
      <use xlink:href="#DejaVuSans-50" transform="translate(470.019531 0.015625)"/>
      <use xlink:href="#DejaVuSans-30" transform="translate(531.279297 -16.390625) scale(0.7)"/>
      <use xlink:href="#DejaVuSans-5d" transform="translate(578.549805 0.015625)"/>
     </g>
    </g>
   </g>
   <g id="line2d_13">
    <path d="M 8.30811 -1 
L 12.181657 4.94969 
L 19.159706 15.131583 
L 26.137755 24.679467 
L 33.115804 33.632822 
L 40.093853 42.028667 
L 47.071902 49.901717 
L 54.049951 57.284527 
L 61.028 64.207623 
L 68.006049 70.69963 
L 74.984098 76.787391 
L 81.962147 82.496077 
L 88.940196 87.849295 
L 95.918245 92.869176 
L 102.896294 97.576479 
L 109.874343 101.990666 
L 116.852392 106.12999 
L 123.830441 110.011566 
L 130.80849 113.651442 
L 137.786539 117.06467 
L 144.764588 120.265363 
L 151.742637 123.266754 
L 158.720686 126.081253 
L 165.698735 128.720499 
L 176.165809 132.374451 
L 186.632882 135.692485 
L 197.099956 138.705483 
L 207.567029 141.441487 
L 218.034103 143.925962 
L 228.501176 146.182032 
L 238.96825 148.230696 
L 249.435323 150.091019 
L 263.391421 152.308173 
L 277.34752 154.257806 
L 291.303618 155.972199 
L 305.259716 157.479734 
L 322.704838 159.110993 
L 340.149961 160.500047 
L 357.595083 161.68286 
L 378.52923 162.872783 
L 399.463377 163.853977 
L 423.886549 164.783371 
L 433 165.079573 
L 433 165.079573 
" clip-path="url(#p2fb75509ee)" style="fill: none; stroke-dasharray: 5.55,2.4; stroke-dashoffset: 0; stroke: #4169e1; stroke-opacity: 0.7; stroke-width: 1.5"/>
   </g>
   <g id="line2d_14">
    <path d="M 12.232905 -1 
L 17.066291 5.608473 
L 22.299828 12.346725 
L 27.533365 18.678844 
L 32.766901 24.629309 
L 38.000438 30.221124 
L 43.233975 35.475904 
L 48.467512 40.413965 
L 53.701049 45.054396 
L 58.934585 49.415135 
L 64.168122 53.513041 
L 69.401659 57.363955 
L 75.681903 61.679919 
L 81.962147 65.685634 
L 88.242391 69.403402 
L 94.522635 72.853922 
L 100.802879 76.056404 
L 107.083124 79.028678 
L 114.410075 82.227385 
L 121.737026 85.159473 
L 129.063978 87.847166 
L 136.390929 90.310834 
L 144.764588 92.87602 
L 153.138247 95.198338 
L 161.511906 97.300784 
L 170.932272 99.42906 
L 180.352638 101.332027 
L 190.819712 103.211107 
L 201.286785 104.870499 
L 212.800566 106.472654 
L 225.361054 107.987824 
L 238.96825 109.393218 
L 253.622153 110.67308 
L 269.322763 111.818363 
L 287.116788 112.882642 
L 307.004228 113.834052 
L 328.985082 114.654526 
L 354.106059 115.364008 
L 383.413865 115.963909 
L 419.001915 116.460557 
L 433 116.605149 
L 433 116.605149 
" clip-path="url(#p2fb75509ee)" style="fill: none; stroke-dasharray: 5.55,2.4; stroke-dashoffset: 0; stroke: #ff8c00; stroke-opacity: 0.7; stroke-width: 1.5"/>
   </g>
   <g id="line2d_15">
    <path d="M 19.930846 -1 
L 23.346535 5.529705 
L 27.533365 13.149144 
L 31.720194 20.36942 
L 35.907024 27.211444 
L 40.093853 33.695031 
L 44.280682 39.838959 
L 48.467512 45.661022 
L 53.701049 52.51158 
L 58.934585 58.916511 
L 64.168122 64.904802 
L 69.401659 70.503556 
L 74.635196 75.738111 
L 79.868732 80.63216 
L 85.102269 85.207852 
L 90.335806 89.485895 
L 95.569343 93.485653 
L 100.802879 97.225227 
L 106.036416 100.721542 
L 111.269953 103.990423 
L 117.550197 107.633628 
L 123.830441 110.994328 
L 130.110685 114.09443 
L 136.390929 116.954141 
L 142.671173 119.592101 
L 149.998125 122.412319 
L 157.325076 124.979086 
L 164.652028 127.315179 
L 173.025687 129.72905 
L 181.399346 131.896633 
L 189.773004 133.843055 
L 199.193371 135.796431 
L 208.613737 137.527063 
L 219.08081 139.21954 
L 230.594591 140.836279 
L 242.108372 142.230638 
L 254.66886 143.53396 
L 268.276056 144.727582 
L 283.976666 145.868898 
L 300.723984 146.857406 
L 319.564716 147.742595 
L 340.498863 148.504741 
L 365.61984 149.185924 
L 394.927645 149.74696 
L 430.515695 150.19717 
L 433 150.221549 
L 433 150.221549 
" clip-path="url(#p2fb75509ee)" style="fill: none; stroke-dasharray: 5.55,2.4; stroke-dashoffset: 0; stroke: #32cd32; stroke-opacity: 0.7; stroke-width: 1.5"/>
   </g>
   <g id="line2d_16">
    <path d="M 25.140573 -1 
L 28.580072 8.084867 
L 32.766901 18.550101 
L 36.953731 28.404875 
L 41.14056 37.684799 
L 45.32739 46.423405 
L 49.514219 54.652269 
L 53.701049 62.401125 
L 57.887878 69.697974 
L 62.074707 76.569183 
L 66.261537 83.039578 
L 70.448366 89.132542 
L 74.635196 94.87009 
L 78.822025 100.272954 
L 83.008854 105.360657 
L 87.195684 110.151584 
L 91.382513 114.663046 
L 96.61605 119.934118 
L 101.849587 124.823694 
L 107.083124 129.359384 
L 112.31666 133.5668 
L 117.550197 137.469703 
L 122.783734 141.09013 
L 128.017271 144.448527 
L 133.250807 147.563858 
L 138.484344 150.453715 
L 144.764588 153.646811 
L 151.044832 156.564632 
L 157.325076 159.230908 
L 163.605321 161.667326 
L 170.932272 164.245638 
L 178.259223 166.566538 
L 185.586175 168.655726 
L 193.959834 170.789209 
L 202.333493 172.681049 
L 210.707151 174.358617 
L 220.127518 176.019865 
L 230.594591 177.620443 
L 241.061665 178.99772 
L 252.575446 180.29186 
L 265.135934 181.479869 
L 278.743129 182.546746 
L 294.44374 183.544751 
L 312.237765 184.434654 
L 332.125204 185.194072 
L 355.152766 185.841033 
L 382.367157 186.375102 
L 415.861793 186.801632 
L 433 186.952288 
L 433 186.952288 
" clip-path="url(#p2fb75509ee)" style="fill: none; stroke-dasharray: 5.55,2.4; stroke-dashoffset: 0; stroke: #800080; stroke-opacity: 0.7; stroke-width: 1.5"/>
   </g>
   <g id="line2d_17"/>
   <g id="patch_3">
    <path d="M 61.028 306.46 
L 61.028 29.76 
" style="fill: none; stroke: #000000; stroke-width: 0.8; stroke-linejoin: miter; stroke-linecap: square"/>
   </g>
   <g id="patch_4">
    <path d="M 61.028 306.46 
L 421.2 306.46 
" style="fill: none; stroke: #000000; stroke-width: 0.8; stroke-linejoin: miter; stroke-linecap: square"/>
   </g>
   <g id="text_15">
    <!-- AAP kinetics -->
    <g transform="translate(191.81025 23.76) scale(0.16 -0.16)">
     <defs>
      <path id="DejaVuSans-20" transform="scale(0.015625)"/>
      <path id="DejaVuSans-6b" d="M 581 4863 
L 1159 4863 
L 1159 1991 
L 2875 3500 
L 3609 3500 
L 1753 1863 
L 3688 0 
L 2938 0 
L 1159 1709 
L 1159 0 
L 581 0 
L 581 4863 
z
" transform="scale(0.015625)"/>
      <path id="DejaVuSans-69" d="M 603 3500 
L 1178 3500 
L 1178 0 
L 603 0 
L 603 3500 
z
M 603 4863 
L 1178 4863 
L 1178 4134 
L 603 4134 
L 603 4863 
z
" transform="scale(0.015625)"/>
      <path id="DejaVuSans-6e" d="M 3513 2113 
L 3513 0 
L 2938 0 
L 2938 2094 
Q 2938 2591 2744 2837 
Q 2550 3084 2163 3084 
Q 1697 3084 1428 2787 
Q 1159 2491 1159 1978 
L 1159 0 
L 581 0 
L 581 3500 
L 1159 3500 
L 1159 2956 
Q 1366 3272 1645 3428 
Q 1925 3584 2291 3584 
Q 2894 3584 3203 3211 
Q 3513 2838 3513 2113 
z
" transform="scale(0.015625)"/>
      <path id="DejaVuSans-65" d="M 3597 1894 
L 3597 1613 
L 953 1613 
Q 991 1019 1311 708 
Q 1631 397 2203 397 
Q 2534 397 2845 478 
Q 3156 559 3463 722 
L 3463 178 
Q 3153 47 2828 -22 
Q 2503 -91 2169 -91 
Q 1331 -91 842 396 
Q 353 884 353 1716 
Q 353 2575 817 3079 
Q 1281 3584 2069 3584 
Q 2775 3584 3186 3129 
Q 3597 2675 3597 1894 
z
M 3022 2063 
Q 3016 2534 2758 2815 
Q 2500 3097 2075 3097 
Q 1594 3097 1305 2825 
Q 1016 2553 972 2059 
L 3022 2063 
z
" transform="scale(0.015625)"/>
      <path id="DejaVuSans-74" d="M 1172 4494 
L 1172 3500 
L 2356 3500 
L 2356 3053 
L 1172 3053 
L 1172 1153 
Q 1172 725 1289 603 
Q 1406 481 1766 481 
L 2356 481 
L 2356 0 
L 1766 0 
Q 1100 0 847 248 
Q 594 497 594 1153 
L 594 3053 
L 172 3053 
L 172 3500 
L 594 3500 
L 594 4494 
L 1172 4494 
z
" transform="scale(0.015625)"/>
      <path id="DejaVuSans-63" d="M 3122 3366 
L 3122 2828 
Q 2878 2963 2633 3030 
Q 2388 3097 2138 3097 
Q 1578 3097 1268 2742 
Q 959 2388 959 1747 
Q 959 1106 1268 751 
Q 1578 397 2138 397 
Q 2388 397 2633 464 
Q 2878 531 3122 666 
L 3122 134 
Q 2881 22 2623 -34 
Q 2366 -91 2075 -91 
Q 1284 -91 818 406 
Q 353 903 353 1747 
Q 353 2603 823 3093 
Q 1294 3584 2113 3584 
Q 2378 3584 2631 3529 
Q 2884 3475 3122 3366 
z
" transform="scale(0.015625)"/>
      <path id="DejaVuSans-73" d="M 2834 3397 
L 2834 2853 
Q 2591 2978 2328 3040 
Q 2066 3103 1784 3103 
Q 1356 3103 1142 2972 
Q 928 2841 928 2578 
Q 928 2378 1081 2264 
Q 1234 2150 1697 2047 
L 1894 2003 
Q 2506 1872 2764 1633 
Q 3022 1394 3022 966 
Q 3022 478 2636 193 
Q 2250 -91 1575 -91 
Q 1294 -91 989 -36 
Q 684 19 347 128 
L 347 722 
Q 666 556 975 473 
Q 1284 391 1588 391 
Q 1994 391 2212 530 
Q 2431 669 2431 922 
Q 2431 1156 2273 1281 
Q 2116 1406 1581 1522 
L 1381 1569 
Q 847 1681 609 1914 
Q 372 2147 372 2553 
Q 372 3047 722 3315 
Q 1072 3584 1716 3584 
Q 2034 3584 2315 3537 
Q 2597 3491 2834 3397 
z
" transform="scale(0.015625)"/>
     </defs>
     <use xlink:href="#DejaVuSans-41"/>
     <use xlink:href="#DejaVuSans-41" x="71.158203"/>
     <use xlink:href="#DejaVuSans-50" x="139.566406"/>
     <use xlink:href="#DejaVuSans-20" x="199.869141"/>
     <use xlink:href="#DejaVuSans-6b" x="231.65625"/>
     <use xlink:href="#DejaVuSans-69" x="289.566406"/>
     <use xlink:href="#DejaVuSans-6e" x="317.349609"/>
     <use xlink:href="#DejaVuSans-65" x="380.728516"/>
     <use xlink:href="#DejaVuSans-74" x="442.251953"/>
     <use xlink:href="#DejaVuSans-69" x="481.460938"/>
     <use xlink:href="#DejaVuSans-63" x="509.244141"/>
     <use xlink:href="#DejaVuSans-73" x="564.224609"/>
    </g>
   </g>
   <g id="legend_1">
    <g id="patch_5">
     <path d="M 301.913438 301.96 
L 414.9 301.96 
Q 416.7 301.96 416.7 300.16 
L 416.7 221.798125 
Q 416.7 219.998125 414.9 219.998125 
L 301.913438 219.998125 
Q 300.113438 219.998125 300.113438 221.798125 
L 300.113438 300.16 
Q 300.113438 301.96 301.913438 301.96 
z
" style="fill: #ffffff; opacity: 0.8; stroke: #cccccc; stroke-linejoin: miter"/>
    </g>
    <g id="PathCollection_10">
     <g>
      <use xlink:href="#mce2a29437b" x="312.713438" y="228.074219" style="fill: #4169e1; stroke: #ffffff; stroke-width: 2"/>
     </g>
    </g>
    <g id="text_16">
     <!-- AAPmain, T=98.0 -->
     <g transform="translate(328.913438 230.436719) scale(0.09 -0.09)">
      <defs>
       <path id="DejaVuSans-6d" d="M 3328 2828 
Q 3544 3216 3844 3400 
Q 4144 3584 4550 3584 
Q 5097 3584 5394 3201 
Q 5691 2819 5691 2113 
L 5691 0 
L 5113 0 
L 5113 2094 
Q 5113 2597 4934 2840 
Q 4756 3084 4391 3084 
Q 3944 3084 3684 2787 
Q 3425 2491 3425 1978 
L 3425 0 
L 2847 0 
L 2847 2094 
Q 2847 2600 2669 2842 
Q 2491 3084 2119 3084 
Q 1678 3084 1418 2786 
Q 1159 2488 1159 1978 
L 1159 0 
L 581 0 
L 581 3500 
L 1159 3500 
L 1159 2956 
Q 1356 3278 1631 3431 
Q 1906 3584 2284 3584 
Q 2666 3584 2933 3390 
Q 3200 3197 3328 2828 
z
" transform="scale(0.015625)"/>
       <path id="DejaVuSans-61" d="M 2194 1759 
Q 1497 1759 1228 1600 
Q 959 1441 959 1056 
Q 959 750 1161 570 
Q 1363 391 1709 391 
Q 2188 391 2477 730 
Q 2766 1069 2766 1631 
L 2766 1759 
L 2194 1759 
z
M 3341 1997 
L 3341 0 
L 2766 0 
L 2766 531 
Q 2569 213 2275 61 
Q 1981 -91 1556 -91 
Q 1019 -91 701 211 
Q 384 513 384 1019 
Q 384 1609 779 1909 
Q 1175 2209 1959 2209 
L 2766 2209 
L 2766 2266 
Q 2766 2663 2505 2880 
Q 2244 3097 1772 3097 
Q 1472 3097 1187 3025 
Q 903 2953 641 2809 
L 641 3341 
Q 956 3463 1253 3523 
Q 1550 3584 1831 3584 
Q 2591 3584 2966 3190 
Q 3341 2797 3341 1997 
z
" transform="scale(0.015625)"/>
       <path id="DejaVuSans-2c" d="M 750 794 
L 1409 794 
L 1409 256 
L 897 -744 
L 494 -744 
L 750 256 
L 750 794 
z
" transform="scale(0.015625)"/>
       <path id="DejaVuSans-3d" d="M 678 2906 
L 4684 2906 
L 4684 2381 
L 678 2381 
L 678 2906 
z
M 678 1631 
L 4684 1631 
L 4684 1100 
L 678 1100 
L 678 1631 
z
" transform="scale(0.015625)"/>
      </defs>
      <use xlink:href="#DejaVuSans-41"/>
      <use xlink:href="#DejaVuSans-41" x="71.158203"/>
      <use xlink:href="#DejaVuSans-50" x="139.566406"/>
      <use xlink:href="#DejaVuSans-6d" x="199.869141"/>
      <use xlink:href="#DejaVuSans-61" x="297.28125"/>
      <use xlink:href="#DejaVuSans-69" x="358.560547"/>
      <use xlink:href="#DejaVuSans-6e" x="386.34375"/>
      <use xlink:href="#DejaVuSans-2c" x="449.722656"/>
      <use xlink:href="#DejaVuSans-20" x="481.509766"/>
      <use xlink:href="#DejaVuSans-54" x="513.296875"/>
      <use xlink:href="#DejaVuSans-3d" x="574.380859"/>
      <use xlink:href="#DejaVuSans-39" x="658.169922"/>
      <use xlink:href="#DejaVuSans-38" x="721.792969"/>
      <use xlink:href="#DejaVuSans-2e" x="785.416016"/>
      <use xlink:href="#DejaVuSans-30" x="817.203125"/>
     </g>
    </g>
    <g id="PathCollection_11">
     <g>
      <use xlink:href="#mfc455508c1" x="312.713438" y="241.284531" style="fill: #ff8c00; stroke: #ffffff; stroke-width: 2"/>
     </g>
    </g>
    <g id="text_17">
     <!-- AAPsup1, T=61.0 -->
     <g transform="translate(328.913438 243.647031) scale(0.09 -0.09)">
      <defs>
       <path id="DejaVuSans-75" d="M 544 1381 
L 544 3500 
L 1119 3500 
L 1119 1403 
Q 1119 906 1312 657 
Q 1506 409 1894 409 
Q 2359 409 2629 706 
Q 2900 1003 2900 1516 
L 2900 3500 
L 3475 3500 
L 3475 0 
L 2900 0 
L 2900 538 
Q 2691 219 2414 64 
Q 2138 -91 1772 -91 
Q 1169 -91 856 284 
Q 544 659 544 1381 
z
M 1991 3584 
L 1991 3584 
z
" transform="scale(0.015625)"/>
       <path id="DejaVuSans-70" d="M 1159 525 
L 1159 -1331 
L 581 -1331 
L 581 3500 
L 1159 3500 
L 1159 2969 
Q 1341 3281 1617 3432 
Q 1894 3584 2278 3584 
Q 2916 3584 3314 3078 
Q 3713 2572 3713 1747 
Q 3713 922 3314 415 
Q 2916 -91 2278 -91 
Q 1894 -91 1617 61 
Q 1341 213 1159 525 
z
M 3116 1747 
Q 3116 2381 2855 2742 
Q 2594 3103 2138 3103 
Q 1681 3103 1420 2742 
Q 1159 2381 1159 1747 
Q 1159 1113 1420 752 
Q 1681 391 2138 391 
Q 2594 391 2855 752 
Q 3116 1113 3116 1747 
z
" transform="scale(0.015625)"/>
      </defs>
      <use xlink:href="#DejaVuSans-41"/>
      <use xlink:href="#DejaVuSans-41" x="71.158203"/>
      <use xlink:href="#DejaVuSans-50" x="139.566406"/>
      <use xlink:href="#DejaVuSans-73" x="198.119141"/>
      <use xlink:href="#DejaVuSans-75" x="250.21875"/>
      <use xlink:href="#DejaVuSans-70" x="313.597656"/>
      <use xlink:href="#DejaVuSans-31" x="377.074219"/>
      <use xlink:href="#DejaVuSans-2c" x="440.697266"/>
      <use xlink:href="#DejaVuSans-20" x="472.484375"/>
      <use xlink:href="#DejaVuSans-54" x="504.271484"/>
      <use xlink:href="#DejaVuSans-3d" x="565.355469"/>
      <use xlink:href="#DejaVuSans-36" x="649.144531"/>
      <use xlink:href="#DejaVuSans-31" x="712.767578"/>
      <use xlink:href="#DejaVuSans-2e" x="776.390625"/>
      <use xlink:href="#DejaVuSans-30" x="808.177734"/>
     </g>
    </g>
    <g id="PathCollection_12">
     <g>
      <use xlink:href="#mccdf1caffa" x="312.713438" y="254.494844" style="fill: #32cd32; stroke: #ffffff; stroke-width: 2"/>
     </g>
    </g>
    <g id="text_18">
     <!-- AAPsup2, T=91.0 -->
     <g transform="translate(328.913438 256.857344) scale(0.09 -0.09)">
      <use xlink:href="#DejaVuSans-41"/>
      <use xlink:href="#DejaVuSans-41" x="71.158203"/>
      <use xlink:href="#DejaVuSans-50" x="139.566406"/>
      <use xlink:href="#DejaVuSans-73" x="198.119141"/>
      <use xlink:href="#DejaVuSans-75" x="250.21875"/>
      <use xlink:href="#DejaVuSans-70" x="313.597656"/>
      <use xlink:href="#DejaVuSans-32" x="377.074219"/>
      <use xlink:href="#DejaVuSans-2c" x="440.697266"/>
      <use xlink:href="#DejaVuSans-20" x="472.484375"/>
      <use xlink:href="#DejaVuSans-54" x="504.271484"/>
      <use xlink:href="#DejaVuSans-3d" x="565.355469"/>
      <use xlink:href="#DejaVuSans-39" x="649.144531"/>
      <use xlink:href="#DejaVuSans-31" x="712.767578"/>
      <use xlink:href="#DejaVuSans-2e" x="776.390625"/>
      <use xlink:href="#DejaVuSans-30" x="808.177734"/>
     </g>
    </g>
    <g id="PathCollection_13">
     <g>
      <use xlink:href="#m4fd496983d" x="312.713438" y="267.705156" style="fill: #800080; stroke: #ffffff; stroke-width: 2"/>
     </g>
    </g>
    <g id="text_19">
     <!-- AAPsup3, T=131.0 -->
     <g transform="translate(328.913438 270.067656) scale(0.09 -0.09)">
      <use xlink:href="#DejaVuSans-41"/>
      <use xlink:href="#DejaVuSans-41" x="71.158203"/>
      <use xlink:href="#DejaVuSans-50" x="139.566406"/>
      <use xlink:href="#DejaVuSans-73" x="198.119141"/>
      <use xlink:href="#DejaVuSans-75" x="250.21875"/>
      <use xlink:href="#DejaVuSans-70" x="313.597656"/>
      <use xlink:href="#DejaVuSans-33" x="377.074219"/>
      <use xlink:href="#DejaVuSans-2c" x="440.697266"/>
      <use xlink:href="#DejaVuSans-20" x="472.484375"/>
      <use xlink:href="#DejaVuSans-54" x="504.271484"/>
      <use xlink:href="#DejaVuSans-3d" x="565.355469"/>
      <use xlink:href="#DejaVuSans-31" x="649.144531"/>
      <use xlink:href="#DejaVuSans-33" x="712.767578"/>
      <use xlink:href="#DejaVuSans-31" x="776.390625"/>
      <use xlink:href="#DejaVuSans-2e" x="840.013672"/>
      <use xlink:href="#DejaVuSans-30" x="871.800781"/>
     </g>
    </g>
    <g id="line2d_18">
     <path d="M 303.713438 280.127969 
L 312.713438 280.127969 
L 321.713438 280.127969 
" style="fill: none; stroke-dasharray: 5.55,2.4; stroke-dashoffset: 0; stroke: #000000; stroke-width: 1.5"/>
    </g>
    <g id="text_20">
     <!-- $ae^{bx}$ Simulation fit -->
     <g transform="translate(328.913438 283.277969) scale(0.09 -0.09)">
      <defs>
       <path id="DejaVuSans-Oblique-61" d="M 3438 1997 
L 3047 0 
L 2472 0 
L 2578 531 
Q 2325 219 2001 64 
Q 1678 -91 1281 -91 
Q 834 -91 548 182 
Q 263 456 263 884 
Q 263 1497 752 1853 
Q 1241 2209 2100 2209 
L 2900 2209 
L 2931 2363 
Q 2938 2388 2941 2417 
Q 2944 2447 2944 2509 
Q 2944 2788 2717 2942 
Q 2491 3097 2081 3097 
Q 1800 3097 1504 3025 
Q 1209 2953 897 2809 
L 997 3341 
Q 1322 3463 1633 3523 
Q 1944 3584 2234 3584 
Q 2853 3584 3176 3315 
Q 3500 3047 3500 2534 
Q 3500 2431 3484 2292 
Q 3469 2153 3438 1997 
z
M 2816 1759 
L 2241 1759 
Q 1534 1759 1195 1570 
Q 856 1381 856 984 
Q 856 709 1029 553 
Q 1203 397 1509 397 
Q 1978 397 2328 733 
Q 2678 1069 2791 1631 
L 2816 1759 
z
" transform="scale(0.015625)"/>
       <path id="DejaVuSans-Oblique-65" d="M 3078 2063 
Q 3088 2113 3092 2166 
Q 3097 2219 3097 2272 
Q 3097 2653 2873 2875 
Q 2650 3097 2266 3097 
Q 1838 3097 1509 2826 
Q 1181 2556 1013 2059 
L 3078 2063 
z
M 3578 1613 
L 903 1613 
Q 884 1494 878 1425 
Q 872 1356 872 1306 
Q 872 872 1139 634 
Q 1406 397 1894 397 
Q 2269 397 2603 481 
Q 2938 566 3225 728 
L 3116 159 
Q 2806 34 2476 -28 
Q 2147 -91 1806 -91 
Q 1078 -91 686 257 
Q 294 606 294 1247 
Q 294 1794 489 2264 
Q 684 2734 1063 3103 
Q 1306 3334 1642 3459 
Q 1978 3584 2356 3584 
Q 2950 3584 3301 3228 
Q 3653 2872 3653 2272 
Q 3653 2128 3634 1964 
Q 3616 1800 3578 1613 
z
" transform="scale(0.015625)"/>
       <path id="DejaVuSans-Oblique-62" d="M 3169 2138 
Q 3169 2591 2961 2847 
Q 2753 3103 2388 3103 
Q 2122 3103 1889 2973 
Q 1656 2844 1484 2597 
Q 1303 2338 1198 1995 
Q 1094 1653 1094 1313 
Q 1094 881 1298 636 
Q 1503 391 1863 391 
Q 2134 391 2365 517 
Q 2597 644 2772 891 
Q 2950 1147 3059 1487 
Q 3169 1828 3169 2138 
z
M 1381 2969 
Q 1594 3256 1914 3420 
Q 2234 3584 2584 3584 
Q 3122 3584 3439 3221 
Q 3756 2859 3756 2241 
Q 3756 1734 3570 1259 
Q 3384 784 3041 416 
Q 2816 172 2522 40 
Q 2228 -91 1906 -91 
Q 1566 -91 1316 65 
Q 1066 222 909 531 
L 806 0 
L 231 0 
L 1178 4863 
L 1753 4863 
L 1381 2969 
z
" transform="scale(0.015625)"/>
       <path id="DejaVuSans-Oblique-78" d="M 3841 3500 
L 2234 1784 
L 3219 0 
L 2559 0 
L 1819 1388 
L 531 0 
L -166 0 
L 1556 1844 
L 641 3500 
L 1300 3500 
L 1972 2234 
L 3144 3500 
L 3841 3500 
z
" transform="scale(0.015625)"/>
       <path id="DejaVuSans-53" d="M 3425 4513 
L 3425 3897 
Q 3066 4069 2747 4153 
Q 2428 4238 2131 4238 
Q 1616 4238 1336 4038 
Q 1056 3838 1056 3469 
Q 1056 3159 1242 3001 
Q 1428 2844 1947 2747 
L 2328 2669 
Q 3034 2534 3370 2195 
Q 3706 1856 3706 1288 
Q 3706 609 3251 259 
Q 2797 -91 1919 -91 
Q 1588 -91 1214 -16 
Q 841 59 441 206 
L 441 856 
Q 825 641 1194 531 
Q 1563 422 1919 422 
Q 2459 422 2753 634 
Q 3047 847 3047 1241 
Q 3047 1584 2836 1778 
Q 2625 1972 2144 2069 
L 1759 2144 
Q 1053 2284 737 2584 
Q 422 2884 422 3419 
Q 422 4038 858 4394 
Q 1294 4750 2059 4750 
Q 2388 4750 2728 4690 
Q 3069 4631 3425 4513 
z
" transform="scale(0.015625)"/>
       <path id="DejaVuSans-6c" d="M 603 4863 
L 1178 4863 
L 1178 0 
L 603 0 
L 603 4863 
z
" transform="scale(0.015625)"/>
       <path id="DejaVuSans-6f" d="M 1959 3097 
Q 1497 3097 1228 2736 
Q 959 2375 959 1747 
Q 959 1119 1226 758 
Q 1494 397 1959 397 
Q 2419 397 2687 759 
Q 2956 1122 2956 1747 
Q 2956 2369 2687 2733 
Q 2419 3097 1959 3097 
z
M 1959 3584 
Q 2709 3584 3137 3096 
Q 3566 2609 3566 1747 
Q 3566 888 3137 398 
Q 2709 -91 1959 -91 
Q 1206 -91 779 398 
Q 353 888 353 1747 
Q 353 2609 779 3096 
Q 1206 3584 1959 3584 
z
" transform="scale(0.015625)"/>
       <path id="DejaVuSans-66" d="M 2375 4863 
L 2375 4384 
L 1825 4384 
Q 1516 4384 1395 4259 
Q 1275 4134 1275 3809 
L 1275 3500 
L 2222 3500 
L 2222 3053 
L 1275 3053 
L 1275 0 
L 697 0 
L 697 3053 
L 147 3053 
L 147 3500 
L 697 3500 
L 697 3744 
Q 697 4328 969 4595 
Q 1241 4863 1831 4863 
L 2375 4863 
z
" transform="scale(0.015625)"/>
      </defs>
      <use xlink:href="#DejaVuSans-Oblique-61" transform="translate(0 0.529687)"/>
      <use xlink:href="#DejaVuSans-Oblique-65" transform="translate(61.279297 0.529687)"/>
      <use xlink:href="#DejaVuSans-Oblique-62" transform="translate(127.45263 38.810937) scale(0.7)"/>
      <use xlink:href="#DejaVuSans-Oblique-78" transform="translate(171.886224 38.810937) scale(0.7)"/>
      <use xlink:href="#DejaVuSans-20" transform="translate(216.04638 0.529687)"/>
      <use xlink:href="#DejaVuSans-53" transform="translate(247.83349 0.529687)"/>
      <use xlink:href="#DejaVuSans-69" transform="translate(311.310052 0.529687)"/>
      <use xlink:href="#DejaVuSans-6d" transform="translate(339.093255 0.529687)"/>
      <use xlink:href="#DejaVuSans-75" transform="translate(436.505365 0.529687)"/>
      <use xlink:href="#DejaVuSans-6c" transform="translate(499.884271 0.529687)"/>
      <use xlink:href="#DejaVuSans-61" transform="translate(527.667474 0.529687)"/>
      <use xlink:href="#DejaVuSans-74" transform="translate(588.946771 0.529687)"/>
      <use xlink:href="#DejaVuSans-69" transform="translate(628.155755 0.529687)"/>
      <use xlink:href="#DejaVuSans-6f" transform="translate(655.938958 0.529687)"/>
      <use xlink:href="#DejaVuSans-6e" transform="translate(717.120599 0.529687)"/>
      <use xlink:href="#DejaVuSans-20" transform="translate(780.499505 0.529687)"/>
      <use xlink:href="#DejaVuSans-66" transform="translate(812.286615 0.529687)"/>
      <use xlink:href="#DejaVuSans-69" transform="translate(847.491693 0.529687)"/>
      <use xlink:href="#DejaVuSans-74" transform="translate(875.274896 0.529687)"/>
     </g>
    </g>
    <g id="PathCollection_14">
     <defs>
      <path id="me66586d969" d="M -3 3 
L 3 -3 
M -3 -3 
L 3 3 
" style="stroke: #000000; stroke-width: 1.5"/>
     </defs>
     <g>
      <use xlink:href="#me66586d969" x="312.713438" y="294.125781" style="stroke: #000000; stroke-width: 1.5"/>
     </g>
    </g>
    <g id="text_21">
     <!-- Simulation data -->
     <g transform="translate(328.913438 296.488281) scale(0.09 -0.09)">
      <defs>
       <path id="DejaVuSans-64" d="M 2906 2969 
L 2906 4863 
L 3481 4863 
L 3481 0 
L 2906 0 
L 2906 525 
Q 2725 213 2448 61 
Q 2172 -91 1784 -91 
Q 1150 -91 751 415 
Q 353 922 353 1747 
Q 353 2572 751 3078 
Q 1150 3584 1784 3584 
Q 2172 3584 2448 3432 
Q 2725 3281 2906 2969 
z
M 947 1747 
Q 947 1113 1208 752 
Q 1469 391 1925 391 
Q 2381 391 2643 752 
Q 2906 1113 2906 1747 
Q 2906 2381 2643 2742 
Q 2381 3103 1925 3103 
Q 1469 3103 1208 2742 
Q 947 2381 947 1747 
z
" transform="scale(0.015625)"/>
      </defs>
      <use xlink:href="#DejaVuSans-53"/>
      <use xlink:href="#DejaVuSans-69" x="63.476562"/>
      <use xlink:href="#DejaVuSans-6d" x="91.259766"/>
      <use xlink:href="#DejaVuSans-75" x="188.671875"/>
      <use xlink:href="#DejaVuSans-6c" x="252.050781"/>
      <use xlink:href="#DejaVuSans-61" x="279.833984"/>
      <use xlink:href="#DejaVuSans-74" x="341.113281"/>
      <use xlink:href="#DejaVuSans-69" x="380.322266"/>
      <use xlink:href="#DejaVuSans-6f" x="408.105469"/>
      <use xlink:href="#DejaVuSans-6e" x="469.287109"/>
      <use xlink:href="#DejaVuSans-20" x="532.666016"/>
      <use xlink:href="#DejaVuSans-64" x="564.453125"/>
      <use xlink:href="#DejaVuSans-61" x="627.929688"/>
      <use xlink:href="#DejaVuSans-74" x="689.208984"/>
      <use xlink:href="#DejaVuSans-61" x="728.417969"/>
     </g>
    </g>
   </g>
  </g>
 </g>
 <defs>
  <clipPath id="p2fb75509ee">
   <rect x="61.028" y="29.76" width="360.172" height="276.7"/>
  </clipPath>
 </defs>
</svg>
