<?xml version="1.0" encoding="utf-8" standalone="no"?>
<!DOCTYPE svg PUBLIC "-//W3C//DTD SVG 1.1//EN"
  "http://www.w3.org/Graphics/SVG/1.1/DTD/svg11.dtd">
<svg xmlns:xlink="http://www.w3.org/1999/xlink" width="432pt" height="360pt" viewBox="0 0 432 360" xmlns="http://www.w3.org/2000/svg" version="1.1">
 <metadata>
  <rdf:RDF xmlns:dc="http://purl.org/dc/elements/1.1/" xmlns:cc="http://creativecommons.org/ns#" xmlns:rdf="http://www.w3.org/1999/02/22-rdf-syntax-ns#">
   <cc:Work>
    <dc:type rdf:resource="http://purl.org/dc/dcmitype/StillImage"/>
    <dc:date>2025-04-23T16:07:37.444741</dc:date>
    <dc:format>image/svg+xml</dc:format>
    <dc:creator>
     <cc:Agent>
      <dc:title>Matplotlib v3.7.2, https://matplotlib.org/</dc:title>
     </cc:Agent>
    </dc:creator>
   </cc:Work>
  </rdf:RDF>
 </metadata>
 <defs>
  <style type="text/css">*{stroke-linejoin: round; stroke-linecap: butt}</style>
 </defs>
 <g id="figure_1">
  <g id="patch_1">
   <path d="M 0 360 
L 432 360 
L 432 0 
L 0 0 
z
" style="fill: #ffffff"/>
  </g>
  <g id="axes_1">
   <g id="patch_2">
    <path d="M 61.028 306.46 
L 421.2 306.46 
L 421.2 29.76 
L 61.028 29.76 
z
" style="fill: #ffffff"/>
   </g>
   <g id="PolyCollection_1"/>
   <g id="PathCollection_1">
    <defs>
     <path id="m5076621357" d="M -4.472136 4.472136 
L 4.472136 -4.472136 
M -4.472136 -4.472136 
L 4.472136 4.472136 
" style="stroke: #4169e1; stroke-opacity: 0.7; stroke-width: 2"/>
    </defs>
    <g clip-path="url(#p80f2b36cc3)">
     <use xlink:href="#m5076621357" x="61.028" y="79.05546" style="fill: #4169e1; fill-opacity: 0.7; stroke: #4169e1; stroke-opacity: 0.7; stroke-width: 2"/>
     <use xlink:href="#m5076621357" x="290.228364" y="184.132244" style="fill: #4169e1; fill-opacity: 0.7; stroke: #4169e1; stroke-opacity: 0.7; stroke-width: 2"/>
     <use xlink:href="#m5076621357" x="257.485455" y="162.018858" style="fill: #4169e1; fill-opacity: 0.7; stroke: #4169e1; stroke-opacity: 0.7; stroke-width: 2"/>
     <use xlink:href="#m5076621357" x="224.742545" y="134.805899" style="fill: #4169e1; fill-opacity: 0.7; stroke: #4169e1; stroke-opacity: 0.7; stroke-width: 2"/>
     <use xlink:href="#m5076621357" x="191.999636" y="108.262998" style="fill: #4169e1; fill-opacity: 0.7; stroke: #4169e1; stroke-opacity: 0.7; stroke-width: 2"/>
     <use xlink:href="#m5076621357" x="159.256727" y="89.721907" style="fill: #4169e1; fill-opacity: 0.7; stroke: #4169e1; stroke-opacity: 0.7; stroke-width: 2"/>
     <use xlink:href="#m5076621357" x="126.513818" y="81.291323" style="fill: #4169e1; fill-opacity: 0.7; stroke: #4169e1; stroke-opacity: 0.7; stroke-width: 2"/>
     <use xlink:href="#m5076621357" x="93.770909" y="79.197209" style="fill: #4169e1; fill-opacity: 0.7; stroke: #4169e1; stroke-opacity: 0.7; stroke-width: 2"/>
     <use xlink:href="#m5076621357" x="61.028" y="79.05546" style="fill: #4169e1; fill-opacity: 0.7; stroke: #4169e1; stroke-opacity: 0.7; stroke-width: 2"/>
    </g>
   </g>
   <g id="PolyCollection_2"/>
   <g id="PathCollection_2">
    <defs>
     <path id="mefd20792d6" d="M -4.472136 4.472136 
L 4.472136 -4.472136 
M -4.472136 -4.472136 
L 4.472136 4.472136 
" style="stroke: #ff8c00; stroke-opacity: 0.7; stroke-width: 2"/>
    </defs>
    <g clip-path="url(#p80f2b36cc3)">
     <use xlink:href="#mefd20792d6" x="61.028" y="64.866588" style="fill: #ff8c00; fill-opacity: 0.7; stroke: #ff8c00; stroke-opacity: 0.7; stroke-width: 2"/>
     <use xlink:href="#mefd20792d6" x="191.999636" y="86.567521" style="fill: #ff8c00; fill-opacity: 0.7; stroke: #ff8c00; stroke-opacity: 0.7; stroke-width: 2"/>
     <use xlink:href="#mefd20792d6" x="224.742545" y="106.908733" style="fill: #ff8c00; fill-opacity: 0.7; stroke: #ff8c00; stroke-opacity: 0.7; stroke-width: 2"/>
     <use xlink:href="#mefd20792d6" x="257.485455" y="128.445474" style="fill: #ff8c00; fill-opacity: 0.7; stroke: #ff8c00; stroke-opacity: 0.7; stroke-width: 2"/>
     <use xlink:href="#mefd20792d6" x="290.228364" y="146.540849" style="fill: #ff8c00; fill-opacity: 0.7; stroke: #ff8c00; stroke-opacity: 0.7; stroke-width: 2"/>
     <use xlink:href="#mefd20792d6" x="322.971273" y="159.771825" style="fill: #ff8c00; fill-opacity: 0.7; stroke: #ff8c00; stroke-opacity: 0.7; stroke-width: 2"/>
     <use xlink:href="#mefd20792d6" x="388.457091" y="174.813954" style="fill: #ff8c00; fill-opacity: 0.7; stroke: #ff8c00; stroke-opacity: 0.7; stroke-width: 2"/>
     <use xlink:href="#mefd20792d6" x="61.028" y="64.866588" style="fill: #ff8c00; fill-opacity: 0.7; stroke: #ff8c00; stroke-opacity: 0.7; stroke-width: 2"/>
    </g>
   </g>
   <g id="PolyCollection_3"/>
   <g id="PathCollection_3">
    <defs>
     <path id="m6724087b32" d="M -4.472136 4.472136 
L 4.472136 -4.472136 
M -4.472136 -4.472136 
L 4.472136 4.472136 
" style="stroke: #32cd32; stroke-opacity: 0.7; stroke-width: 2"/>
    </defs>
    <g clip-path="url(#p80f2b36cc3)">
     <use xlink:href="#m6724087b32" x="61.028" y="80.583483" style="fill: #32cd32; fill-opacity: 0.7; stroke: #32cd32; stroke-opacity: 0.7; stroke-width: 2"/>
     <use xlink:href="#m6724087b32" x="191.999636" y="110.552367" style="fill: #32cd32; fill-opacity: 0.7; stroke: #32cd32; stroke-opacity: 0.7; stroke-width: 2"/>
     <use xlink:href="#m6724087b32" x="224.742545" y="137.688834" style="fill: #32cd32; fill-opacity: 0.7; stroke: #32cd32; stroke-opacity: 0.7; stroke-width: 2"/>
     <use xlink:href="#m6724087b32" x="257.485455" y="165.401325" style="fill: #32cd32; fill-opacity: 0.7; stroke: #32cd32; stroke-opacity: 0.7; stroke-width: 2"/>
     <use xlink:href="#m6724087b32" x="290.228364" y="187.82412" style="fill: #32cd32; fill-opacity: 0.7; stroke: #32cd32; stroke-opacity: 0.7; stroke-width: 2"/>
     <use xlink:href="#m6724087b32" x="322.971273" y="203.669635" style="fill: #32cd32; fill-opacity: 0.7; stroke: #32cd32; stroke-opacity: 0.7; stroke-width: 2"/>
     <use xlink:href="#m6724087b32" x="388.457091" y="221.044188" style="fill: #32cd32; fill-opacity: 0.7; stroke: #32cd32; stroke-opacity: 0.7; stroke-width: 2"/>
     <use xlink:href="#m6724087b32" x="61.028" y="80.583483" style="fill: #32cd32; fill-opacity: 0.7; stroke: #32cd32; stroke-opacity: 0.7; stroke-width: 2"/>
    </g>
   </g>
   <g id="PolyCollection_4"/>
   <g id="PathCollection_4">
    <defs>
     <path id="m2e82e05a5f" d="M -4.472136 4.472136 
L 4.472136 -4.472136 
M -4.472136 -4.472136 
L 4.472136 4.472136 
" style="stroke: #800080; stroke-opacity: 0.7; stroke-width: 2"/>
    </defs>
    <g clip-path="url(#p80f2b36cc3)">
     <use xlink:href="#m2e82e05a5f" x="61.028" y="100.067033" style="fill: #800080; fill-opacity: 0.7; stroke: #800080; stroke-opacity: 0.7; stroke-width: 2"/>
     <use xlink:href="#m2e82e05a5f" x="191.999636" y="138.896556" style="fill: #800080; fill-opacity: 0.7; stroke: #800080; stroke-opacity: 0.7; stroke-width: 2"/>
     <use xlink:href="#m2e82e05a5f" x="224.742545" y="172.294328" style="fill: #800080; fill-opacity: 0.7; stroke: #800080; stroke-opacity: 0.7; stroke-width: 2"/>
     <use xlink:href="#m2e82e05a5f" x="257.485455" y="204.458612" style="fill: #800080; fill-opacity: 0.7; stroke: #800080; stroke-opacity: 0.7; stroke-width: 2"/>
     <use xlink:href="#m2e82e05a5f" x="290.228364" y="228.779326" style="fill: #800080; fill-opacity: 0.7; stroke: #800080; stroke-opacity: 0.7; stroke-width: 2"/>
     <use xlink:href="#m2e82e05a5f" x="322.971273" y="244.849813" style="fill: #800080; fill-opacity: 0.7; stroke: #800080; stroke-opacity: 0.7; stroke-width: 2"/>
     <use xlink:href="#m2e82e05a5f" x="388.457091" y="261.171547" style="fill: #800080; fill-opacity: 0.7; stroke: #800080; stroke-opacity: 0.7; stroke-width: 2"/>
     <use xlink:href="#m2e82e05a5f" x="61.028" y="100.067033" style="fill: #800080; fill-opacity: 0.7; stroke: #800080; stroke-opacity: 0.7; stroke-width: 2"/>
    </g>
   </g>
   <g id="PathCollection_5"/>
   <g id="matplotlib.axis_1">
    <g id="xtick_1">
     <g id="line2d_1">
      <defs>
       <path id="mbbb321db68" d="M 0 0 
L 0 5 
" style="stroke: #000000; stroke-width: 0.8"/>
      </defs>
      <g>
       <use xlink:href="#mbbb321db68" x="61.028" y="306.46" style="stroke: #000000; stroke-width: 0.8"/>
      </g>
     </g>
     <g id="text_1">
      <!-- 0.0 -->
      <g transform="translate(51.486125 324.078125) scale(0.12 -0.12)">
       <defs>
        <path id="DejaVuSans-30" d="M 2034 4250 
Q 1547 4250 1301 3770 
Q 1056 3291 1056 2328 
Q 1056 1369 1301 889 
Q 1547 409 2034 409 
Q 2525 409 2770 889 
Q 3016 1369 3016 2328 
Q 3016 3291 2770 3770 
Q 2525 4250 2034 4250 
z
M 2034 4750 
Q 2819 4750 3233 4129 
Q 3647 3509 3647 2328 
Q 3647 1150 3233 529 
Q 2819 -91 2034 -91 
Q 1250 -91 836 529 
Q 422 1150 422 2328 
Q 422 3509 836 4129 
Q 1250 4750 2034 4750 
z
" transform="scale(0.015625)"/>
        <path id="DejaVuSans-2e" d="M 684 794 
L 1344 794 
L 1344 0 
L 684 0 
L 684 794 
z
" transform="scale(0.015625)"/>
       </defs>
       <use xlink:href="#DejaVuSans-30"/>
       <use xlink:href="#DejaVuSans-2e" x="63.623047"/>
       <use xlink:href="#DejaVuSans-30" x="95.410156"/>
      </g>
     </g>
    </g>
    <g id="xtick_2">
     <g id="line2d_2">
      <g>
       <use xlink:href="#mbbb321db68" x="126.513818" y="306.46" style="stroke: #000000; stroke-width: 0.8"/>
      </g>
     </g>
     <g id="text_2">
      <!-- 0.1 -->
      <g transform="translate(116.971943 324.078125) scale(0.12 -0.12)">
       <defs>
        <path id="DejaVuSans-31" d="M 794 531 
L 1825 531 
L 1825 4091 
L 703 3866 
L 703 4441 
L 1819 4666 
L 2450 4666 
L 2450 531 
L 3481 531 
L 3481 0 
L 794 0 
L 794 531 
z
" transform="scale(0.015625)"/>
       </defs>
       <use xlink:href="#DejaVuSans-30"/>
       <use xlink:href="#DejaVuSans-2e" x="63.623047"/>
       <use xlink:href="#DejaVuSans-31" x="95.410156"/>
      </g>
     </g>
    </g>
    <g id="xtick_3">
     <g id="line2d_3">
      <g>
       <use xlink:href="#mbbb321db68" x="191.999636" y="306.46" style="stroke: #000000; stroke-width: 0.8"/>
      </g>
     </g>
     <g id="text_3">
      <!-- 0.2 -->
      <g transform="translate(182.457761 324.078125) scale(0.12 -0.12)">
       <defs>
        <path id="DejaVuSans-32" d="M 1228 531 
L 3431 531 
L 3431 0 
L 469 0 
L 469 531 
Q 828 903 1448 1529 
Q 2069 2156 2228 2338 
Q 2531 2678 2651 2914 
Q 2772 3150 2772 3378 
Q 2772 3750 2511 3984 
Q 2250 4219 1831 4219 
Q 1534 4219 1204 4116 
Q 875 4013 500 3803 
L 500 4441 
Q 881 4594 1212 4672 
Q 1544 4750 1819 4750 
Q 2544 4750 2975 4387 
Q 3406 4025 3406 3419 
Q 3406 3131 3298 2873 
Q 3191 2616 2906 2266 
Q 2828 2175 2409 1742 
Q 1991 1309 1228 531 
z
" transform="scale(0.015625)"/>
       </defs>
       <use xlink:href="#DejaVuSans-30"/>
       <use xlink:href="#DejaVuSans-2e" x="63.623047"/>
       <use xlink:href="#DejaVuSans-32" x="95.410156"/>
      </g>
     </g>
    </g>
    <g id="xtick_4">
     <g id="line2d_4">
      <g>
       <use xlink:href="#mbbb321db68" x="257.485455" y="306.46" style="stroke: #000000; stroke-width: 0.8"/>
      </g>
     </g>
     <g id="text_4">
      <!-- 0.3 -->
      <g transform="translate(247.94358 324.078125) scale(0.12 -0.12)">
       <defs>
        <path id="DejaVuSans-33" d="M 2597 2516 
Q 3050 2419 3304 2112 
Q 3559 1806 3559 1356 
Q 3559 666 3084 287 
Q 2609 -91 1734 -91 
Q 1441 -91 1130 -33 
Q 819 25 488 141 
L 488 750 
Q 750 597 1062 519 
Q 1375 441 1716 441 
Q 2309 441 2620 675 
Q 2931 909 2931 1356 
Q 2931 1769 2642 2001 
Q 2353 2234 1838 2234 
L 1294 2234 
L 1294 2753 
L 1863 2753 
Q 2328 2753 2575 2939 
Q 2822 3125 2822 3475 
Q 2822 3834 2567 4026 
Q 2313 4219 1838 4219 
Q 1578 4219 1281 4162 
Q 984 4106 628 3988 
L 628 4550 
Q 988 4650 1302 4700 
Q 1616 4750 1894 4750 
Q 2613 4750 3031 4423 
Q 3450 4097 3450 3541 
Q 3450 3153 3228 2886 
Q 3006 2619 2597 2516 
z
" transform="scale(0.015625)"/>
       </defs>
       <use xlink:href="#DejaVuSans-30"/>
       <use xlink:href="#DejaVuSans-2e" x="63.623047"/>
       <use xlink:href="#DejaVuSans-33" x="95.410156"/>
      </g>
     </g>
    </g>
    <g id="xtick_5">
     <g id="line2d_5">
      <g>
       <use xlink:href="#mbbb321db68" x="322.971273" y="306.46" style="stroke: #000000; stroke-width: 0.8"/>
      </g>
     </g>
     <g id="text_5">
      <!-- 0.4 -->
      <g transform="translate(313.429398 324.078125) scale(0.12 -0.12)">
       <defs>
        <path id="DejaVuSans-34" d="M 2419 4116 
L 825 1625 
L 2419 1625 
L 2419 4116 
z
M 2253 4666 
L 3047 4666 
L 3047 1625 
L 3713 1625 
L 3713 1100 
L 3047 1100 
L 3047 0 
L 2419 0 
L 2419 1100 
L 313 1100 
L 313 1709 
L 2253 4666 
z
" transform="scale(0.015625)"/>
       </defs>
       <use xlink:href="#DejaVuSans-30"/>
       <use xlink:href="#DejaVuSans-2e" x="63.623047"/>
       <use xlink:href="#DejaVuSans-34" x="95.410156"/>
      </g>
     </g>
    </g>
    <g id="xtick_6">
     <g id="line2d_6">
      <g>
       <use xlink:href="#mbbb321db68" x="388.457091" y="306.46" style="stroke: #000000; stroke-width: 0.8"/>
      </g>
     </g>
     <g id="text_6">
      <!-- 0.5 -->
      <g transform="translate(378.915216 324.078125) scale(0.12 -0.12)">
       <defs>
        <path id="DejaVuSans-35" d="M 691 4666 
L 3169 4666 
L 3169 4134 
L 1269 4134 
L 1269 2991 
Q 1406 3038 1543 3061 
Q 1681 3084 1819 3084 
Q 2600 3084 3056 2656 
Q 3513 2228 3513 1497 
Q 3513 744 3044 326 
Q 2575 -91 1722 -91 
Q 1428 -91 1123 -41 
Q 819 9 494 109 
L 494 744 
Q 775 591 1075 516 
Q 1375 441 1709 441 
Q 2250 441 2565 725 
Q 2881 1009 2881 1497 
Q 2881 1984 2565 2268 
Q 2250 2553 1709 2553 
Q 1456 2553 1204 2497 
Q 953 2441 691 2322 
L 691 4666 
z
" transform="scale(0.015625)"/>
       </defs>
       <use xlink:href="#DejaVuSans-30"/>
       <use xlink:href="#DejaVuSans-2e" x="63.623047"/>
       <use xlink:href="#DejaVuSans-35" x="95.410156"/>
      </g>
     </g>
    </g>
    <g id="text_7">
     <!-- [FAE]$/\mu$M -->
     <g transform="translate(205.194 342.73375) scale(0.16 -0.16)">
      <defs>
       <path id="DejaVuSans-5b" d="M 550 4863 
L 1875 4863 
L 1875 4416 
L 1125 4416 
L 1125 -397 
L 1875 -397 
L 1875 -844 
L 550 -844 
L 550 4863 
z
" transform="scale(0.015625)"/>
       <path id="DejaVuSans-46" d="M 628 4666 
L 3309 4666 
L 3309 4134 
L 1259 4134 
L 1259 2759 
L 3109 2759 
L 3109 2228 
L 1259 2228 
L 1259 0 
L 628 0 
L 628 4666 
z
" transform="scale(0.015625)"/>
       <path id="DejaVuSans-41" d="M 2188 4044 
L 1331 1722 
L 3047 1722 
L 2188 4044 
z
M 1831 4666 
L 2547 4666 
L 4325 0 
L 3669 0 
L 3244 1197 
L 1141 1197 
L 716 0 
L 50 0 
L 1831 4666 
z
" transform="scale(0.015625)"/>
       <path id="DejaVuSans-45" d="M 628 4666 
L 3578 4666 
L 3578 4134 
L 1259 4134 
L 1259 2753 
L 3481 2753 
L 3481 2222 
L 1259 2222 
L 1259 531 
L 3634 531 
L 3634 0 
L 628 0 
L 628 4666 
z
" transform="scale(0.015625)"/>
       <path id="DejaVuSans-5d" d="M 1947 4863 
L 1947 -844 
L 622 -844 
L 622 -397 
L 1369 -397 
L 1369 4416 
L 622 4416 
L 622 4863 
L 1947 4863 
z
" transform="scale(0.015625)"/>
       <path id="DejaVuSans-2f" d="M 1625 4666 
L 2156 4666 
L 531 -594 
L 0 -594 
L 1625 4666 
z
" transform="scale(0.015625)"/>
       <path id="DejaVuSans-Oblique-3bc" d="M -84 -1331 
L 856 3500 
L 1434 3500 
L 1009 1322 
Q 997 1256 987 1175 
Q 978 1094 978 1013 
Q 978 722 1161 565 
Q 1344 409 1684 409 
Q 2147 409 2431 671 
Q 2716 934 2816 1459 
L 3213 3500 
L 3788 3500 
L 3266 809 
Q 3253 750 3248 706 
Q 3244 663 3244 628 
Q 3244 531 3283 486 
Q 3322 441 3406 441 
Q 3438 441 3492 456 
Q 3547 472 3647 513 
L 3559 50 
Q 3422 -19 3297 -55 
Q 3172 -91 3053 -91 
Q 2847 -91 2730 40 
Q 2613 172 2613 403 
Q 2438 153 2195 31 
Q 1953 -91 1625 -91 
Q 1334 -91 1117 43 
Q 900 178 831 397 
L 494 -1331 
L -84 -1331 
z
" transform="scale(0.015625)"/>
       <path id="DejaVuSans-4d" d="M 628 4666 
L 1569 4666 
L 2759 1491 
L 3956 4666 
L 4897 4666 
L 4897 0 
L 4281 0 
L 4281 4097 
L 3078 897 
L 2444 897 
L 1241 4097 
L 1241 0 
L 628 0 
L 628 4666 
z
" transform="scale(0.015625)"/>
      </defs>
      <use xlink:href="#DejaVuSans-5b" transform="translate(0 0.015625)"/>
      <use xlink:href="#DejaVuSans-46" transform="translate(37.263672 0.015625)"/>
      <use xlink:href="#DejaVuSans-41" transform="translate(94.783203 0.015625)"/>
      <use xlink:href="#DejaVuSans-45" transform="translate(163.191406 0.015625)"/>
      <use xlink:href="#DejaVuSans-5d" transform="translate(226.375 0.015625)"/>
      <use xlink:href="#DejaVuSans-2f" transform="translate(265.388672 0.015625)"/>
      <use xlink:href="#DejaVuSans-Oblique-3bc" transform="translate(299.080078 0.015625)"/>
      <use xlink:href="#DejaVuSans-4d" transform="translate(362.703125 0.015625)"/>
     </g>
    </g>
   </g>
   <g id="matplotlib.axis_2">
    <g id="ytick_1">
     <g id="line2d_7">
      <defs>
       <path id="m8c855d5df9" d="M 0 0 
L -5 0 
" style="stroke: #000000; stroke-width: 0.8"/>
      </defs>
      <g>
       <use xlink:href="#m8c855d5df9" x="61.028" y="306.46" style="stroke: #000000; stroke-width: 0.8"/>
      </g>
     </g>
     <g id="text_8">
      <!-- 0.0 -->
      <g transform="translate(33.44425 311.019063) scale(0.12 -0.12)">
       <use xlink:href="#DejaVuSans-30"/>
       <use xlink:href="#DejaVuSans-2e" x="63.623047"/>
       <use xlink:href="#DejaVuSans-30" x="95.410156"/>
      </g>
     </g>
    </g>
    <g id="ytick_2">
     <g id="line2d_8">
      <g>
       <use xlink:href="#m8c855d5df9" x="61.028" y="251.12" style="stroke: #000000; stroke-width: 0.8"/>
      </g>
     </g>
     <g id="text_9">
      <!-- 0.2 -->
      <g transform="translate(33.44425 255.679062) scale(0.12 -0.12)">
       <use xlink:href="#DejaVuSans-30"/>
       <use xlink:href="#DejaVuSans-2e" x="63.623047"/>
       <use xlink:href="#DejaVuSans-32" x="95.410156"/>
      </g>
     </g>
    </g>
    <g id="ytick_3">
     <g id="line2d_9">
      <g>
       <use xlink:href="#m8c855d5df9" x="61.028" y="195.78" style="stroke: #000000; stroke-width: 0.8"/>
      </g>
     </g>
     <g id="text_10">
      <!-- 0.4 -->
      <g transform="translate(33.44425 200.339062) scale(0.12 -0.12)">
       <use xlink:href="#DejaVuSans-30"/>
       <use xlink:href="#DejaVuSans-2e" x="63.623047"/>
       <use xlink:href="#DejaVuSans-34" x="95.410156"/>
      </g>
     </g>
    </g>
    <g id="ytick_4">
     <g id="line2d_10">
      <g>
       <use xlink:href="#m8c855d5df9" x="61.028" y="140.44" style="stroke: #000000; stroke-width: 0.8"/>
      </g>
     </g>
     <g id="text_11">
      <!-- 0.6 -->
      <g transform="translate(33.44425 144.999062) scale(0.12 -0.12)">
       <defs>
        <path id="DejaVuSans-36" d="M 2113 2584 
Q 1688 2584 1439 2293 
Q 1191 2003 1191 1497 
Q 1191 994 1439 701 
Q 1688 409 2113 409 
Q 2538 409 2786 701 
Q 3034 994 3034 1497 
Q 3034 2003 2786 2293 
Q 2538 2584 2113 2584 
z
M 3366 4563 
L 3366 3988 
Q 3128 4100 2886 4159 
Q 2644 4219 2406 4219 
Q 1781 4219 1451 3797 
Q 1122 3375 1075 2522 
Q 1259 2794 1537 2939 
Q 1816 3084 2150 3084 
Q 2853 3084 3261 2657 
Q 3669 2231 3669 1497 
Q 3669 778 3244 343 
Q 2819 -91 2113 -91 
Q 1303 -91 875 529 
Q 447 1150 447 2328 
Q 447 3434 972 4092 
Q 1497 4750 2381 4750 
Q 2619 4750 2861 4703 
Q 3103 4656 3366 4563 
z
" transform="scale(0.015625)"/>
       </defs>
       <use xlink:href="#DejaVuSans-30"/>
       <use xlink:href="#DejaVuSans-2e" x="63.623047"/>
       <use xlink:href="#DejaVuSans-36" x="95.410156"/>
      </g>
     </g>
    </g>
    <g id="ytick_5">
     <g id="line2d_11">
      <g>
       <use xlink:href="#m8c855d5df9" x="61.028" y="85.1" style="stroke: #000000; stroke-width: 0.8"/>
      </g>
     </g>
     <g id="text_12">
      <!-- 0.8 -->
      <g transform="translate(33.44425 89.659062) scale(0.12 -0.12)">
       <defs>
        <path id="DejaVuSans-38" d="M 2034 2216 
Q 1584 2216 1326 1975 
Q 1069 1734 1069 1313 
Q 1069 891 1326 650 
Q 1584 409 2034 409 
Q 2484 409 2743 651 
Q 3003 894 3003 1313 
Q 3003 1734 2745 1975 
Q 2488 2216 2034 2216 
z
M 1403 2484 
Q 997 2584 770 2862 
Q 544 3141 544 3541 
Q 544 4100 942 4425 
Q 1341 4750 2034 4750 
Q 2731 4750 3128 4425 
Q 3525 4100 3525 3541 
Q 3525 3141 3298 2862 
Q 3072 2584 2669 2484 
Q 3125 2378 3379 2068 
Q 3634 1759 3634 1313 
Q 3634 634 3220 271 
Q 2806 -91 2034 -91 
Q 1263 -91 848 271 
Q 434 634 434 1313 
Q 434 1759 690 2068 
Q 947 2378 1403 2484 
z
M 1172 3481 
Q 1172 3119 1398 2916 
Q 1625 2713 2034 2713 
Q 2441 2713 2670 2916 
Q 2900 3119 2900 3481 
Q 2900 3844 2670 4047 
Q 2441 4250 2034 4250 
Q 1625 4250 1398 4047 
Q 1172 3844 1172 3481 
z
" transform="scale(0.015625)"/>
       </defs>
       <use xlink:href="#DejaVuSans-30"/>
       <use xlink:href="#DejaVuSans-2e" x="63.623047"/>
       <use xlink:href="#DejaVuSans-38" x="95.410156"/>
      </g>
     </g>
    </g>
    <g id="ytick_6">
     <g id="line2d_12">
      <g>
       <use xlink:href="#m8c855d5df9" x="61.028" y="29.76" style="stroke: #000000; stroke-width: 0.8"/>
      </g>
     </g>
     <g id="text_13">
      <!-- 1.0 -->
      <g transform="translate(33.44425 34.319062) scale(0.12 -0.12)">
       <use xlink:href="#DejaVuSans-31"/>
       <use xlink:href="#DejaVuSans-2e" x="63.623047"/>
       <use xlink:href="#DejaVuSans-30" x="95.410156"/>
      </g>
     </g>
    </g>
    <g id="text_14">
     <!-- [ATP]/[ATP$_0$] -->
     <g transform="translate(26.11675 217.55) rotate(-90) scale(0.16 -0.16)">
      <defs>
       <path id="DejaVuSans-54" d="M -19 4666 
L 3928 4666 
L 3928 4134 
L 2272 4134 
L 2272 0 
L 1638 0 
L 1638 4134 
L -19 4134 
L -19 4666 
z
" transform="scale(0.015625)"/>
       <path id="DejaVuSans-50" d="M 1259 4147 
L 1259 2394 
L 2053 2394 
Q 2494 2394 2734 2622 
Q 2975 2850 2975 3272 
Q 2975 3691 2734 3919 
Q 2494 4147 2053 4147 
L 1259 4147 
z
M 628 4666 
L 2053 4666 
Q 2838 4666 3239 4311 
Q 3641 3956 3641 3272 
Q 3641 2581 3239 2228 
Q 2838 1875 2053 1875 
L 1259 1875 
L 1259 0 
L 628 0 
L 628 4666 
z
" transform="scale(0.015625)"/>
      </defs>
      <use xlink:href="#DejaVuSans-5b" transform="translate(0 0.015625)"/>
      <use xlink:href="#DejaVuSans-41" transform="translate(39.013672 0.015625)"/>
      <use xlink:href="#DejaVuSans-54" transform="translate(107.421875 0.015625)"/>
      <use xlink:href="#DejaVuSans-50" transform="translate(168.505859 0.015625)"/>
      <use xlink:href="#DejaVuSans-5d" transform="translate(228.808594 0.015625)"/>
      <use xlink:href="#DejaVuSans-2f" transform="translate(267.822266 0.015625)"/>
      <use xlink:href="#DejaVuSans-5b" transform="translate(301.513672 0.015625)"/>
      <use xlink:href="#DejaVuSans-41" transform="translate(340.527344 0.015625)"/>
      <use xlink:href="#DejaVuSans-54" transform="translate(408.935547 0.015625)"/>
      <use xlink:href="#DejaVuSans-50" transform="translate(470.019531 0.015625)"/>
      <use xlink:href="#DejaVuSans-30" transform="translate(531.279297 -16.390625) scale(0.7)"/>
      <use xlink:href="#DejaVuSans-5d" transform="translate(578.549805 0.015625)"/>
     </g>
    </g>
   </g>
   <g id="line2d_13">
    <path d="M 61.028 82.994107 
L 93.770909 76.530702 
L 126.513818 92.85148 
L 159.256727 106.563446 
L 191.999636 130.901191 
L 224.742545 179.568306 
L 257.485455 181.266337 
L 290.228364 210.821706 
" clip-path="url(#p80f2b36cc3)" style="fill: none; stroke: #4169e1; stroke-width: 1.5; stroke-linecap: square"/>
    <defs>
     <path id="md5ad0acd9a" d="M 0 3 
C 0.795609 3 1.55874 2.683901 2.12132 2.12132 
C 2.683901 1.55874 3 0.795609 3 0 
C 3 -0.795609 2.683901 -1.55874 2.12132 -2.12132 
C 1.55874 -2.683901 0.795609 -3 0 -3 
C -0.795609 -3 -1.55874 -2.683901 -2.12132 -2.12132 
C -2.683901 -1.55874 -3 -0.795609 -3 0 
C -3 0.795609 -2.683901 1.55874 -2.12132 2.12132 
C -1.55874 2.683901 -0.795609 3 0 3 
z
" style="stroke: #ffffff; stroke-width: 0.75"/>
    </defs>
    <g clip-path="url(#p80f2b36cc3)">
     <use xlink:href="#md5ad0acd9a" x="61.028" y="82.994107" style="fill: #4169e1; stroke: #ffffff; stroke-width: 0.75"/>
     <use xlink:href="#md5ad0acd9a" x="93.770909" y="76.530702" style="fill: #4169e1; stroke: #ffffff; stroke-width: 0.75"/>
     <use xlink:href="#md5ad0acd9a" x="126.513818" y="92.85148" style="fill: #4169e1; stroke: #ffffff; stroke-width: 0.75"/>
     <use xlink:href="#md5ad0acd9a" x="159.256727" y="106.563446" style="fill: #4169e1; stroke: #ffffff; stroke-width: 0.75"/>
     <use xlink:href="#md5ad0acd9a" x="191.999636" y="130.901191" style="fill: #4169e1; stroke: #ffffff; stroke-width: 0.75"/>
     <use xlink:href="#md5ad0acd9a" x="224.742545" y="179.568306" style="fill: #4169e1; stroke: #ffffff; stroke-width: 0.75"/>
     <use xlink:href="#md5ad0acd9a" x="257.485455" y="181.266337" style="fill: #4169e1; stroke: #ffffff; stroke-width: 0.75"/>
     <use xlink:href="#md5ad0acd9a" x="290.228364" y="210.821706" style="fill: #4169e1; stroke: #ffffff; stroke-width: 0.75"/>
    </g>
   </g>
   <g id="line2d_14">
    <path d="M 61.028 68.647233 
L 191.999636 86.790104 
L 224.742545 110.989663 
L 257.485455 135.967939 
L 290.228364 152.763506 
L 322.971273 175.862973 
L 388.457091 192.361885 
" clip-path="url(#p80f2b36cc3)" style="fill: none; stroke: #ff8c00; stroke-width: 1.5; stroke-linecap: square"/>
    <defs>
     <path id="m8736e3c9d3" d="M 0 3 
C 0.795609 3 1.55874 2.683901 2.12132 2.12132 
C 2.683901 1.55874 3 0.795609 3 0 
C 3 -0.795609 2.683901 -1.55874 2.12132 -2.12132 
C 1.55874 -2.683901 0.795609 -3 0 -3 
C -0.795609 -3 -1.55874 -2.683901 -2.12132 -2.12132 
C -2.683901 -1.55874 -3 -0.795609 -3 0 
C -3 0.795609 -2.683901 1.55874 -2.12132 2.12132 
C -1.55874 2.683901 -0.795609 3 0 3 
z
" style="stroke: #ffffff; stroke-width: 0.75"/>
    </defs>
    <g clip-path="url(#p80f2b36cc3)">
     <use xlink:href="#m8736e3c9d3" x="61.028" y="68.647233" style="fill: #ff8c00; stroke: #ffffff; stroke-width: 0.75"/>
     <use xlink:href="#m8736e3c9d3" x="191.999636" y="86.790104" style="fill: #ff8c00; stroke: #ffffff; stroke-width: 0.75"/>
     <use xlink:href="#m8736e3c9d3" x="224.742545" y="110.989663" style="fill: #ff8c00; stroke: #ffffff; stroke-width: 0.75"/>
     <use xlink:href="#m8736e3c9d3" x="257.485455" y="135.967939" style="fill: #ff8c00; stroke: #ffffff; stroke-width: 0.75"/>
     <use xlink:href="#m8736e3c9d3" x="290.228364" y="152.763506" style="fill: #ff8c00; stroke: #ffffff; stroke-width: 0.75"/>
     <use xlink:href="#m8736e3c9d3" x="322.971273" y="175.862973" style="fill: #ff8c00; stroke: #ffffff; stroke-width: 0.75"/>
     <use xlink:href="#m8736e3c9d3" x="388.457091" y="192.361885" style="fill: #ff8c00; stroke: #ffffff; stroke-width: 0.75"/>
    </g>
   </g>
   <g id="line2d_15">
    <path d="M 61.028 77.632995 
L 191.999636 93.850458 
L 224.742545 126.566342 
L 257.485455 162.575667 
L 290.228364 188.164608 
L 322.971273 219.007445 
L 388.457091 229.786829 
" clip-path="url(#p80f2b36cc3)" style="fill: none; stroke: #32cd32; stroke-width: 1.5; stroke-linecap: square"/>
    <defs>
     <path id="ma21620a3c1" d="M 0 3 
C 0.795609 3 1.55874 2.683901 2.12132 2.12132 
C 2.683901 1.55874 3 0.795609 3 0 
C 3 -0.795609 2.683901 -1.55874 2.12132 -2.12132 
C 1.55874 -2.683901 0.795609 -3 0 -3 
C -0.795609 -3 -1.55874 -2.683901 -2.12132 -2.12132 
C -2.683901 -1.55874 -3 -0.795609 -3 0 
C -3 0.795609 -2.683901 1.55874 -2.12132 2.12132 
C -1.55874 2.683901 -0.795609 3 0 3 
z
" style="stroke: #ffffff; stroke-width: 0.75"/>
    </defs>
    <g clip-path="url(#p80f2b36cc3)">
     <use xlink:href="#ma21620a3c1" x="61.028" y="77.632995" style="fill: #32cd32; stroke: #ffffff; stroke-width: 0.75"/>
     <use xlink:href="#ma21620a3c1" x="191.999636" y="93.850458" style="fill: #32cd32; stroke: #ffffff; stroke-width: 0.75"/>
     <use xlink:href="#ma21620a3c1" x="224.742545" y="126.566342" style="fill: #32cd32; stroke: #ffffff; stroke-width: 0.75"/>
     <use xlink:href="#ma21620a3c1" x="257.485455" y="162.575667" style="fill: #32cd32; stroke: #ffffff; stroke-width: 0.75"/>
     <use xlink:href="#ma21620a3c1" x="290.228364" y="188.164608" style="fill: #32cd32; stroke: #ffffff; stroke-width: 0.75"/>
     <use xlink:href="#ma21620a3c1" x="322.971273" y="219.007445" style="fill: #32cd32; stroke: #ffffff; stroke-width: 0.75"/>
     <use xlink:href="#ma21620a3c1" x="388.457091" y="229.786829" style="fill: #32cd32; stroke: #ffffff; stroke-width: 0.75"/>
    </g>
   </g>
   <g id="line2d_16">
    <path d="M 61.028 75.422904 
L 191.999636 123.792665 
L 224.742545 156.975513 
L 257.485455 194.573984 
L 290.228364 225.34188 
L 322.971273 253.752084 
L 388.457091 267.261666 
" clip-path="url(#p80f2b36cc3)" style="fill: none; stroke: #800080; stroke-width: 1.5; stroke-linecap: square"/>
    <defs>
     <path id="mc92a367c43" d="M 0 3 
C 0.795609 3 1.55874 2.683901 2.12132 2.12132 
C 2.683901 1.55874 3 0.795609 3 0 
C 3 -0.795609 2.683901 -1.55874 2.12132 -2.12132 
C 1.55874 -2.683901 0.795609 -3 0 -3 
C -0.795609 -3 -1.55874 -2.683901 -2.12132 -2.12132 
C -2.683901 -1.55874 -3 -0.795609 -3 0 
C -3 0.795609 -2.683901 1.55874 -2.12132 2.12132 
C -1.55874 2.683901 -0.795609 3 0 3 
z
" style="stroke: #ffffff; stroke-width: 0.75"/>
    </defs>
    <g clip-path="url(#p80f2b36cc3)">
     <use xlink:href="#mc92a367c43" x="61.028" y="75.422904" style="fill: #800080; stroke: #ffffff; stroke-width: 0.75"/>
     <use xlink:href="#mc92a367c43" x="191.999636" y="123.792665" style="fill: #800080; stroke: #ffffff; stroke-width: 0.75"/>
     <use xlink:href="#mc92a367c43" x="224.742545" y="156.975513" style="fill: #800080; stroke: #ffffff; stroke-width: 0.75"/>
     <use xlink:href="#mc92a367c43" x="257.485455" y="194.573984" style="fill: #800080; stroke: #ffffff; stroke-width: 0.75"/>
     <use xlink:href="#mc92a367c43" x="290.228364" y="225.34188" style="fill: #800080; stroke: #ffffff; stroke-width: 0.75"/>
     <use xlink:href="#mc92a367c43" x="322.971273" y="253.752084" style="fill: #800080; stroke: #ffffff; stroke-width: 0.75"/>
     <use xlink:href="#mc92a367c43" x="388.457091" y="267.261666" style="fill: #800080; stroke: #ffffff; stroke-width: 0.75"/>
    </g>
   </g>
   <g id="line2d_17">
    <path d="M 61.028 29.76 
L 93.475928 29.871102 
L 105.373502 30.147202 
L 114.386815 30.570399 
L 121.957998 31.13502 
L 128.808116 31.86014 
L 134.937169 32.719856 
L 140.70569 33.742888 
L 146.113678 34.917071 
L 151.521666 36.324375 
L 156.569121 37.86944 
L 161.616577 39.657452 
L 166.303499 41.550847 
L 170.990422 43.682102 
L 175.677345 46.062772 
L 180.364268 48.702606 
L 185.051191 51.60924 
L 189.738114 54.787908 
L 194.425037 58.241195 
L 199.11196 61.968827 
L 203.798883 65.967527 
L 208.846338 70.569599 
L 213.893794 75.466662 
L 219.301782 81.022604 
L 225.070302 87.274152 
L 231.199355 94.245227 
L 238.049473 102.378372 
L 245.981189 112.150898 
L 256.436633 125.413938 
L 282.394975 158.503318 
L 291.047756 169.097423 
L 298.979471 178.458633 
L 306.190122 186.626549 
L 313.04024 194.052943 
L 319.529826 200.770848 
L 326.019411 207.169032 
L 332.508997 213.242405 
L 338.63805 218.679609 
L 344.767103 223.82932 
L 350.896156 228.696777 
L 357.025209 233.289241 
L 363.154262 237.615551 
L 369.643848 241.917395 
L 376.133433 245.944982 
L 382.623019 249.711864 
L 389.112605 253.231924 
L 395.962723 256.695189 
L 402.812841 259.915232 
L 410.023491 263.059414 
L 417.594675 266.109185 
L 421.2 267.476506 
L 421.2 267.476506 
" clip-path="url(#p80f2b36cc3)" style="fill: none; stroke-dasharray: 5.55,2.4; stroke-dashoffset: 0; stroke: #808080; stroke-width: 1.5"/>
   </g>
   <g id="patch_3">
    <path d="M 61.028 306.46 
L 61.028 29.76 
" style="fill: none; stroke: #000000; stroke-width: 0.8; stroke-linejoin: miter; stroke-linecap: square"/>
   </g>
   <g id="patch_4">
    <path d="M 61.028 306.46 
L 421.2 306.46 
" style="fill: none; stroke: #000000; stroke-width: 0.8; stroke-linejoin: miter; stroke-linecap: square"/>
   </g>
   <g id="text_15">
    <!-- FAE kinetics -->
    <g transform="translate(193.40025 23.76) scale(0.16 -0.16)">
     <defs>
      <path id="DejaVuSans-20" transform="scale(0.015625)"/>
      <path id="DejaVuSans-6b" d="M 581 4863 
L 1159 4863 
L 1159 1991 
L 2875 3500 
L 3609 3500 
L 1753 1863 
L 3688 0 
L 2938 0 
L 1159 1709 
L 1159 0 
L 581 0 
L 581 4863 
z
" transform="scale(0.015625)"/>
      <path id="DejaVuSans-69" d="M 603 3500 
L 1178 3500 
L 1178 0 
L 603 0 
L 603 3500 
z
M 603 4863 
L 1178 4863 
L 1178 4134 
L 603 4134 
L 603 4863 
z
" transform="scale(0.015625)"/>
      <path id="DejaVuSans-6e" d="M 3513 2113 
L 3513 0 
L 2938 0 
L 2938 2094 
Q 2938 2591 2744 2837 
Q 2550 3084 2163 3084 
Q 1697 3084 1428 2787 
Q 1159 2491 1159 1978 
L 1159 0 
L 581 0 
L 581 3500 
L 1159 3500 
L 1159 2956 
Q 1366 3272 1645 3428 
Q 1925 3584 2291 3584 
Q 2894 3584 3203 3211 
Q 3513 2838 3513 2113 
z
" transform="scale(0.015625)"/>
      <path id="DejaVuSans-65" d="M 3597 1894 
L 3597 1613 
L 953 1613 
Q 991 1019 1311 708 
Q 1631 397 2203 397 
Q 2534 397 2845 478 
Q 3156 559 3463 722 
L 3463 178 
Q 3153 47 2828 -22 
Q 2503 -91 2169 -91 
Q 1331 -91 842 396 
Q 353 884 353 1716 
Q 353 2575 817 3079 
Q 1281 3584 2069 3584 
Q 2775 3584 3186 3129 
Q 3597 2675 3597 1894 
z
M 3022 2063 
Q 3016 2534 2758 2815 
Q 2500 3097 2075 3097 
Q 1594 3097 1305 2825 
Q 1016 2553 972 2059 
L 3022 2063 
z
" transform="scale(0.015625)"/>
      <path id="DejaVuSans-74" d="M 1172 4494 
L 1172 3500 
L 2356 3500 
L 2356 3053 
L 1172 3053 
L 1172 1153 
Q 1172 725 1289 603 
Q 1406 481 1766 481 
L 2356 481 
L 2356 0 
L 1766 0 
Q 1100 0 847 248 
Q 594 497 594 1153 
L 594 3053 
L 172 3053 
L 172 3500 
L 594 3500 
L 594 4494 
L 1172 4494 
z
" transform="scale(0.015625)"/>
      <path id="DejaVuSans-63" d="M 3122 3366 
L 3122 2828 
Q 2878 2963 2633 3030 
Q 2388 3097 2138 3097 
Q 1578 3097 1268 2742 
Q 959 2388 959 1747 
Q 959 1106 1268 751 
Q 1578 397 2138 397 
Q 2388 397 2633 464 
Q 2878 531 3122 666 
L 3122 134 
Q 2881 22 2623 -34 
Q 2366 -91 2075 -91 
Q 1284 -91 818 406 
Q 353 903 353 1747 
Q 353 2603 823 3093 
Q 1294 3584 2113 3584 
Q 2378 3584 2631 3529 
Q 2884 3475 3122 3366 
z
" transform="scale(0.015625)"/>
      <path id="DejaVuSans-73" d="M 2834 3397 
L 2834 2853 
Q 2591 2978 2328 3040 
Q 2066 3103 1784 3103 
Q 1356 3103 1142 2972 
Q 928 2841 928 2578 
Q 928 2378 1081 2264 
Q 1234 2150 1697 2047 
L 1894 2003 
Q 2506 1872 2764 1633 
Q 3022 1394 3022 966 
Q 3022 478 2636 193 
Q 2250 -91 1575 -91 
Q 1294 -91 989 -36 
Q 684 19 347 128 
L 347 722 
Q 666 556 975 473 
Q 1284 391 1588 391 
Q 1994 391 2212 530 
Q 2431 669 2431 922 
Q 2431 1156 2273 1281 
Q 2116 1406 1581 1522 
L 1381 1569 
Q 847 1681 609 1914 
Q 372 2147 372 2553 
Q 372 3047 722 3315 
Q 1072 3584 1716 3584 
Q 2034 3584 2315 3537 
Q 2597 3491 2834 3397 
z
" transform="scale(0.015625)"/>
     </defs>
     <use xlink:href="#DejaVuSans-46"/>
     <use xlink:href="#DejaVuSans-41" x="48.394531"/>
     <use xlink:href="#DejaVuSans-45" x="116.802734"/>
     <use xlink:href="#DejaVuSans-20" x="179.986328"/>
     <use xlink:href="#DejaVuSans-6b" x="211.773438"/>
     <use xlink:href="#DejaVuSans-69" x="269.683594"/>
     <use xlink:href="#DejaVuSans-6e" x="297.466797"/>
     <use xlink:href="#DejaVuSans-65" x="360.845703"/>
     <use xlink:href="#DejaVuSans-74" x="422.369141"/>
     <use xlink:href="#DejaVuSans-69" x="461.578125"/>
     <use xlink:href="#DejaVuSans-63" x="489.361328"/>
     <use xlink:href="#DejaVuSans-73" x="544.341797"/>
    </g>
   </g>
   <g id="legend_1">
    <g id="patch_5">
     <path d="M 303.544688 116.221875 
L 414.9 116.221875 
Q 416.7 116.221875 416.7 114.421875 
L 416.7 36.06 
Q 416.7 34.26 414.9 34.26 
L 303.544688 34.26 
Q 301.744688 34.26 301.744688 36.06 
L 301.744688 114.421875 
Q 301.744688 116.221875 303.544688 116.221875 
z
" style="fill: #ffffff; opacity: 0.8; stroke: #cccccc; stroke-linejoin: miter"/>
    </g>
    <g id="line2d_18">
     <path d="M 305.344688 41.548594 
L 314.344688 41.548594 
L 323.344688 41.548594 
" style="fill: none; stroke: #4169e1; stroke-width: 1.5; stroke-linecap: square"/>
     <g>
      <use xlink:href="#md5ad0acd9a" x="314.344688" y="41.548594" style="fill: #4169e1; stroke: #ffffff; stroke-width: 0.75"/>
     </g>
    </g>
    <g id="text_16">
     <!-- FAEmain, T=88.0 -->
     <g transform="translate(330.544688 44.698594) scale(0.09 -0.09)">
      <defs>
       <path id="DejaVuSans-6d" d="M 3328 2828 
Q 3544 3216 3844 3400 
Q 4144 3584 4550 3584 
Q 5097 3584 5394 3201 
Q 5691 2819 5691 2113 
L 5691 0 
L 5113 0 
L 5113 2094 
Q 5113 2597 4934 2840 
Q 4756 3084 4391 3084 
Q 3944 3084 3684 2787 
Q 3425 2491 3425 1978 
L 3425 0 
L 2847 0 
L 2847 2094 
Q 2847 2600 2669 2842 
Q 2491 3084 2119 3084 
Q 1678 3084 1418 2786 
Q 1159 2488 1159 1978 
L 1159 0 
L 581 0 
L 581 3500 
L 1159 3500 
L 1159 2956 
Q 1356 3278 1631 3431 
Q 1906 3584 2284 3584 
Q 2666 3584 2933 3390 
Q 3200 3197 3328 2828 
z
" transform="scale(0.015625)"/>
       <path id="DejaVuSans-61" d="M 2194 1759 
Q 1497 1759 1228 1600 
Q 959 1441 959 1056 
Q 959 750 1161 570 
Q 1363 391 1709 391 
Q 2188 391 2477 730 
Q 2766 1069 2766 1631 
L 2766 1759 
L 2194 1759 
z
M 3341 1997 
L 3341 0 
L 2766 0 
L 2766 531 
Q 2569 213 2275 61 
Q 1981 -91 1556 -91 
Q 1019 -91 701 211 
Q 384 513 384 1019 
Q 384 1609 779 1909 
Q 1175 2209 1959 2209 
L 2766 2209 
L 2766 2266 
Q 2766 2663 2505 2880 
Q 2244 3097 1772 3097 
Q 1472 3097 1187 3025 
Q 903 2953 641 2809 
L 641 3341 
Q 956 3463 1253 3523 
Q 1550 3584 1831 3584 
Q 2591 3584 2966 3190 
Q 3341 2797 3341 1997 
z
" transform="scale(0.015625)"/>
       <path id="DejaVuSans-2c" d="M 750 794 
L 1409 794 
L 1409 256 
L 897 -744 
L 494 -744 
L 750 256 
L 750 794 
z
" transform="scale(0.015625)"/>
       <path id="DejaVuSans-3d" d="M 678 2906 
L 4684 2906 
L 4684 2381 
L 678 2381 
L 678 2906 
z
M 678 1631 
L 4684 1631 
L 4684 1100 
L 678 1100 
L 678 1631 
z
" transform="scale(0.015625)"/>
      </defs>
      <use xlink:href="#DejaVuSans-46"/>
      <use xlink:href="#DejaVuSans-41" x="48.394531"/>
      <use xlink:href="#DejaVuSans-45" x="116.802734"/>
      <use xlink:href="#DejaVuSans-6d" x="179.986328"/>
      <use xlink:href="#DejaVuSans-61" x="277.398438"/>
      <use xlink:href="#DejaVuSans-69" x="338.677734"/>
      <use xlink:href="#DejaVuSans-6e" x="366.460938"/>
      <use xlink:href="#DejaVuSans-2c" x="429.839844"/>
      <use xlink:href="#DejaVuSans-20" x="461.626953"/>
      <use xlink:href="#DejaVuSans-54" x="493.414062"/>
      <use xlink:href="#DejaVuSans-3d" x="554.498047"/>
      <use xlink:href="#DejaVuSans-38" x="638.287109"/>
      <use xlink:href="#DejaVuSans-38" x="701.910156"/>
      <use xlink:href="#DejaVuSans-2e" x="765.533203"/>
      <use xlink:href="#DejaVuSans-30" x="797.320312"/>
     </g>
    </g>
    <g id="line2d_19">
     <path d="M 305.344688 54.758906 
L 314.344688 54.758906 
L 323.344688 54.758906 
" style="fill: none; stroke: #ff8c00; stroke-width: 1.5; stroke-linecap: square"/>
     <g>
      <use xlink:href="#m8736e3c9d3" x="314.344688" y="54.758906" style="fill: #ff8c00; stroke: #ffffff; stroke-width: 0.75"/>
     </g>
    </g>
    <g id="text_17">
     <!-- FAEsup1, T=61.0 -->
     <g transform="translate(330.544688 57.908906) scale(0.09 -0.09)">
      <defs>
       <path id="DejaVuSans-75" d="M 544 1381 
L 544 3500 
L 1119 3500 
L 1119 1403 
Q 1119 906 1312 657 
Q 1506 409 1894 409 
Q 2359 409 2629 706 
Q 2900 1003 2900 1516 
L 2900 3500 
L 3475 3500 
L 3475 0 
L 2900 0 
L 2900 538 
Q 2691 219 2414 64 
Q 2138 -91 1772 -91 
Q 1169 -91 856 284 
Q 544 659 544 1381 
z
M 1991 3584 
L 1991 3584 
z
" transform="scale(0.015625)"/>
       <path id="DejaVuSans-70" d="M 1159 525 
L 1159 -1331 
L 581 -1331 
L 581 3500 
L 1159 3500 
L 1159 2969 
Q 1341 3281 1617 3432 
Q 1894 3584 2278 3584 
Q 2916 3584 3314 3078 
Q 3713 2572 3713 1747 
Q 3713 922 3314 415 
Q 2916 -91 2278 -91 
Q 1894 -91 1617 61 
Q 1341 213 1159 525 
z
M 3116 1747 
Q 3116 2381 2855 2742 
Q 2594 3103 2138 3103 
Q 1681 3103 1420 2742 
Q 1159 2381 1159 1747 
Q 1159 1113 1420 752 
Q 1681 391 2138 391 
Q 2594 391 2855 752 
Q 3116 1113 3116 1747 
z
" transform="scale(0.015625)"/>
      </defs>
      <use xlink:href="#DejaVuSans-46"/>
      <use xlink:href="#DejaVuSans-41" x="48.394531"/>
      <use xlink:href="#DejaVuSans-45" x="116.802734"/>
      <use xlink:href="#DejaVuSans-73" x="179.986328"/>
      <use xlink:href="#DejaVuSans-75" x="232.085938"/>
      <use xlink:href="#DejaVuSans-70" x="295.464844"/>
      <use xlink:href="#DejaVuSans-31" x="358.941406"/>
      <use xlink:href="#DejaVuSans-2c" x="422.564453"/>
      <use xlink:href="#DejaVuSans-20" x="454.351562"/>
      <use xlink:href="#DejaVuSans-54" x="486.138672"/>
      <use xlink:href="#DejaVuSans-3d" x="547.222656"/>
      <use xlink:href="#DejaVuSans-36" x="631.011719"/>
      <use xlink:href="#DejaVuSans-31" x="694.634766"/>
      <use xlink:href="#DejaVuSans-2e" x="758.257812"/>
      <use xlink:href="#DejaVuSans-30" x="790.044922"/>
     </g>
    </g>
    <g id="line2d_20">
     <path d="M 305.344688 67.969219 
L 314.344688 67.969219 
L 323.344688 67.969219 
" style="fill: none; stroke: #32cd32; stroke-width: 1.5; stroke-linecap: square"/>
     <g>
      <use xlink:href="#ma21620a3c1" x="314.344688" y="67.969219" style="fill: #32cd32; stroke: #ffffff; stroke-width: 0.75"/>
     </g>
    </g>
    <g id="text_18">
     <!-- FAEsup2, T=91.0 -->
     <g transform="translate(330.544688 71.119219) scale(0.09 -0.09)">
      <defs>
       <path id="DejaVuSans-39" d="M 703 97 
L 703 672 
Q 941 559 1184 500 
Q 1428 441 1663 441 
Q 2288 441 2617 861 
Q 2947 1281 2994 2138 
Q 2813 1869 2534 1725 
Q 2256 1581 1919 1581 
Q 1219 1581 811 2004 
Q 403 2428 403 3163 
Q 403 3881 828 4315 
Q 1253 4750 1959 4750 
Q 2769 4750 3195 4129 
Q 3622 3509 3622 2328 
Q 3622 1225 3098 567 
Q 2575 -91 1691 -91 
Q 1453 -91 1209 -44 
Q 966 3 703 97 
z
M 1959 2075 
Q 2384 2075 2632 2365 
Q 2881 2656 2881 3163 
Q 2881 3666 2632 3958 
Q 2384 4250 1959 4250 
Q 1534 4250 1286 3958 
Q 1038 3666 1038 3163 
Q 1038 2656 1286 2365 
Q 1534 2075 1959 2075 
z
" transform="scale(0.015625)"/>
      </defs>
      <use xlink:href="#DejaVuSans-46"/>
      <use xlink:href="#DejaVuSans-41" x="48.394531"/>
      <use xlink:href="#DejaVuSans-45" x="116.802734"/>
      <use xlink:href="#DejaVuSans-73" x="179.986328"/>
      <use xlink:href="#DejaVuSans-75" x="232.085938"/>
      <use xlink:href="#DejaVuSans-70" x="295.464844"/>
      <use xlink:href="#DejaVuSans-32" x="358.941406"/>
      <use xlink:href="#DejaVuSans-2c" x="422.564453"/>
      <use xlink:href="#DejaVuSans-20" x="454.351562"/>
      <use xlink:href="#DejaVuSans-54" x="486.138672"/>
      <use xlink:href="#DejaVuSans-3d" x="547.222656"/>
      <use xlink:href="#DejaVuSans-39" x="631.011719"/>
      <use xlink:href="#DejaVuSans-31" x="694.634766"/>
      <use xlink:href="#DejaVuSans-2e" x="758.257812"/>
      <use xlink:href="#DejaVuSans-30" x="790.044922"/>
     </g>
    </g>
    <g id="line2d_21">
     <path d="M 305.344688 81.179531 
L 314.344688 81.179531 
L 323.344688 81.179531 
" style="fill: none; stroke: #800080; stroke-width: 1.5; stroke-linecap: square"/>
     <g>
      <use xlink:href="#mc92a367c43" x="314.344688" y="81.179531" style="fill: #800080; stroke: #ffffff; stroke-width: 0.75"/>
     </g>
    </g>
    <g id="text_19">
     <!-- FAEsup3, T=131.0 -->
     <g transform="translate(330.544688 84.329531) scale(0.09 -0.09)">
      <use xlink:href="#DejaVuSans-46"/>
      <use xlink:href="#DejaVuSans-41" x="48.394531"/>
      <use xlink:href="#DejaVuSans-45" x="116.802734"/>
      <use xlink:href="#DejaVuSans-73" x="179.986328"/>
      <use xlink:href="#DejaVuSans-75" x="232.085938"/>
      <use xlink:href="#DejaVuSans-70" x="295.464844"/>
      <use xlink:href="#DejaVuSans-33" x="358.941406"/>
      <use xlink:href="#DejaVuSans-2c" x="422.564453"/>
      <use xlink:href="#DejaVuSans-20" x="454.351562"/>
      <use xlink:href="#DejaVuSans-54" x="486.138672"/>
      <use xlink:href="#DejaVuSans-3d" x="547.222656"/>
      <use xlink:href="#DejaVuSans-31" x="631.011719"/>
      <use xlink:href="#DejaVuSans-33" x="694.634766"/>
      <use xlink:href="#DejaVuSans-31" x="758.257812"/>
      <use xlink:href="#DejaVuSans-2e" x="821.880859"/>
      <use xlink:href="#DejaVuSans-30" x="853.667969"/>
     </g>
    </g>
    <g id="line2d_22">
     <path d="M 305.344688 94.389844 
L 314.344688 94.389844 
L 323.344688 94.389844 
" style="fill: none; stroke-dasharray: 5.55,2.4; stroke-dashoffset: 0; stroke: #808080; stroke-width: 1.5"/>
    </g>
    <g id="text_20">
     <!-- Hill Effect -->
     <g transform="translate(330.544688 97.539844) scale(0.09 -0.09)">
      <defs>
       <path id="DejaVuSans-48" d="M 628 4666 
L 1259 4666 
L 1259 2753 
L 3553 2753 
L 3553 4666 
L 4184 4666 
L 4184 0 
L 3553 0 
L 3553 2222 
L 1259 2222 
L 1259 0 
L 628 0 
L 628 4666 
z
" transform="scale(0.015625)"/>
       <path id="DejaVuSans-6c" d="M 603 4863 
L 1178 4863 
L 1178 0 
L 603 0 
L 603 4863 
z
" transform="scale(0.015625)"/>
       <path id="DejaVuSans-66" d="M 2375 4863 
L 2375 4384 
L 1825 4384 
Q 1516 4384 1395 4259 
Q 1275 4134 1275 3809 
L 1275 3500 
L 2222 3500 
L 2222 3053 
L 1275 3053 
L 1275 0 
L 697 0 
L 697 3053 
L 147 3053 
L 147 3500 
L 697 3500 
L 697 3744 
Q 697 4328 969 4595 
Q 1241 4863 1831 4863 
L 2375 4863 
z
" transform="scale(0.015625)"/>
      </defs>
      <use xlink:href="#DejaVuSans-48"/>
      <use xlink:href="#DejaVuSans-69" x="75.195312"/>
      <use xlink:href="#DejaVuSans-6c" x="102.978516"/>
      <use xlink:href="#DejaVuSans-6c" x="130.761719"/>
      <use xlink:href="#DejaVuSans-20" x="158.544922"/>
      <use xlink:href="#DejaVuSans-45" x="190.332031"/>
      <use xlink:href="#DejaVuSans-66" x="253.515625"/>
      <use xlink:href="#DejaVuSans-66" x="288.720703"/>
      <use xlink:href="#DejaVuSans-65" x="323.925781"/>
      <use xlink:href="#DejaVuSans-63" x="385.449219"/>
      <use xlink:href="#DejaVuSans-74" x="440.429688"/>
     </g>
    </g>
    <g id="PathCollection_6">
     <defs>
      <path id="mb44c7ba5f9" d="M -3 3 
L 3 -3 
M -3 -3 
L 3 3 
" style="stroke: #000000; stroke-width: 1.5"/>
     </defs>
     <g>
      <use xlink:href="#mb44c7ba5f9" x="314.344688" y="108.387656" style="stroke: #000000; stroke-width: 1.5"/>
     </g>
    </g>
    <g id="text_21">
     <!-- Simulation data -->
     <g transform="translate(330.544688 110.750156) scale(0.09 -0.09)">
      <defs>
       <path id="DejaVuSans-53" d="M 3425 4513 
L 3425 3897 
Q 3066 4069 2747 4153 
Q 2428 4238 2131 4238 
Q 1616 4238 1336 4038 
Q 1056 3838 1056 3469 
Q 1056 3159 1242 3001 
Q 1428 2844 1947 2747 
L 2328 2669 
Q 3034 2534 3370 2195 
Q 3706 1856 3706 1288 
Q 3706 609 3251 259 
Q 2797 -91 1919 -91 
Q 1588 -91 1214 -16 
Q 841 59 441 206 
L 441 856 
Q 825 641 1194 531 
Q 1563 422 1919 422 
Q 2459 422 2753 634 
Q 3047 847 3047 1241 
Q 3047 1584 2836 1778 
Q 2625 1972 2144 2069 
L 1759 2144 
Q 1053 2284 737 2584 
Q 422 2884 422 3419 
Q 422 4038 858 4394 
Q 1294 4750 2059 4750 
Q 2388 4750 2728 4690 
Q 3069 4631 3425 4513 
z
" transform="scale(0.015625)"/>
       <path id="DejaVuSans-6f" d="M 1959 3097 
Q 1497 3097 1228 2736 
Q 959 2375 959 1747 
Q 959 1119 1226 758 
Q 1494 397 1959 397 
Q 2419 397 2687 759 
Q 2956 1122 2956 1747 
Q 2956 2369 2687 2733 
Q 2419 3097 1959 3097 
z
M 1959 3584 
Q 2709 3584 3137 3096 
Q 3566 2609 3566 1747 
Q 3566 888 3137 398 
Q 2709 -91 1959 -91 
Q 1206 -91 779 398 
Q 353 888 353 1747 
Q 353 2609 779 3096 
Q 1206 3584 1959 3584 
z
" transform="scale(0.015625)"/>
       <path id="DejaVuSans-64" d="M 2906 2969 
L 2906 4863 
L 3481 4863 
L 3481 0 
L 2906 0 
L 2906 525 
Q 2725 213 2448 61 
Q 2172 -91 1784 -91 
Q 1150 -91 751 415 
Q 353 922 353 1747 
Q 353 2572 751 3078 
Q 1150 3584 1784 3584 
Q 2172 3584 2448 3432 
Q 2725 3281 2906 2969 
z
M 947 1747 
Q 947 1113 1208 752 
Q 1469 391 1925 391 
Q 2381 391 2643 752 
Q 2906 1113 2906 1747 
Q 2906 2381 2643 2742 
Q 2381 3103 1925 3103 
Q 1469 3103 1208 2742 
Q 947 2381 947 1747 
z
" transform="scale(0.015625)"/>
      </defs>
      <use xlink:href="#DejaVuSans-53"/>
      <use xlink:href="#DejaVuSans-69" x="63.476562"/>
      <use xlink:href="#DejaVuSans-6d" x="91.259766"/>
      <use xlink:href="#DejaVuSans-75" x="188.671875"/>
      <use xlink:href="#DejaVuSans-6c" x="252.050781"/>
      <use xlink:href="#DejaVuSans-61" x="279.833984"/>
      <use xlink:href="#DejaVuSans-74" x="341.113281"/>
      <use xlink:href="#DejaVuSans-69" x="380.322266"/>
      <use xlink:href="#DejaVuSans-6f" x="408.105469"/>
      <use xlink:href="#DejaVuSans-6e" x="469.287109"/>
      <use xlink:href="#DejaVuSans-20" x="532.666016"/>
      <use xlink:href="#DejaVuSans-64" x="564.453125"/>
      <use xlink:href="#DejaVuSans-61" x="627.929688"/>
      <use xlink:href="#DejaVuSans-74" x="689.208984"/>
      <use xlink:href="#DejaVuSans-61" x="728.417969"/>
     </g>
    </g>
   </g>
  </g>
 </g>
 <defs>
  <clipPath id="p80f2b36cc3">
   <rect x="61.028" y="29.76" width="360.172" height="276.7"/>
  </clipPath>
 </defs>
</svg>
