<?xml version="1.0" encoding="utf-8" standalone="no"?>
<!DOCTYPE svg PUBLIC "-//W3C//DTD SVG 1.1//EN"
  "http://www.w3.org/Graphics/SVG/1.1/DTD/svg11.dtd">
<svg xmlns:xlink="http://www.w3.org/1999/xlink" width="432pt" height="360pt" viewBox="0 0 432 360" xmlns="http://www.w3.org/2000/svg" version="1.1">
 <metadata>
  <rdf:RDF xmlns:dc="http://purl.org/dc/elements/1.1/" xmlns:cc="http://creativecommons.org/ns#" xmlns:rdf="http://www.w3.org/1999/02/22-rdf-syntax-ns#">
   <cc:Work>
    <dc:type rdf:resource="http://purl.org/dc/dcmitype/StillImage"/>
    <dc:date>2025-04-23T16:07:29.925129</dc:date>
    <dc:format>image/svg+xml</dc:format>
    <dc:creator>
     <cc:Agent>
      <dc:title>Matplotlib v3.7.2, https://matplotlib.org/</dc:title>
     </cc:Agent>
    </dc:creator>
   </cc:Work>
  </rdf:RDF>
 </metadata>
 <defs>
  <style type="text/css">*{stroke-linejoin: round; stroke-linecap: butt}</style>
 </defs>
 <g id="figure_1">
  <g id="patch_1">
   <path d="M 0 360 
L 432 360 
L 432 0 
L 0 0 
z
" style="fill: #ffffff"/>
  </g>
  <g id="axes_1">
   <g id="patch_2">
    <path d="M 61.028 306.46 
L 417.375 306.46 
L 417.375 31.2 
L 61.028 31.2 
z
" style="fill: #ffffff"/>
   </g>
   <g id="PathCollection_1">
    <defs>
     <path id="m467dfac814" d="M 0 4.472136 
C 1.186024 4.472136 2.323632 4.000923 3.162278 3.162278 
C 4.000923 2.323632 4.472136 1.186024 4.472136 0 
C 4.472136 -1.186024 4.000923 -2.323632 3.162278 -3.162278 
C 2.323632 -4.000923 1.186024 -4.472136 0 -4.472136 
C -1.186024 -4.472136 -2.323632 -4.000923 -3.162278 -3.162278 
C -4.000923 -2.323632 -4.472136 -1.186024 -4.472136 0 
C -4.472136 1.186024 -4.000923 2.323632 -3.162278 3.162278 
C -2.323632 4.000923 -1.186024 4.472136 0 4.472136 
z
" style="stroke: #ffffff; stroke-width: 2"/>
    </defs>
    <g clip-path="url(#p91136e6d3f)">
     <use xlink:href="#m467dfac814" x="844.9914" y="284.132406" style="fill: #4169e1; stroke: #ffffff; stroke-width: 2"/>
     <use xlink:href="#m467dfac814" x="702.4526" y="267.973273" style="fill: #4169e1; stroke: #ffffff; stroke-width: 2"/>
     <use xlink:href="#m467dfac814" x="559.9138" y="244.534474" style="fill: #4169e1; stroke: #ffffff; stroke-width: 2"/>
     <use xlink:href="#m467dfac814" x="417.375" y="206.838314" style="fill: #4169e1; stroke: #ffffff; stroke-width: 2"/>
     <use xlink:href="#m467dfac814" x="274.8362" y="153.01865" style="fill: #4169e1; stroke: #ffffff; stroke-width: 2"/>
     <use xlink:href="#m467dfac814" x="203.5668" y="130.83865" style="fill: #4169e1; stroke: #ffffff; stroke-width: 2"/>
     <use xlink:href="#m467dfac814" x="167.9321" y="114.849168" style="fill: #4169e1; stroke: #ffffff; stroke-width: 2"/>
     <use xlink:href="#m467dfac814" x="132.2974" y="79.694361" style="fill: #4169e1; stroke: #ffffff; stroke-width: 2"/>
     <use xlink:href="#m467dfac814" x="96.6627" y="57.731514" style="fill: #4169e1; stroke: #ffffff; stroke-width: 2"/>
    </g>
   </g>
   <g id="PathCollection_2">
    <defs>
     <path id="md47ecabbc1" d="M -4.472136 4.472136 
L 4.472136 -4.472136 
M -4.472136 -4.472136 
L 4.472136 4.472136 
" style="stroke: #4169e1; stroke-opacity: 0.7; stroke-width: 2"/>
    </defs>
    <g clip-path="url(#p91136e6d3f)">
     <use xlink:href="#md47ecabbc1" x="844.9914" y="280.977141" style="fill: #4169e1; fill-opacity: 0.7; stroke: #4169e1; stroke-opacity: 0.7; stroke-width: 2"/>
     <use xlink:href="#md47ecabbc1" x="702.4526" y="267.072241" style="fill: #4169e1; fill-opacity: 0.7; stroke: #4169e1; stroke-opacity: 0.7; stroke-width: 2"/>
     <use xlink:href="#md47ecabbc1" x="559.9138" y="245.62045" style="fill: #4169e1; fill-opacity: 0.7; stroke: #4169e1; stroke-opacity: 0.7; stroke-width: 2"/>
     <use xlink:href="#md47ecabbc1" x="417.375" y="212.58117" style="fill: #4169e1; fill-opacity: 0.7; stroke: #4169e1; stroke-opacity: 0.7; stroke-width: 2"/>
     <use xlink:href="#md47ecabbc1" x="274.8362" y="161.825556" style="fill: #4169e1; fill-opacity: 0.7; stroke: #4169e1; stroke-opacity: 0.7; stroke-width: 2"/>
     <use xlink:href="#md47ecabbc1" x="203.5668" y="127.083504" style="fill: #4169e1; fill-opacity: 0.7; stroke: #4169e1; stroke-opacity: 0.7; stroke-width: 2"/>
     <use xlink:href="#md47ecabbc1" x="167.9321" y="106.750323" style="fill: #4169e1; fill-opacity: 0.7; stroke: #4169e1; stroke-opacity: 0.7; stroke-width: 2"/>
     <use xlink:href="#md47ecabbc1" x="132.2974" y="84.156555" style="fill: #4169e1; fill-opacity: 0.7; stroke: #4169e1; stroke-opacity: 0.7; stroke-width: 2"/>
     <use xlink:href="#md47ecabbc1" x="96.6627" y="59.061214" style="fill: #4169e1; fill-opacity: 0.7; stroke: #4169e1; stroke-opacity: 0.7; stroke-width: 2"/>
     <use xlink:href="#md47ecabbc1" x="61.028" y="31.2" style="fill: #4169e1; fill-opacity: 0.7; stroke: #4169e1; stroke-opacity: 0.7; stroke-width: 2"/>
    </g>
   </g>
   <g id="PolyCollection_1"/>
   <g id="PolyCollection_2"/>
   <g id="PathCollection_3">
    <defs>
     <path id="mf7427951fb" d="M 0 4.472136 
C 1.186024 4.472136 2.323632 4.000923 3.162278 3.162278 
C 4.000923 2.323632 4.472136 1.186024 4.472136 0 
C 4.472136 -1.186024 4.000923 -2.323632 3.162278 -3.162278 
C 2.323632 -4.000923 1.186024 -4.472136 0 -4.472136 
C -1.186024 -4.472136 -2.323632 -4.000923 -3.162278 -3.162278 
C -4.000923 -2.323632 -4.472136 -1.186024 -4.472136 0 
C -4.472136 1.186024 -4.000923 2.323632 -3.162278 3.162278 
C -2.323632 4.000923 -1.186024 4.472136 0 4.472136 
z
" style="stroke: #ffffff; stroke-width: 2"/>
    </defs>
    <g clip-path="url(#p91136e6d3f)">
     <use xlink:href="#mf7427951fb" x="274.8362" y="177.782697" style="fill: #ff8c00; stroke: #ffffff; stroke-width: 2"/>
     <use xlink:href="#mf7427951fb" x="239.2015" y="151.835497" style="fill: #ff8c00; stroke: #ffffff; stroke-width: 2"/>
     <use xlink:href="#mf7427951fb" x="203.5668" y="136.922102" style="fill: #ff8c00; stroke: #ffffff; stroke-width: 2"/>
     <use xlink:href="#mf7427951fb" x="167.9321" y="108.962923" style="fill: #ff8c00; stroke: #ffffff; stroke-width: 2"/>
     <use xlink:href="#mf7427951fb" x="132.2974" y="95.669652" style="fill: #ff8c00; stroke: #ffffff; stroke-width: 2"/>
     <use xlink:href="#mf7427951fb" x="96.6627" y="64.628341" style="fill: #ff8c00; stroke: #ffffff; stroke-width: 2"/>
    </g>
   </g>
   <g id="PathCollection_4">
    <defs>
     <path id="m8d4f1ab010" d="M -4.472136 4.472136 
L 4.472136 -4.472136 
M -4.472136 -4.472136 
L 4.472136 4.472136 
" style="stroke: #ff8c00; stroke-opacity: 0.7; stroke-width: 2"/>
    </defs>
    <g clip-path="url(#p91136e6d3f)">
     <use xlink:href="#m8d4f1ab010" x="274.8362" y="167.930915" style="fill: #ff8c00; fill-opacity: 0.7; stroke: #ff8c00; stroke-opacity: 0.7; stroke-width: 2"/>
     <use xlink:href="#m8d4f1ab010" x="239.2015" y="151.054113" style="fill: #ff8c00; fill-opacity: 0.7; stroke: #ff8c00; stroke-opacity: 0.7; stroke-width: 2"/>
     <use xlink:href="#m8d4f1ab010" x="203.5668" y="132.152325" style="fill: #ff8c00; fill-opacity: 0.7; stroke: #ff8c00; stroke-opacity: 0.7; stroke-width: 2"/>
     <use xlink:href="#m8d4f1ab010" x="167.9321" y="110.990456" style="fill: #ff8c00; fill-opacity: 0.7; stroke: #ff8c00; stroke-opacity: 0.7; stroke-width: 2"/>
     <use xlink:href="#m8d4f1ab010" x="132.2974" y="87.308086" style="fill: #ff8c00; fill-opacity: 0.7; stroke: #ff8c00; stroke-opacity: 0.7; stroke-width: 2"/>
     <use xlink:href="#m8d4f1ab010" x="96.6627" y="60.817227" style="fill: #ff8c00; fill-opacity: 0.7; stroke: #ff8c00; stroke-opacity: 0.7; stroke-width: 2"/>
     <use xlink:href="#m8d4f1ab010" x="61.028" y="31.2" style="fill: #ff8c00; fill-opacity: 0.7; stroke: #ff8c00; stroke-opacity: 0.7; stroke-width: 2"/>
    </g>
   </g>
   <g id="PolyCollection_3"/>
   <g id="PolyCollection_4"/>
   <g id="PathCollection_5">
    <defs>
     <path id="mb9938d7fe3" d="M 0 4.472136 
C 1.186024 4.472136 2.323632 4.000923 3.162278 3.162278 
C 4.000923 2.323632 4.472136 1.186024 4.472136 0 
C 4.472136 -1.186024 4.000923 -2.323632 3.162278 -3.162278 
C 2.323632 -4.000923 1.186024 -4.472136 0 -4.472136 
C -1.186024 -4.472136 -2.323632 -4.000923 -3.162278 -3.162278 
C -4.000923 -2.323632 -4.472136 -1.186024 -4.472136 0 
C -4.472136 1.186024 -4.000923 2.323632 -3.162278 3.162278 
C -2.323632 4.000923 -1.186024 4.472136 0 4.472136 
z
" style="stroke: #ffffff; stroke-width: 2"/>
    </defs>
    <g clip-path="url(#p91136e6d3f)">
     <use xlink:href="#mb9938d7fe3" x="274.8362" y="239.711846" style="fill: #32cd32; stroke: #ffffff; stroke-width: 2"/>
     <use xlink:href="#mb9938d7fe3" x="239.2015" y="220.551556" style="fill: #32cd32; stroke: #ffffff; stroke-width: 2"/>
     <use xlink:href="#mb9938d7fe3" x="203.5668" y="193.49391" style="fill: #32cd32; stroke: #ffffff; stroke-width: 2"/>
     <use xlink:href="#mb9938d7fe3" x="167.9321" y="161.220557" style="fill: #32cd32; stroke: #ffffff; stroke-width: 2"/>
     <use xlink:href="#mb9938d7fe3" x="132.2974" y="138.12718" style="fill: #32cd32; stroke: #ffffff; stroke-width: 2"/>
     <use xlink:href="#mb9938d7fe3" x="96.6627" y="85.209274" style="fill: #32cd32; stroke: #ffffff; stroke-width: 2"/>
    </g>
   </g>
   <g id="PathCollection_6">
    <defs>
     <path id="m5db4be6c26" d="M -4.472136 4.472136 
L 4.472136 -4.472136 
M -4.472136 -4.472136 
L 4.472136 4.472136 
" style="stroke: #32cd32; stroke-opacity: 0.7; stroke-width: 2"/>
    </defs>
    <g clip-path="url(#p91136e6d3f)">
     <use xlink:href="#m5db4be6c26" x="274.8362" y="231.417975" style="fill: #32cd32; fill-opacity: 0.7; stroke: #32cd32; stroke-opacity: 0.7; stroke-width: 2"/>
     <use xlink:href="#m5db4be6c26" x="239.2015" y="213.144202" style="fill: #32cd32; fill-opacity: 0.7; stroke: #32cd32; stroke-opacity: 0.7; stroke-width: 2"/>
     <use xlink:href="#m5db4be6c26" x="203.5668" y="190.465523" style="fill: #32cd32; fill-opacity: 0.7; stroke: #32cd32; stroke-opacity: 0.7; stroke-width: 2"/>
     <use xlink:href="#m5db4be6c26" x="167.9321" y="162.34432" style="fill: #32cd32; fill-opacity: 0.7; stroke: #32cd32; stroke-opacity: 0.7; stroke-width: 2"/>
     <use xlink:href="#m5db4be6c26" x="132.2974" y="127.511372" style="fill: #32cd32; fill-opacity: 0.7; stroke: #32cd32; stroke-opacity: 0.7; stroke-width: 2"/>
     <use xlink:href="#m5db4be6c26" x="96.6627" y="84.42085" style="fill: #32cd32; fill-opacity: 0.7; stroke: #32cd32; stroke-opacity: 0.7; stroke-width: 2"/>
     <use xlink:href="#m5db4be6c26" x="61.028" y="31.2" style="fill: #32cd32; fill-opacity: 0.7; stroke: #32cd32; stroke-opacity: 0.7; stroke-width: 2"/>
    </g>
   </g>
   <g id="PolyCollection_5"/>
   <g id="PolyCollection_6"/>
   <g id="PathCollection_7">
    <defs>
     <path id="mf51721c935" d="M 0 4.472136 
C 1.186024 4.472136 2.323632 4.000923 3.162278 3.162278 
C 4.000923 2.323632 4.472136 1.186024 4.472136 0 
C 4.472136 -1.186024 4.000923 -2.323632 3.162278 -3.162278 
C 2.323632 -4.000923 1.186024 -4.472136 0 -4.472136 
C -1.186024 -4.472136 -2.323632 -4.000923 -3.162278 -3.162278 
C -4.000923 -2.323632 -4.472136 -1.186024 -4.472136 0 
C -4.472136 1.186024 -4.000923 2.323632 -3.162278 3.162278 
C -2.323632 4.000923 -1.186024 4.472136 0 4.472136 
z
" style="stroke: #ffffff; stroke-width: 2"/>
    </defs>
    <g clip-path="url(#p91136e6d3f)">
     <use xlink:href="#mf51721c935" x="274.8362" y="281.171702" style="fill: #800080; stroke: #ffffff; stroke-width: 2"/>
     <use xlink:href="#mf51721c935" x="239.2015" y="263.793448" style="fill: #800080; stroke: #ffffff; stroke-width: 2"/>
     <use xlink:href="#mf51721c935" x="203.5668" y="245.03796" style="fill: #800080; stroke: #ffffff; stroke-width: 2"/>
     <use xlink:href="#mf51721c935" x="167.9321" y="209.728003" style="fill: #800080; stroke: #ffffff; stroke-width: 2"/>
     <use xlink:href="#mf51721c935" x="132.2974" y="189.339845" style="fill: #800080; stroke: #ffffff; stroke-width: 2"/>
     <use xlink:href="#mf51721c935" x="96.6627" y="126.568245" style="fill: #800080; stroke: #ffffff; stroke-width: 2"/>
    </g>
   </g>
   <g id="PathCollection_8">
    <defs>
     <path id="m5e1522f4c3" d="M -4.472136 4.472136 
L 4.472136 -4.472136 
M -4.472136 -4.472136 
L 4.472136 4.472136 
" style="stroke: #800080; stroke-opacity: 0.7; stroke-width: 2"/>
    </defs>
    <g clip-path="url(#p91136e6d3f)">
     <use xlink:href="#m5e1522f4c3" x="274.8362" y="275.905677" style="fill: #800080; fill-opacity: 0.7; stroke: #800080; stroke-opacity: 0.7; stroke-width: 2"/>
     <use xlink:href="#m5e1522f4c3" x="239.2015" y="262.280262" style="fill: #800080; fill-opacity: 0.7; stroke: #800080; stroke-opacity: 0.7; stroke-width: 2"/>
     <use xlink:href="#m5e1522f4c3" x="203.5668" y="242.612683" style="fill: #800080; fill-opacity: 0.7; stroke: #800080; stroke-opacity: 0.7; stroke-width: 2"/>
     <use xlink:href="#m5e1522f4c3" x="167.9321" y="214.260181" style="fill: #800080; fill-opacity: 0.7; stroke: #800080; stroke-opacity: 0.7; stroke-width: 2"/>
     <use xlink:href="#m5e1522f4c3" x="132.2974" y="173.463112" style="fill: #800080; fill-opacity: 0.7; stroke: #800080; stroke-opacity: 0.7; stroke-width: 2"/>
     <use xlink:href="#m5e1522f4c3" x="96.6627" y="114.913719" style="fill: #800080; fill-opacity: 0.7; stroke: #800080; stroke-opacity: 0.7; stroke-width: 2"/>
     <use xlink:href="#m5e1522f4c3" x="61.028" y="31.2" style="fill: #800080; fill-opacity: 0.7; stroke: #800080; stroke-opacity: 0.7; stroke-width: 2"/>
    </g>
   </g>
   <g id="PolyCollection_7"/>
   <g id="PolyCollection_8"/>
   <g id="PathCollection_9"/>
   <g id="matplotlib.axis_1">
    <g id="xtick_1">
     <g id="line2d_1">
      <defs>
       <path id="m8089cca4e9" d="M 0 0 
L 0 5 
" style="stroke: #000000; stroke-width: 0.8"/>
      </defs>
      <g>
       <use xlink:href="#m8089cca4e9" x="61.028" y="306.46" style="stroke: #000000; stroke-width: 0.8"/>
      </g>
     </g>
     <g id="text_1">
      <!-- 0 -->
      <g transform="translate(57.2105 324.078125) scale(0.12 -0.12)">
       <defs>
        <path id="DejaVuSans-30" d="M 2034 4250 
Q 1547 4250 1301 3770 
Q 1056 3291 1056 2328 
Q 1056 1369 1301 889 
Q 1547 409 2034 409 
Q 2525 409 2770 889 
Q 3016 1369 3016 2328 
Q 3016 3291 2770 3770 
Q 2525 4250 2034 4250 
z
M 2034 4750 
Q 2819 4750 3233 4129 
Q 3647 3509 3647 2328 
Q 3647 1150 3233 529 
Q 2819 -91 2034 -91 
Q 1250 -91 836 529 
Q 422 1150 422 2328 
Q 422 3509 836 4129 
Q 1250 4750 2034 4750 
z
" transform="scale(0.015625)"/>
       </defs>
       <use xlink:href="#DejaVuSans-30"/>
      </g>
     </g>
    </g>
    <g id="xtick_2">
     <g id="line2d_2">
      <g>
       <use xlink:href="#m8089cca4e9" x="132.2974" y="306.46" style="stroke: #000000; stroke-width: 0.8"/>
      </g>
     </g>
     <g id="text_2">
      <!-- 1 -->
      <g transform="translate(128.4799 324.078125) scale(0.12 -0.12)">
       <defs>
        <path id="DejaVuSans-31" d="M 794 531 
L 1825 531 
L 1825 4091 
L 703 3866 
L 703 4441 
L 1819 4666 
L 2450 4666 
L 2450 531 
L 3481 531 
L 3481 0 
L 794 0 
L 794 531 
z
" transform="scale(0.015625)"/>
       </defs>
       <use xlink:href="#DejaVuSans-31"/>
      </g>
     </g>
    </g>
    <g id="xtick_3">
     <g id="line2d_3">
      <g>
       <use xlink:href="#m8089cca4e9" x="203.5668" y="306.46" style="stroke: #000000; stroke-width: 0.8"/>
      </g>
     </g>
     <g id="text_3">
      <!-- 2 -->
      <g transform="translate(199.7493 324.078125) scale(0.12 -0.12)">
       <defs>
        <path id="DejaVuSans-32" d="M 1228 531 
L 3431 531 
L 3431 0 
L 469 0 
L 469 531 
Q 828 903 1448 1529 
Q 2069 2156 2228 2338 
Q 2531 2678 2651 2914 
Q 2772 3150 2772 3378 
Q 2772 3750 2511 3984 
Q 2250 4219 1831 4219 
Q 1534 4219 1204 4116 
Q 875 4013 500 3803 
L 500 4441 
Q 881 4594 1212 4672 
Q 1544 4750 1819 4750 
Q 2544 4750 2975 4387 
Q 3406 4025 3406 3419 
Q 3406 3131 3298 2873 
Q 3191 2616 2906 2266 
Q 2828 2175 2409 1742 
Q 1991 1309 1228 531 
z
" transform="scale(0.015625)"/>
       </defs>
       <use xlink:href="#DejaVuSans-32"/>
      </g>
     </g>
    </g>
    <g id="xtick_4">
     <g id="line2d_4">
      <g>
       <use xlink:href="#m8089cca4e9" x="274.8362" y="306.46" style="stroke: #000000; stroke-width: 0.8"/>
      </g>
     </g>
     <g id="text_4">
      <!-- 3 -->
      <g transform="translate(271.0187 324.078125) scale(0.12 -0.12)">
       <defs>
        <path id="DejaVuSans-33" d="M 2597 2516 
Q 3050 2419 3304 2112 
Q 3559 1806 3559 1356 
Q 3559 666 3084 287 
Q 2609 -91 1734 -91 
Q 1441 -91 1130 -33 
Q 819 25 488 141 
L 488 750 
Q 750 597 1062 519 
Q 1375 441 1716 441 
Q 2309 441 2620 675 
Q 2931 909 2931 1356 
Q 2931 1769 2642 2001 
Q 2353 2234 1838 2234 
L 1294 2234 
L 1294 2753 
L 1863 2753 
Q 2328 2753 2575 2939 
Q 2822 3125 2822 3475 
Q 2822 3834 2567 4026 
Q 2313 4219 1838 4219 
Q 1578 4219 1281 4162 
Q 984 4106 628 3988 
L 628 4550 
Q 988 4650 1302 4700 
Q 1616 4750 1894 4750 
Q 2613 4750 3031 4423 
Q 3450 4097 3450 3541 
Q 3450 3153 3228 2886 
Q 3006 2619 2597 2516 
z
" transform="scale(0.015625)"/>
       </defs>
       <use xlink:href="#DejaVuSans-33"/>
      </g>
     </g>
    </g>
    <g id="xtick_5">
     <g id="line2d_5">
      <g>
       <use xlink:href="#m8089cca4e9" x="346.1056" y="306.46" style="stroke: #000000; stroke-width: 0.8"/>
      </g>
     </g>
     <g id="text_5">
      <!-- 4 -->
      <g transform="translate(342.2881 324.078125) scale(0.12 -0.12)">
       <defs>
        <path id="DejaVuSans-34" d="M 2419 4116 
L 825 1625 
L 2419 1625 
L 2419 4116 
z
M 2253 4666 
L 3047 4666 
L 3047 1625 
L 3713 1625 
L 3713 1100 
L 3047 1100 
L 3047 0 
L 2419 0 
L 2419 1100 
L 313 1100 
L 313 1709 
L 2253 4666 
z
" transform="scale(0.015625)"/>
       </defs>
       <use xlink:href="#DejaVuSans-34"/>
      </g>
     </g>
    </g>
    <g id="xtick_6">
     <g id="line2d_6">
      <g>
       <use xlink:href="#m8089cca4e9" x="417.375" y="306.46" style="stroke: #000000; stroke-width: 0.8"/>
      </g>
     </g>
     <g id="text_6">
      <!-- 5 -->
      <g transform="translate(413.5575 324.078125) scale(0.12 -0.12)">
       <defs>
        <path id="DejaVuSans-35" d="M 691 4666 
L 3169 4666 
L 3169 4134 
L 1269 4134 
L 1269 2991 
Q 1406 3038 1543 3061 
Q 1681 3084 1819 3084 
Q 2600 3084 3056 2656 
Q 3513 2228 3513 1497 
Q 3513 744 3044 326 
Q 2575 -91 1722 -91 
Q 1428 -91 1123 -41 
Q 819 9 494 109 
L 494 744 
Q 775 591 1075 516 
Q 1375 441 1709 441 
Q 2250 441 2565 725 
Q 2881 1009 2881 1497 
Q 2881 1984 2565 2268 
Q 2250 2553 1709 2553 
Q 1456 2553 1204 2497 
Q 953 2441 691 2322 
L 691 4666 
z
" transform="scale(0.015625)"/>
       </defs>
       <use xlink:href="#DejaVuSans-35"/>
      </g>
     </g>
    </g>
    <g id="text_7">
     <!-- [MFA]$/\mu$M -->
     <g transform="translate(201.2815 342.73375) scale(0.16 -0.16)">
      <defs>
       <path id="DejaVuSans-5b" d="M 550 4863 
L 1875 4863 
L 1875 4416 
L 1125 4416 
L 1125 -397 
L 1875 -397 
L 1875 -844 
L 550 -844 
L 550 4863 
z
" transform="scale(0.015625)"/>
       <path id="DejaVuSans-4d" d="M 628 4666 
L 1569 4666 
L 2759 1491 
L 3956 4666 
L 4897 4666 
L 4897 0 
L 4281 0 
L 4281 4097 
L 3078 897 
L 2444 897 
L 1241 4097 
L 1241 0 
L 628 0 
L 628 4666 
z
" transform="scale(0.015625)"/>
       <path id="DejaVuSans-46" d="M 628 4666 
L 3309 4666 
L 3309 4134 
L 1259 4134 
L 1259 2759 
L 3109 2759 
L 3109 2228 
L 1259 2228 
L 1259 0 
L 628 0 
L 628 4666 
z
" transform="scale(0.015625)"/>
       <path id="DejaVuSans-41" d="M 2188 4044 
L 1331 1722 
L 3047 1722 
L 2188 4044 
z
M 1831 4666 
L 2547 4666 
L 4325 0 
L 3669 0 
L 3244 1197 
L 1141 1197 
L 716 0 
L 50 0 
L 1831 4666 
z
" transform="scale(0.015625)"/>
       <path id="DejaVuSans-5d" d="M 1947 4863 
L 1947 -844 
L 622 -844 
L 622 -397 
L 1369 -397 
L 1369 4416 
L 622 4416 
L 622 4863 
L 1947 4863 
z
" transform="scale(0.015625)"/>
       <path id="DejaVuSans-2f" d="M 1625 4666 
L 2156 4666 
L 531 -594 
L 0 -594 
L 1625 4666 
z
" transform="scale(0.015625)"/>
       <path id="DejaVuSans-Oblique-3bc" d="M -84 -1331 
L 856 3500 
L 1434 3500 
L 1009 1322 
Q 997 1256 987 1175 
Q 978 1094 978 1013 
Q 978 722 1161 565 
Q 1344 409 1684 409 
Q 2147 409 2431 671 
Q 2716 934 2816 1459 
L 3213 3500 
L 3788 3500 
L 3266 809 
Q 3253 750 3248 706 
Q 3244 663 3244 628 
Q 3244 531 3283 486 
Q 3322 441 3406 441 
Q 3438 441 3492 456 
Q 3547 472 3647 513 
L 3559 50 
Q 3422 -19 3297 -55 
Q 3172 -91 3053 -91 
Q 2847 -91 2730 40 
Q 2613 172 2613 403 
Q 2438 153 2195 31 
Q 1953 -91 1625 -91 
Q 1334 -91 1117 43 
Q 900 178 831 397 
L 494 -1331 
L -84 -1331 
z
" transform="scale(0.015625)"/>
      </defs>
      <use xlink:href="#DejaVuSans-5b" transform="translate(0 0.015625)"/>
      <use xlink:href="#DejaVuSans-4d" transform="translate(39.013672 0.015625)"/>
      <use xlink:href="#DejaVuSans-46" transform="translate(125.292969 0.015625)"/>
      <use xlink:href="#DejaVuSans-41" transform="translate(182.8125 0.015625)"/>
      <use xlink:href="#DejaVuSans-5d" transform="translate(251.220703 0.015625)"/>
      <use xlink:href="#DejaVuSans-2f" transform="translate(290.234375 0.015625)"/>
      <use xlink:href="#DejaVuSans-Oblique-3bc" transform="translate(323.925781 0.015625)"/>
      <use xlink:href="#DejaVuSans-4d" transform="translate(387.548828 0.015625)"/>
     </g>
    </g>
   </g>
   <g id="matplotlib.axis_2">
    <g id="ytick_1">
     <g id="line2d_7">
      <defs>
       <path id="m82e3aa78e0" d="M 0 0 
L -5 0 
" style="stroke: #000000; stroke-width: 0.8"/>
      </defs>
      <g>
       <use xlink:href="#m82e3aa78e0" x="61.028" y="306.46" style="stroke: #000000; stroke-width: 0.8"/>
      </g>
     </g>
     <g id="text_8">
      <!-- 0.0 -->
      <g transform="translate(33.44425 311.019063) scale(0.12 -0.12)">
       <defs>
        <path id="DejaVuSans-2e" d="M 684 794 
L 1344 794 
L 1344 0 
L 684 0 
L 684 794 
z
" transform="scale(0.015625)"/>
       </defs>
       <use xlink:href="#DejaVuSans-30"/>
       <use xlink:href="#DejaVuSans-2e" x="63.623047"/>
       <use xlink:href="#DejaVuSans-30" x="95.410156"/>
      </g>
     </g>
    </g>
    <g id="ytick_2">
     <g id="line2d_8">
      <g>
       <use xlink:href="#m82e3aa78e0" x="61.028" y="251.408" style="stroke: #000000; stroke-width: 0.8"/>
      </g>
     </g>
     <g id="text_9">
      <!-- 0.2 -->
      <g transform="translate(33.44425 255.967062) scale(0.12 -0.12)">
       <use xlink:href="#DejaVuSans-30"/>
       <use xlink:href="#DejaVuSans-2e" x="63.623047"/>
       <use xlink:href="#DejaVuSans-32" x="95.410156"/>
      </g>
     </g>
    </g>
    <g id="ytick_3">
     <g id="line2d_9">
      <g>
       <use xlink:href="#m82e3aa78e0" x="61.028" y="196.356" style="stroke: #000000; stroke-width: 0.8"/>
      </g>
     </g>
     <g id="text_10">
      <!-- 0.4 -->
      <g transform="translate(33.44425 200.915063) scale(0.12 -0.12)">
       <use xlink:href="#DejaVuSans-30"/>
       <use xlink:href="#DejaVuSans-2e" x="63.623047"/>
       <use xlink:href="#DejaVuSans-34" x="95.410156"/>
      </g>
     </g>
    </g>
    <g id="ytick_4">
     <g id="line2d_10">
      <g>
       <use xlink:href="#m82e3aa78e0" x="61.028" y="141.304" style="stroke: #000000; stroke-width: 0.8"/>
      </g>
     </g>
     <g id="text_11">
      <!-- 0.6 -->
      <g transform="translate(33.44425 145.863063) scale(0.12 -0.12)">
       <defs>
        <path id="DejaVuSans-36" d="M 2113 2584 
Q 1688 2584 1439 2293 
Q 1191 2003 1191 1497 
Q 1191 994 1439 701 
Q 1688 409 2113 409 
Q 2538 409 2786 701 
Q 3034 994 3034 1497 
Q 3034 2003 2786 2293 
Q 2538 2584 2113 2584 
z
M 3366 4563 
L 3366 3988 
Q 3128 4100 2886 4159 
Q 2644 4219 2406 4219 
Q 1781 4219 1451 3797 
Q 1122 3375 1075 2522 
Q 1259 2794 1537 2939 
Q 1816 3084 2150 3084 
Q 2853 3084 3261 2657 
Q 3669 2231 3669 1497 
Q 3669 778 3244 343 
Q 2819 -91 2113 -91 
Q 1303 -91 875 529 
Q 447 1150 447 2328 
Q 447 3434 972 4092 
Q 1497 4750 2381 4750 
Q 2619 4750 2861 4703 
Q 3103 4656 3366 4563 
z
" transform="scale(0.015625)"/>
       </defs>
       <use xlink:href="#DejaVuSans-30"/>
       <use xlink:href="#DejaVuSans-2e" x="63.623047"/>
       <use xlink:href="#DejaVuSans-36" x="95.410156"/>
      </g>
     </g>
    </g>
    <g id="ytick_5">
     <g id="line2d_11">
      <g>
       <use xlink:href="#m82e3aa78e0" x="61.028" y="86.252" style="stroke: #000000; stroke-width: 0.8"/>
      </g>
     </g>
     <g id="text_12">
      <!-- 0.8 -->
      <g transform="translate(33.44425 90.811062) scale(0.12 -0.12)">
       <defs>
        <path id="DejaVuSans-38" d="M 2034 2216 
Q 1584 2216 1326 1975 
Q 1069 1734 1069 1313 
Q 1069 891 1326 650 
Q 1584 409 2034 409 
Q 2484 409 2743 651 
Q 3003 894 3003 1313 
Q 3003 1734 2745 1975 
Q 2488 2216 2034 2216 
z
M 1403 2484 
Q 997 2584 770 2862 
Q 544 3141 544 3541 
Q 544 4100 942 4425 
Q 1341 4750 2034 4750 
Q 2731 4750 3128 4425 
Q 3525 4100 3525 3541 
Q 3525 3141 3298 2862 
Q 3072 2584 2669 2484 
Q 3125 2378 3379 2068 
Q 3634 1759 3634 1313 
Q 3634 634 3220 271 
Q 2806 -91 2034 -91 
Q 1263 -91 848 271 
Q 434 634 434 1313 
Q 434 1759 690 2068 
Q 947 2378 1403 2484 
z
M 1172 3481 
Q 1172 3119 1398 2916 
Q 1625 2713 2034 2713 
Q 2441 2713 2670 2916 
Q 2900 3119 2900 3481 
Q 2900 3844 2670 4047 
Q 2441 4250 2034 4250 
Q 1625 4250 1398 4047 
Q 1172 3844 1172 3481 
z
" transform="scale(0.015625)"/>
       </defs>
       <use xlink:href="#DejaVuSans-30"/>
       <use xlink:href="#DejaVuSans-2e" x="63.623047"/>
       <use xlink:href="#DejaVuSans-38" x="95.410156"/>
      </g>
     </g>
    </g>
    <g id="ytick_6">
     <g id="line2d_12">
      <g>
       <use xlink:href="#m82e3aa78e0" x="61.028" y="31.2" style="stroke: #000000; stroke-width: 0.8"/>
      </g>
     </g>
     <g id="text_13">
      <!-- 1.0 -->
      <g transform="translate(33.44425 35.759063) scale(0.12 -0.12)">
       <use xlink:href="#DejaVuSans-31"/>
       <use xlink:href="#DejaVuSans-2e" x="63.623047"/>
       <use xlink:href="#DejaVuSans-30" x="95.410156"/>
      </g>
     </g>
    </g>
    <g id="text_14">
     <!-- [ATP]/[ATP$_0$] -->
     <g transform="translate(26.11675 218.27) rotate(-90) scale(0.16 -0.16)">
      <defs>
       <path id="DejaVuSans-54" d="M -19 4666 
L 3928 4666 
L 3928 4134 
L 2272 4134 
L 2272 0 
L 1638 0 
L 1638 4134 
L -19 4134 
L -19 4666 
z
" transform="scale(0.015625)"/>
       <path id="DejaVuSans-50" d="M 1259 4147 
L 1259 2394 
L 2053 2394 
Q 2494 2394 2734 2622 
Q 2975 2850 2975 3272 
Q 2975 3691 2734 3919 
Q 2494 4147 2053 4147 
L 1259 4147 
z
M 628 4666 
L 2053 4666 
Q 2838 4666 3239 4311 
Q 3641 3956 3641 3272 
Q 3641 2581 3239 2228 
Q 2838 1875 2053 1875 
L 1259 1875 
L 1259 0 
L 628 0 
L 628 4666 
z
" transform="scale(0.015625)"/>
      </defs>
      <use xlink:href="#DejaVuSans-5b" transform="translate(0 0.015625)"/>
      <use xlink:href="#DejaVuSans-41" transform="translate(39.013672 0.015625)"/>
      <use xlink:href="#DejaVuSans-54" transform="translate(107.421875 0.015625)"/>
      <use xlink:href="#DejaVuSans-50" transform="translate(168.505859 0.015625)"/>
      <use xlink:href="#DejaVuSans-5d" transform="translate(228.808594 0.015625)"/>
      <use xlink:href="#DejaVuSans-2f" transform="translate(267.822266 0.015625)"/>
      <use xlink:href="#DejaVuSans-5b" transform="translate(301.513672 0.015625)"/>
      <use xlink:href="#DejaVuSans-41" transform="translate(340.527344 0.015625)"/>
      <use xlink:href="#DejaVuSans-54" transform="translate(408.935547 0.015625)"/>
      <use xlink:href="#DejaVuSans-50" transform="translate(470.019531 0.015625)"/>
      <use xlink:href="#DejaVuSans-30" transform="translate(531.279297 -16.390625) scale(0.7)"/>
      <use xlink:href="#DejaVuSans-5d" transform="translate(578.549805 0.015625)"/>
     </g>
    </g>
   </g>
   <g id="line2d_13">
    <path d="M 23.785135 -1 
L 33.740167 7.975578 
L 44.976333 17.790083 
L 56.2125 27.281876 
L 67.448667 36.461567 
L 78.684833 45.339421 
L 89.921 53.92536 
L 101.157167 62.228984 
L 112.393333 70.259576 
L 123.6295 78.026112 
L 134.865667 85.537276 
L 146.101833 92.801465 
L 157.338 99.826799 
L 168.574167 106.621131 
L 179.810333 113.192059 
L 193.293733 120.792603 
L 206.777133 128.094244 
L 220.260533 135.108738 
L 233.743933 141.847376 
L 247.227333 148.321008 
L 260.710733 154.540055 
L 274.194133 160.514528 
L 287.677533 166.254047 
L 301.160933 171.767851 
L 314.644333 177.064816 
L 328.127733 182.153471 
L 343.858367 187.837863 
L 359.589 193.262316 
L 375.319633 198.438714 
L 391.050267 203.378402 
L 406.7809 208.092203 
L 422.511533 212.590448 
L 433 215.474332 
L 433 215.474332 
" clip-path="url(#p91136e6d3f)" style="fill: none; stroke: #4169e1; stroke-opacity: 0.7; stroke-width: 1.5; stroke-linecap: square"/>
   </g>
   <g id="line2d_14">
    <path d="M 24.835455 -1 
L 32.777067 6.293663 
L 42.194044 14.716376 
L 53.965267 24.913192 
L 65.736489 34.753616 
L 77.507711 44.250105 
L 89.278933 53.414679 
L 101.050156 62.258939 
L 112.821378 70.794081 
L 124.5926 79.030909 
L 136.363822 86.979849 
L 148.135044 94.650963 
L 159.906267 102.053962 
L 171.677489 109.198217 
L 183.448711 116.092771 
L 195.219933 122.746351 
L 206.991156 129.16738 
L 218.762378 135.363986 
L 230.5336 141.344012 
L 244.659067 148.244798 
L 258.784533 154.857176 
L 272.91 161.193199 
L 287.035467 167.264417 
L 301.160933 173.081897 
L 315.2864 178.656244 
L 329.411867 183.997619 
L 343.537333 189.115759 
L 357.6628 194.019993 
L 374.142511 199.483154 
L 390.622222 204.680873 
L 407.101933 209.62605 
L 423.581644 214.330953 
L 433 216.91648 
L 433 216.91648 
" clip-path="url(#p91136e6d3f)" style="fill: none; stroke-dasharray: 5.55,2.4; stroke-dashoffset: 0; stroke: #4169e1; stroke-opacity: 0.7; stroke-width: 1.5"/>
   </g>
   <g id="line2d_15">
    <path d="M 24.690763 -1 
L 34.0612 8.413383 
L 43.6922 17.788154 
L 53.858256 27.364031 
L 64.024311 36.622255 
L 74.190367 45.573363 
L 84.356422 54.227544 
L 94.522478 62.594647 
L 104.688533 70.684194 
L 115.389644 78.909772 
L 126.090756 86.848382 
L 136.791867 94.510035 
L 147.492978 101.904395 
L 158.729144 109.390995 
L 169.965311 116.603591 
L 181.201478 123.552211 
L 192.437644 130.246516 
L 204.208867 136.996965 
L 215.980089 143.488816 
L 227.751311 149.731975 
L 240.057589 156.003345 
L 252.363867 162.02377 
L 264.670144 167.803291 
L 277.511478 173.587676 
L 290.352811 179.130752 
L 303.7292 184.659037 
L 317.105589 189.9473 
L 331.017033 195.203674 
L 344.928478 200.222911 
L 359.374978 205.195666 
L 373.821478 209.935656 
L 388.803033 214.616989 
L 404.319644 219.226306 
L 419.836256 223.604295 
L 433 227.145684 
L 433 227.145684 
" clip-path="url(#p91136e6d3f)" style="fill: none; stroke: #ff8c00; stroke-opacity: 0.7; stroke-width: 1.5; stroke-linecap: square"/>
   </g>
   <g id="line2d_16">
    <path d="M 26.679024 -1 
L 36.629467 8.664037 
L 46.902533 18.322673 
L 57.1756 27.668042 
L 67.448667 36.710307 
L 77.721733 45.459297 
L 87.9948 53.924524 
L 98.267867 62.115193 
L 109.183 70.526899 
L 120.098133 78.649027 
L 131.013267 86.491546 
L 141.9284 94.064082 
L 152.843533 101.37593 
L 164.400733 108.843713 
L 175.957933 116.039569 
L 187.515133 122.973401 
L 199.072333 129.654749 
L 211.2716 136.443523 
L 223.470867 142.97163 
L 235.670133 149.249077 
L 247.8694 155.28549 
L 260.710733 161.38938 
L 273.552067 167.246816 
L 286.3934 172.86775 
L 299.8768 178.525639 
L 313.3602 183.943905 
L 327.485667 189.374225 
L 341.611133 194.563856 
L 355.7366 199.523465 
L 370.504133 204.473628 
L 385.271667 209.194646 
L 400.681267 213.888084 
L 416.732933 218.536418 
L 433 223.009016 
L 433 223.009016 
" clip-path="url(#p91136e6d3f)" style="fill: none; stroke-dasharray: 5.55,2.4; stroke-dashoffset: 0; stroke: #ff8c00; stroke-opacity: 0.7; stroke-width: 1.5"/>
   </g>
   <g id="line2d_17">
    <path d="M 44.883577 -1 
L 51.182978 11.266483 
L 57.603644 23.265321 
L 64.024311 34.776437 
L 70.444978 45.819658 
L 76.865644 56.414 
L 83.286311 66.577711 
L 89.706978 76.328293 
L 96.127644 85.68254 
L 102.548311 94.656562 
L 108.968978 103.265813 
L 115.389644 111.525121 
L 121.810311 119.448709 
L 128.766033 127.669561 
L 135.721756 135.529031 
L 142.677478 143.043006 
L 149.6332 150.226673 
L 156.588922 157.094553 
L 163.544644 163.660526 
L 170.500367 169.937865 
L 177.991144 176.389825 
L 185.481922 182.536869 
L 192.9727 188.393408 
L 200.463478 193.973169 
L 207.954256 199.289234 
L 215.980089 204.706542 
L 224.005922 209.850014 
L 232.031756 214.733492 
L 240.592644 219.670759 
L 249.153533 224.342272 
L 257.714422 228.762337 
L 266.810367 233.198269 
L 275.906311 237.380943 
L 285.002256 241.32482 
L 294.633256 245.255546 
L 304.264256 248.949063 
L 314.430311 252.606239 
L 324.596367 256.030851 
L 335.297478 259.400703 
L 346.533644 262.696967 
L 357.769811 265.762345 
L 369.541033 268.743659 
L 381.847311 271.627238 
L 394.688644 274.401407 
L 408.065033 277.056488 
L 421.976478 279.584774 
L 433 281.432839 
L 433 281.432839 
" clip-path="url(#p91136e6d3f)" style="fill: none; stroke: #32cd32; stroke-opacity: 0.7; stroke-width: 1.5; stroke-linecap: square"/>
   </g>
   <g id="line2d_18">
    <path d="M 42.920404 -1 
L 48.828733 9.828401 
L 55.2494 21.163443 
L 61.670067 32.065344 
L 68.090733 42.550656 
L 74.5114 52.635298 
L 80.932067 62.33458 
L 87.352733 71.663228 
L 94.415467 81.513545 
L 101.4782 90.950617 
L 108.540933 99.99178 
L 115.603667 108.653644 
L 122.6664 116.95212 
L 129.729133 124.902454 
L 136.791867 132.519252 
L 143.8546 139.816506 
L 150.917333 146.807621 
L 157.980067 153.505442 
L 165.684867 160.492098 
L 173.389667 167.159618 
L 181.094467 173.522579 
L 188.799267 179.594892 
L 196.504067 185.389835 
L 204.208867 190.920076 
L 212.555733 196.626473 
L 220.9026 202.051037 
L 229.249467 207.207687 
L 237.596333 212.109655 
L 246.585267 217.118291 
L 255.5742 221.86104 
L 264.563133 226.352019 
L 273.552067 230.604591 
L 283.183067 234.910726 
L 292.814067 238.972412 
L 302.445067 242.803525 
L 312.718133 246.650637 
L 322.9912 250.265247 
L 333.906333 253.866719 
L 344.821467 257.237375 
L 356.378667 260.571149 
L 367.935867 263.679132 
L 380.135133 266.731706 
L 392.976467 269.709931 
L 405.8178 272.464895 
L 419.3012 275.135616 
L 433 277.634174 
L 433 277.634174 
" clip-path="url(#p91136e6d3f)" style="fill: none; stroke-dasharray: 5.55,2.4; stroke-dashoffset: 0; stroke: #32cd32; stroke-opacity: 0.7; stroke-width: 1.5"/>
   </g>
   <g id="line2d_19">
    <path d="M 42.275692 -1 
L 46.902533 12.91993 
L 51.718033 26.737624 
L 56.533533 39.904884 
L 61.349033 52.452327 
L 66.164533 64.409129 
L 70.980033 75.803094 
L 75.795533 86.660714 
L 80.611033 97.007239 
L 85.426533 106.866725 
L 90.242033 116.2621 
L 95.057533 125.21521 
L 100.408089 134.669692 
L 105.758644 143.630989 
L 111.1092 152.124828 
L 116.459756 160.175592 
L 121.810311 167.806396 
L 127.160867 175.039144 
L 132.511422 181.894603 
L 137.861978 188.392452 
L 143.212533 194.551347 
L 148.563089 200.388968 
L 153.913644 205.922074 
L 159.799256 211.67571 
L 165.684867 217.100074 
L 171.570478 222.21401 
L 177.456089 227.035283 
L 183.3417 231.580641 
L 189.762367 236.243065 
L 196.183033 240.615179 
L 202.6037 244.71506 
L 209.024367 248.559659 
L 215.980089 252.454973 
L 222.935811 256.088225 
L 229.891533 259.477046 
L 237.382311 262.872025 
L 244.873089 266.021683 
L 252.898922 269.1442 
L 260.924756 272.025606 
L 269.485644 274.854297 
L 278.046533 277.450619 
L 287.142478 279.975927 
L 296.773478 282.410592 
L 306.939533 284.738124 
L 317.105589 286.840394 
L 327.8067 288.833888 
L 339.577922 290.793593 
L 351.8842 292.609814 
L 364.725533 294.280903 
L 378.636978 295.864505 
L 393.618533 297.340438 
L 409.6702 298.69443 
L 427.327033 299.952822 
L 433 300.312121 
L 433 300.312121 
" clip-path="url(#p91136e6d3f)" style="fill: none; stroke: #800080; stroke-opacity: 0.7; stroke-width: 1.5; stroke-linecap: square"/>
   </g>
   <g id="line2d_20">
    <path d="M 50.314744 -1 
L 55.2494 14.157115 
L 60.385933 29.139812 
L 65.522467 43.354535 
L 70.659 56.840647 
L 75.795533 69.635495 
L 80.932067 81.774513 
L 86.0686 93.291315 
L 91.205133 104.217796 
L 96.341667 114.584213 
L 101.4782 124.419275 
L 106.614733 133.750216 
L 111.751267 142.602877 
L 116.8878 151.001773 
L 122.024333 158.970164 
L 127.160867 166.530115 
L 132.2974 173.702562 
L 137.433933 180.507369 
L 142.570467 186.963378 
L 147.707 193.088469 
L 152.843533 198.899603 
L 158.622133 205.081858 
L 164.400733 210.908775 
L 170.179333 216.400778 
L 175.957933 221.577116 
L 181.736533 226.455934 
L 187.515133 231.054332 
L 193.293733 235.388428 
L 199.7144 239.912553 
L 206.135067 244.14869 
L 212.555733 248.115172 
L 218.9764 251.829165 
L 226.039133 255.642082 
L 233.101867 259.188879 
L 240.1646 262.488131 
L 247.227333 265.557114 
L 254.932133 268.661329 
L 262.636933 271.529958 
L 270.9838 274.392491 
L 279.330667 277.020437 
L 288.3196 279.610202 
L 297.308533 281.972148 
L 306.939533 284.272728 
L 317.2126 286.48896 
L 328.127733 288.601664 
L 339.042867 290.490868 
L 350.600067 292.273829 
L 363.4414 294.022413 
L 376.9248 295.626952 
L 391.050267 297.086351 
L 406.459867 298.455138 
L 423.1536 299.713382 
L 433 300.360656 
L 433 300.360656 
" clip-path="url(#p91136e6d3f)" style="fill: none; stroke-dasharray: 5.55,2.4; stroke-dashoffset: 0; stroke: #800080; stroke-opacity: 0.7; stroke-width: 1.5"/>
   </g>
   <g id="line2d_21"/>
   <g id="line2d_22"/>
   <g id="patch_3">
    <path d="M 61.028 306.46 
L 61.028 31.2 
" style="fill: none; stroke: #000000; stroke-width: 0.8; stroke-linejoin: miter; stroke-linecap: square"/>
   </g>
   <g id="patch_4">
    <path d="M 61.028 306.46 
L 417.375 306.46 
" style="fill: none; stroke: #000000; stroke-width: 0.8; stroke-linejoin: miter; stroke-linecap: square"/>
   </g>
   <g id="text_15">
    <!-- MFA: $k_1$ = 0.00243 ± 0.00008 -->
    <g transform="translate(118.8015 25.2) scale(0.16 -0.16)">
     <defs>
      <path id="DejaVuSans-3a" d="M 750 794 
L 1409 794 
L 1409 0 
L 750 0 
L 750 794 
z
M 750 3309 
L 1409 3309 
L 1409 2516 
L 750 2516 
L 750 3309 
z
" transform="scale(0.015625)"/>
      <path id="DejaVuSans-20" transform="scale(0.015625)"/>
      <path id="DejaVuSans-Oblique-6b" d="M 1172 4863 
L 1747 4863 
L 1197 2028 
L 3169 3500 
L 3916 3500 
L 1716 1825 
L 3322 0 
L 2625 0 
L 1131 1709 
L 800 0 
L 225 0 
L 1172 4863 
z
" transform="scale(0.015625)"/>
      <path id="DejaVuSans-3d" d="M 678 2906 
L 4684 2906 
L 4684 2381 
L 678 2381 
L 678 2906 
z
M 678 1631 
L 4684 1631 
L 4684 1100 
L 678 1100 
L 678 1631 
z
" transform="scale(0.015625)"/>
      <path id="DejaVuSans-b1" d="M 2944 4013 
L 2944 2803 
L 4684 2803 
L 4684 2272 
L 2944 2272 
L 2944 1063 
L 2419 1063 
L 2419 2272 
L 678 2272 
L 678 2803 
L 2419 2803 
L 2419 4013 
L 2944 4013 
z
M 678 531 
L 4684 531 
L 4684 0 
L 678 0 
L 678 531 
z
" transform="scale(0.015625)"/>
     </defs>
     <use xlink:href="#DejaVuSans-4d" transform="translate(0 0.015625)"/>
     <use xlink:href="#DejaVuSans-46" transform="translate(86.279297 0.015625)"/>
     <use xlink:href="#DejaVuSans-41" transform="translate(143.798828 0.015625)"/>
     <use xlink:href="#DejaVuSans-3a" transform="translate(212.207031 0.015625)"/>
     <use xlink:href="#DejaVuSans-20" transform="translate(245.898438 0.015625)"/>
     <use xlink:href="#DejaVuSans-Oblique-6b" transform="translate(277.685547 0.015625)"/>
     <use xlink:href="#DejaVuSans-31" transform="translate(335.595703 -16.390625) scale(0.7)"/>
     <use xlink:href="#DejaVuSans-20" transform="translate(382.866211 0.015625)"/>
     <use xlink:href="#DejaVuSans-3d" transform="translate(414.65332 0.015625)"/>
     <use xlink:href="#DejaVuSans-20" transform="translate(498.442383 0.015625)"/>
     <use xlink:href="#DejaVuSans-30" transform="translate(530.229492 0.015625)"/>
     <use xlink:href="#DejaVuSans-2e" transform="translate(593.852539 0.015625)"/>
     <use xlink:href="#DejaVuSans-30" transform="translate(625.639648 0.015625)"/>
     <use xlink:href="#DejaVuSans-30" transform="translate(689.262695 0.015625)"/>
     <use xlink:href="#DejaVuSans-32" transform="translate(752.885742 0.015625)"/>
     <use xlink:href="#DejaVuSans-34" transform="translate(816.508789 0.015625)"/>
     <use xlink:href="#DejaVuSans-33" transform="translate(880.131836 0.015625)"/>
     <use xlink:href="#DejaVuSans-20" transform="translate(943.754883 0.015625)"/>
     <use xlink:href="#DejaVuSans-b1" transform="translate(975.541992 0.015625)"/>
     <use xlink:href="#DejaVuSans-20" transform="translate(1059.331055 0.015625)"/>
     <use xlink:href="#DejaVuSans-30" transform="translate(1091.118164 0.015625)"/>
     <use xlink:href="#DejaVuSans-2e" transform="translate(1154.741211 0.015625)"/>
     <use xlink:href="#DejaVuSans-30" transform="translate(1186.52832 0.015625)"/>
     <use xlink:href="#DejaVuSans-30" transform="translate(1250.151367 0.015625)"/>
     <use xlink:href="#DejaVuSans-30" transform="translate(1313.774414 0.015625)"/>
     <use xlink:href="#DejaVuSans-30" transform="translate(1377.397461 0.015625)"/>
     <use xlink:href="#DejaVuSans-38" transform="translate(1441.020508 0.015625)"/>
    </g>
   </g>
   <g id="legend_1">
    <g id="patch_5">
     <path d="M 297.64125 130.872188 
L 411.075 130.872188 
Q 412.875 130.872188 412.875 129.072188 
L 412.875 37.5 
Q 412.875 35.7 411.075 35.7 
L 297.64125 35.7 
Q 295.84125 35.7 295.84125 37.5 
L 295.84125 129.072188 
Q 295.84125 130.872188 297.64125 130.872188 
z
" style="fill: #ffffff; opacity: 0.8; stroke: #cccccc; stroke-linejoin: miter"/>
    </g>
    <g id="PathCollection_10">
     <g>
      <use xlink:href="#m467dfac814" x="308.44125" y="43.776094" style="fill: #4169e1; stroke: #ffffff; stroke-width: 2"/>
     </g>
    </g>
    <g id="text_16">
     <!-- MFAmain, T=90.0 -->
     <g transform="translate(324.64125 46.138594) scale(0.09 -0.09)">
      <defs>
       <path id="DejaVuSans-6d" d="M 3328 2828 
Q 3544 3216 3844 3400 
Q 4144 3584 4550 3584 
Q 5097 3584 5394 3201 
Q 5691 2819 5691 2113 
L 5691 0 
L 5113 0 
L 5113 2094 
Q 5113 2597 4934 2840 
Q 4756 3084 4391 3084 
Q 3944 3084 3684 2787 
Q 3425 2491 3425 1978 
L 3425 0 
L 2847 0 
L 2847 2094 
Q 2847 2600 2669 2842 
Q 2491 3084 2119 3084 
Q 1678 3084 1418 2786 
Q 1159 2488 1159 1978 
L 1159 0 
L 581 0 
L 581 3500 
L 1159 3500 
L 1159 2956 
Q 1356 3278 1631 3431 
Q 1906 3584 2284 3584 
Q 2666 3584 2933 3390 
Q 3200 3197 3328 2828 
z
" transform="scale(0.015625)"/>
       <path id="DejaVuSans-61" d="M 2194 1759 
Q 1497 1759 1228 1600 
Q 959 1441 959 1056 
Q 959 750 1161 570 
Q 1363 391 1709 391 
Q 2188 391 2477 730 
Q 2766 1069 2766 1631 
L 2766 1759 
L 2194 1759 
z
M 3341 1997 
L 3341 0 
L 2766 0 
L 2766 531 
Q 2569 213 2275 61 
Q 1981 -91 1556 -91 
Q 1019 -91 701 211 
Q 384 513 384 1019 
Q 384 1609 779 1909 
Q 1175 2209 1959 2209 
L 2766 2209 
L 2766 2266 
Q 2766 2663 2505 2880 
Q 2244 3097 1772 3097 
Q 1472 3097 1187 3025 
Q 903 2953 641 2809 
L 641 3341 
Q 956 3463 1253 3523 
Q 1550 3584 1831 3584 
Q 2591 3584 2966 3190 
Q 3341 2797 3341 1997 
z
" transform="scale(0.015625)"/>
       <path id="DejaVuSans-69" d="M 603 3500 
L 1178 3500 
L 1178 0 
L 603 0 
L 603 3500 
z
M 603 4863 
L 1178 4863 
L 1178 4134 
L 603 4134 
L 603 4863 
z
" transform="scale(0.015625)"/>
       <path id="DejaVuSans-6e" d="M 3513 2113 
L 3513 0 
L 2938 0 
L 2938 2094 
Q 2938 2591 2744 2837 
Q 2550 3084 2163 3084 
Q 1697 3084 1428 2787 
Q 1159 2491 1159 1978 
L 1159 0 
L 581 0 
L 581 3500 
L 1159 3500 
L 1159 2956 
Q 1366 3272 1645 3428 
Q 1925 3584 2291 3584 
Q 2894 3584 3203 3211 
Q 3513 2838 3513 2113 
z
" transform="scale(0.015625)"/>
       <path id="DejaVuSans-2c" d="M 750 794 
L 1409 794 
L 1409 256 
L 897 -744 
L 494 -744 
L 750 256 
L 750 794 
z
" transform="scale(0.015625)"/>
       <path id="DejaVuSans-39" d="M 703 97 
L 703 672 
Q 941 559 1184 500 
Q 1428 441 1663 441 
Q 2288 441 2617 861 
Q 2947 1281 2994 2138 
Q 2813 1869 2534 1725 
Q 2256 1581 1919 1581 
Q 1219 1581 811 2004 
Q 403 2428 403 3163 
Q 403 3881 828 4315 
Q 1253 4750 1959 4750 
Q 2769 4750 3195 4129 
Q 3622 3509 3622 2328 
Q 3622 1225 3098 567 
Q 2575 -91 1691 -91 
Q 1453 -91 1209 -44 
Q 966 3 703 97 
z
M 1959 2075 
Q 2384 2075 2632 2365 
Q 2881 2656 2881 3163 
Q 2881 3666 2632 3958 
Q 2384 4250 1959 4250 
Q 1534 4250 1286 3958 
Q 1038 3666 1038 3163 
Q 1038 2656 1286 2365 
Q 1534 2075 1959 2075 
z
" transform="scale(0.015625)"/>
      </defs>
      <use xlink:href="#DejaVuSans-4d"/>
      <use xlink:href="#DejaVuSans-46" x="86.279297"/>
      <use xlink:href="#DejaVuSans-41" x="134.673828"/>
      <use xlink:href="#DejaVuSans-6d" x="203.082031"/>
      <use xlink:href="#DejaVuSans-61" x="300.494141"/>
      <use xlink:href="#DejaVuSans-69" x="361.773438"/>
      <use xlink:href="#DejaVuSans-6e" x="389.556641"/>
      <use xlink:href="#DejaVuSans-2c" x="452.935547"/>
      <use xlink:href="#DejaVuSans-20" x="484.722656"/>
      <use xlink:href="#DejaVuSans-54" x="516.509766"/>
      <use xlink:href="#DejaVuSans-3d" x="577.59375"/>
      <use xlink:href="#DejaVuSans-39" x="661.382812"/>
      <use xlink:href="#DejaVuSans-30" x="725.005859"/>
      <use xlink:href="#DejaVuSans-2e" x="788.628906"/>
      <use xlink:href="#DejaVuSans-30" x="820.416016"/>
     </g>
    </g>
    <g id="PathCollection_11">
     <g>
      <use xlink:href="#mf7427951fb" x="308.44125" y="56.986406" style="fill: #ff8c00; stroke: #ffffff; stroke-width: 2"/>
     </g>
    </g>
    <g id="text_17">
     <!-- MFAsup1, T=96.0 -->
     <g transform="translate(324.64125 59.348906) scale(0.09 -0.09)">
      <defs>
       <path id="DejaVuSans-73" d="M 2834 3397 
L 2834 2853 
Q 2591 2978 2328 3040 
Q 2066 3103 1784 3103 
Q 1356 3103 1142 2972 
Q 928 2841 928 2578 
Q 928 2378 1081 2264 
Q 1234 2150 1697 2047 
L 1894 2003 
Q 2506 1872 2764 1633 
Q 3022 1394 3022 966 
Q 3022 478 2636 193 
Q 2250 -91 1575 -91 
Q 1294 -91 989 -36 
Q 684 19 347 128 
L 347 722 
Q 666 556 975 473 
Q 1284 391 1588 391 
Q 1994 391 2212 530 
Q 2431 669 2431 922 
Q 2431 1156 2273 1281 
Q 2116 1406 1581 1522 
L 1381 1569 
Q 847 1681 609 1914 
Q 372 2147 372 2553 
Q 372 3047 722 3315 
Q 1072 3584 1716 3584 
Q 2034 3584 2315 3537 
Q 2597 3491 2834 3397 
z
" transform="scale(0.015625)"/>
       <path id="DejaVuSans-75" d="M 544 1381 
L 544 3500 
L 1119 3500 
L 1119 1403 
Q 1119 906 1312 657 
Q 1506 409 1894 409 
Q 2359 409 2629 706 
Q 2900 1003 2900 1516 
L 2900 3500 
L 3475 3500 
L 3475 0 
L 2900 0 
L 2900 538 
Q 2691 219 2414 64 
Q 2138 -91 1772 -91 
Q 1169 -91 856 284 
Q 544 659 544 1381 
z
M 1991 3584 
L 1991 3584 
z
" transform="scale(0.015625)"/>
       <path id="DejaVuSans-70" d="M 1159 525 
L 1159 -1331 
L 581 -1331 
L 581 3500 
L 1159 3500 
L 1159 2969 
Q 1341 3281 1617 3432 
Q 1894 3584 2278 3584 
Q 2916 3584 3314 3078 
Q 3713 2572 3713 1747 
Q 3713 922 3314 415 
Q 2916 -91 2278 -91 
Q 1894 -91 1617 61 
Q 1341 213 1159 525 
z
M 3116 1747 
Q 3116 2381 2855 2742 
Q 2594 3103 2138 3103 
Q 1681 3103 1420 2742 
Q 1159 2381 1159 1747 
Q 1159 1113 1420 752 
Q 1681 391 2138 391 
Q 2594 391 2855 752 
Q 3116 1113 3116 1747 
z
" transform="scale(0.015625)"/>
      </defs>
      <use xlink:href="#DejaVuSans-4d"/>
      <use xlink:href="#DejaVuSans-46" x="86.279297"/>
      <use xlink:href="#DejaVuSans-41" x="134.673828"/>
      <use xlink:href="#DejaVuSans-73" x="203.082031"/>
      <use xlink:href="#DejaVuSans-75" x="255.181641"/>
      <use xlink:href="#DejaVuSans-70" x="318.560547"/>
      <use xlink:href="#DejaVuSans-31" x="382.037109"/>
      <use xlink:href="#DejaVuSans-2c" x="445.660156"/>
      <use xlink:href="#DejaVuSans-20" x="477.447266"/>
      <use xlink:href="#DejaVuSans-54" x="509.234375"/>
      <use xlink:href="#DejaVuSans-3d" x="570.318359"/>
      <use xlink:href="#DejaVuSans-39" x="654.107422"/>
      <use xlink:href="#DejaVuSans-36" x="717.730469"/>
      <use xlink:href="#DejaVuSans-2e" x="781.353516"/>
      <use xlink:href="#DejaVuSans-30" x="813.140625"/>
     </g>
    </g>
    <g id="PathCollection_12">
     <g>
      <use xlink:href="#mb9938d7fe3" x="308.44125" y="70.196719" style="fill: #32cd32; stroke: #ffffff; stroke-width: 2"/>
     </g>
    </g>
    <g id="text_18">
     <!-- MFAsup2, T=181.0 -->
     <g transform="translate(324.64125 72.559219) scale(0.09 -0.09)">
      <use xlink:href="#DejaVuSans-4d"/>
      <use xlink:href="#DejaVuSans-46" x="86.279297"/>
      <use xlink:href="#DejaVuSans-41" x="134.673828"/>
      <use xlink:href="#DejaVuSans-73" x="203.082031"/>
      <use xlink:href="#DejaVuSans-75" x="255.181641"/>
      <use xlink:href="#DejaVuSans-70" x="318.560547"/>
      <use xlink:href="#DejaVuSans-32" x="382.037109"/>
      <use xlink:href="#DejaVuSans-2c" x="445.660156"/>
      <use xlink:href="#DejaVuSans-20" x="477.447266"/>
      <use xlink:href="#DejaVuSans-54" x="509.234375"/>
      <use xlink:href="#DejaVuSans-3d" x="570.318359"/>
      <use xlink:href="#DejaVuSans-31" x="654.107422"/>
      <use xlink:href="#DejaVuSans-38" x="717.730469"/>
      <use xlink:href="#DejaVuSans-31" x="781.353516"/>
      <use xlink:href="#DejaVuSans-2e" x="844.976562"/>
      <use xlink:href="#DejaVuSans-30" x="876.763672"/>
     </g>
    </g>
    <g id="PathCollection_13">
     <g>
      <use xlink:href="#mf51721c935" x="308.44125" y="83.407031" style="fill: #800080; stroke: #ffffff; stroke-width: 2"/>
     </g>
    </g>
    <g id="text_19">
     <!-- MFAsup3, T=305.0 -->
     <g transform="translate(324.64125 85.769531) scale(0.09 -0.09)">
      <use xlink:href="#DejaVuSans-4d"/>
      <use xlink:href="#DejaVuSans-46" x="86.279297"/>
      <use xlink:href="#DejaVuSans-41" x="134.673828"/>
      <use xlink:href="#DejaVuSans-73" x="203.082031"/>
      <use xlink:href="#DejaVuSans-75" x="255.181641"/>
      <use xlink:href="#DejaVuSans-70" x="318.560547"/>
      <use xlink:href="#DejaVuSans-33" x="382.037109"/>
      <use xlink:href="#DejaVuSans-2c" x="445.660156"/>
      <use xlink:href="#DejaVuSans-20" x="477.447266"/>
      <use xlink:href="#DejaVuSans-54" x="509.234375"/>
      <use xlink:href="#DejaVuSans-3d" x="570.318359"/>
      <use xlink:href="#DejaVuSans-33" x="654.107422"/>
      <use xlink:href="#DejaVuSans-30" x="717.730469"/>
      <use xlink:href="#DejaVuSans-35" x="781.353516"/>
      <use xlink:href="#DejaVuSans-2e" x="844.976562"/>
      <use xlink:href="#DejaVuSans-30" x="876.763672"/>
     </g>
    </g>
    <g id="line2d_23">
     <path d="M 299.44125 95.829844 
L 308.44125 95.829844 
L 317.44125 95.829844 
" style="fill: none; stroke: #000000; stroke-width: 1.5; stroke-linecap: square"/>
    </g>
    <g id="text_20">
     <!-- $ae^{bx}$ Data fit -->
     <g transform="translate(324.64125 98.979844) scale(0.09 -0.09)">
      <defs>
       <path id="DejaVuSans-Oblique-61" d="M 3438 1997 
L 3047 0 
L 2472 0 
L 2578 531 
Q 2325 219 2001 64 
Q 1678 -91 1281 -91 
Q 834 -91 548 182 
Q 263 456 263 884 
Q 263 1497 752 1853 
Q 1241 2209 2100 2209 
L 2900 2209 
L 2931 2363 
Q 2938 2388 2941 2417 
Q 2944 2447 2944 2509 
Q 2944 2788 2717 2942 
Q 2491 3097 2081 3097 
Q 1800 3097 1504 3025 
Q 1209 2953 897 2809 
L 997 3341 
Q 1322 3463 1633 3523 
Q 1944 3584 2234 3584 
Q 2853 3584 3176 3315 
Q 3500 3047 3500 2534 
Q 3500 2431 3484 2292 
Q 3469 2153 3438 1997 
z
M 2816 1759 
L 2241 1759 
Q 1534 1759 1195 1570 
Q 856 1381 856 984 
Q 856 709 1029 553 
Q 1203 397 1509 397 
Q 1978 397 2328 733 
Q 2678 1069 2791 1631 
L 2816 1759 
z
" transform="scale(0.015625)"/>
       <path id="DejaVuSans-Oblique-65" d="M 3078 2063 
Q 3088 2113 3092 2166 
Q 3097 2219 3097 2272 
Q 3097 2653 2873 2875 
Q 2650 3097 2266 3097 
Q 1838 3097 1509 2826 
Q 1181 2556 1013 2059 
L 3078 2063 
z
M 3578 1613 
L 903 1613 
Q 884 1494 878 1425 
Q 872 1356 872 1306 
Q 872 872 1139 634 
Q 1406 397 1894 397 
Q 2269 397 2603 481 
Q 2938 566 3225 728 
L 3116 159 
Q 2806 34 2476 -28 
Q 2147 -91 1806 -91 
Q 1078 -91 686 257 
Q 294 606 294 1247 
Q 294 1794 489 2264 
Q 684 2734 1063 3103 
Q 1306 3334 1642 3459 
Q 1978 3584 2356 3584 
Q 2950 3584 3301 3228 
Q 3653 2872 3653 2272 
Q 3653 2128 3634 1964 
Q 3616 1800 3578 1613 
z
" transform="scale(0.015625)"/>
       <path id="DejaVuSans-Oblique-62" d="M 3169 2138 
Q 3169 2591 2961 2847 
Q 2753 3103 2388 3103 
Q 2122 3103 1889 2973 
Q 1656 2844 1484 2597 
Q 1303 2338 1198 1995 
Q 1094 1653 1094 1313 
Q 1094 881 1298 636 
Q 1503 391 1863 391 
Q 2134 391 2365 517 
Q 2597 644 2772 891 
Q 2950 1147 3059 1487 
Q 3169 1828 3169 2138 
z
M 1381 2969 
Q 1594 3256 1914 3420 
Q 2234 3584 2584 3584 
Q 3122 3584 3439 3221 
Q 3756 2859 3756 2241 
Q 3756 1734 3570 1259 
Q 3384 784 3041 416 
Q 2816 172 2522 40 
Q 2228 -91 1906 -91 
Q 1566 -91 1316 65 
Q 1066 222 909 531 
L 806 0 
L 231 0 
L 1178 4863 
L 1753 4863 
L 1381 2969 
z
" transform="scale(0.015625)"/>
       <path id="DejaVuSans-Oblique-78" d="M 3841 3500 
L 2234 1784 
L 3219 0 
L 2559 0 
L 1819 1388 
L 531 0 
L -166 0 
L 1556 1844 
L 641 3500 
L 1300 3500 
L 1972 2234 
L 3144 3500 
L 3841 3500 
z
" transform="scale(0.015625)"/>
       <path id="DejaVuSans-44" d="M 1259 4147 
L 1259 519 
L 2022 519 
Q 2988 519 3436 956 
Q 3884 1394 3884 2338 
Q 3884 3275 3436 3711 
Q 2988 4147 2022 4147 
L 1259 4147 
z
M 628 4666 
L 1925 4666 
Q 3281 4666 3915 4102 
Q 4550 3538 4550 2338 
Q 4550 1131 3912 565 
Q 3275 0 1925 0 
L 628 0 
L 628 4666 
z
" transform="scale(0.015625)"/>
       <path id="DejaVuSans-74" d="M 1172 4494 
L 1172 3500 
L 2356 3500 
L 2356 3053 
L 1172 3053 
L 1172 1153 
Q 1172 725 1289 603 
Q 1406 481 1766 481 
L 2356 481 
L 2356 0 
L 1766 0 
Q 1100 0 847 248 
Q 594 497 594 1153 
L 594 3053 
L 172 3053 
L 172 3500 
L 594 3500 
L 594 4494 
L 1172 4494 
z
" transform="scale(0.015625)"/>
       <path id="DejaVuSans-66" d="M 2375 4863 
L 2375 4384 
L 1825 4384 
Q 1516 4384 1395 4259 
Q 1275 4134 1275 3809 
L 1275 3500 
L 2222 3500 
L 2222 3053 
L 1275 3053 
L 1275 0 
L 697 0 
L 697 3053 
L 147 3053 
L 147 3500 
L 697 3500 
L 697 3744 
Q 697 4328 969 4595 
Q 1241 4863 1831 4863 
L 2375 4863 
z
" transform="scale(0.015625)"/>
      </defs>
      <use xlink:href="#DejaVuSans-Oblique-61" transform="translate(0 0.529687)"/>
      <use xlink:href="#DejaVuSans-Oblique-65" transform="translate(61.279297 0.529687)"/>
      <use xlink:href="#DejaVuSans-Oblique-62" transform="translate(127.45263 38.810937) scale(0.7)"/>
      <use xlink:href="#DejaVuSans-Oblique-78" transform="translate(171.886224 38.810937) scale(0.7)"/>
      <use xlink:href="#DejaVuSans-20" transform="translate(216.04638 0.529687)"/>
      <use xlink:href="#DejaVuSans-44" transform="translate(247.83349 0.529687)"/>
      <use xlink:href="#DejaVuSans-61" transform="translate(324.835443 0.529687)"/>
      <use xlink:href="#DejaVuSans-74" transform="translate(386.11474 0.529687)"/>
      <use xlink:href="#DejaVuSans-61" transform="translate(425.323724 0.529687)"/>
      <use xlink:href="#DejaVuSans-20" transform="translate(486.603021 0.529687)"/>
      <use xlink:href="#DejaVuSans-66" transform="translate(518.39013 0.529687)"/>
      <use xlink:href="#DejaVuSans-69" transform="translate(553.595208 0.529687)"/>
      <use xlink:href="#DejaVuSans-74" transform="translate(581.378411 0.529687)"/>
     </g>
    </g>
    <g id="line2d_24">
     <path d="M 299.44125 109.040156 
L 308.44125 109.040156 
L 317.44125 109.040156 
" style="fill: none; stroke-dasharray: 5.55,2.4; stroke-dashoffset: 0; stroke: #000000; stroke-width: 1.5"/>
    </g>
    <g id="text_21">
     <!-- $ae^{bx}$ Simulation fit -->
     <g transform="translate(324.64125 112.190156) scale(0.09 -0.09)">
      <defs>
       <path id="DejaVuSans-53" d="M 3425 4513 
L 3425 3897 
Q 3066 4069 2747 4153 
Q 2428 4238 2131 4238 
Q 1616 4238 1336 4038 
Q 1056 3838 1056 3469 
Q 1056 3159 1242 3001 
Q 1428 2844 1947 2747 
L 2328 2669 
Q 3034 2534 3370 2195 
Q 3706 1856 3706 1288 
Q 3706 609 3251 259 
Q 2797 -91 1919 -91 
Q 1588 -91 1214 -16 
Q 841 59 441 206 
L 441 856 
Q 825 641 1194 531 
Q 1563 422 1919 422 
Q 2459 422 2753 634 
Q 3047 847 3047 1241 
Q 3047 1584 2836 1778 
Q 2625 1972 2144 2069 
L 1759 2144 
Q 1053 2284 737 2584 
Q 422 2884 422 3419 
Q 422 4038 858 4394 
Q 1294 4750 2059 4750 
Q 2388 4750 2728 4690 
Q 3069 4631 3425 4513 
z
" transform="scale(0.015625)"/>
       <path id="DejaVuSans-6c" d="M 603 4863 
L 1178 4863 
L 1178 0 
L 603 0 
L 603 4863 
z
" transform="scale(0.015625)"/>
       <path id="DejaVuSans-6f" d="M 1959 3097 
Q 1497 3097 1228 2736 
Q 959 2375 959 1747 
Q 959 1119 1226 758 
Q 1494 397 1959 397 
Q 2419 397 2687 759 
Q 2956 1122 2956 1747 
Q 2956 2369 2687 2733 
Q 2419 3097 1959 3097 
z
M 1959 3584 
Q 2709 3584 3137 3096 
Q 3566 2609 3566 1747 
Q 3566 888 3137 398 
Q 2709 -91 1959 -91 
Q 1206 -91 779 398 
Q 353 888 353 1747 
Q 353 2609 779 3096 
Q 1206 3584 1959 3584 
z
" transform="scale(0.015625)"/>
      </defs>
      <use xlink:href="#DejaVuSans-Oblique-61" transform="translate(0 0.529687)"/>
      <use xlink:href="#DejaVuSans-Oblique-65" transform="translate(61.279297 0.529687)"/>
      <use xlink:href="#DejaVuSans-Oblique-62" transform="translate(127.45263 38.810937) scale(0.7)"/>
      <use xlink:href="#DejaVuSans-Oblique-78" transform="translate(171.886224 38.810937) scale(0.7)"/>
      <use xlink:href="#DejaVuSans-20" transform="translate(216.04638 0.529687)"/>
      <use xlink:href="#DejaVuSans-53" transform="translate(247.83349 0.529687)"/>
      <use xlink:href="#DejaVuSans-69" transform="translate(311.310052 0.529687)"/>
      <use xlink:href="#DejaVuSans-6d" transform="translate(339.093255 0.529687)"/>
      <use xlink:href="#DejaVuSans-75" transform="translate(436.505365 0.529687)"/>
      <use xlink:href="#DejaVuSans-6c" transform="translate(499.884271 0.529687)"/>
      <use xlink:href="#DejaVuSans-61" transform="translate(527.667474 0.529687)"/>
      <use xlink:href="#DejaVuSans-74" transform="translate(588.946771 0.529687)"/>
      <use xlink:href="#DejaVuSans-69" transform="translate(628.155755 0.529687)"/>
      <use xlink:href="#DejaVuSans-6f" transform="translate(655.938958 0.529687)"/>
      <use xlink:href="#DejaVuSans-6e" transform="translate(717.120599 0.529687)"/>
      <use xlink:href="#DejaVuSans-20" transform="translate(780.499505 0.529687)"/>
      <use xlink:href="#DejaVuSans-66" transform="translate(812.286615 0.529687)"/>
      <use xlink:href="#DejaVuSans-69" transform="translate(847.491693 0.529687)"/>
      <use xlink:href="#DejaVuSans-74" transform="translate(875.274896 0.529687)"/>
     </g>
    </g>
    <g id="PathCollection_14">
     <defs>
      <path id="m2cc2880e6c" d="M -3 3 
L 3 -3 
M -3 -3 
L 3 3 
" style="stroke: #000000; stroke-width: 1.5"/>
     </defs>
     <g>
      <use xlink:href="#m2cc2880e6c" x="308.44125" y="123.037969" style="stroke: #000000; stroke-width: 1.5"/>
     </g>
    </g>
    <g id="text_22">
     <!-- Simulation data -->
     <g transform="translate(324.64125 125.400469) scale(0.09 -0.09)">
      <defs>
       <path id="DejaVuSans-64" d="M 2906 2969 
L 2906 4863 
L 3481 4863 
L 3481 0 
L 2906 0 
L 2906 525 
Q 2725 213 2448 61 
Q 2172 -91 1784 -91 
Q 1150 -91 751 415 
Q 353 922 353 1747 
Q 353 2572 751 3078 
Q 1150 3584 1784 3584 
Q 2172 3584 2448 3432 
Q 2725 3281 2906 2969 
z
M 947 1747 
Q 947 1113 1208 752 
Q 1469 391 1925 391 
Q 2381 391 2643 752 
Q 2906 1113 2906 1747 
Q 2906 2381 2643 2742 
Q 2381 3103 1925 3103 
Q 1469 3103 1208 2742 
Q 947 2381 947 1747 
z
" transform="scale(0.015625)"/>
      </defs>
      <use xlink:href="#DejaVuSans-53"/>
      <use xlink:href="#DejaVuSans-69" x="63.476562"/>
      <use xlink:href="#DejaVuSans-6d" x="91.259766"/>
      <use xlink:href="#DejaVuSans-75" x="188.671875"/>
      <use xlink:href="#DejaVuSans-6c" x="252.050781"/>
      <use xlink:href="#DejaVuSans-61" x="279.833984"/>
      <use xlink:href="#DejaVuSans-74" x="341.113281"/>
      <use xlink:href="#DejaVuSans-69" x="380.322266"/>
      <use xlink:href="#DejaVuSans-6f" x="408.105469"/>
      <use xlink:href="#DejaVuSans-6e" x="469.287109"/>
      <use xlink:href="#DejaVuSans-20" x="532.666016"/>
      <use xlink:href="#DejaVuSans-64" x="564.453125"/>
      <use xlink:href="#DejaVuSans-61" x="627.929688"/>
      <use xlink:href="#DejaVuSans-74" x="689.208984"/>
      <use xlink:href="#DejaVuSans-61" x="728.417969"/>
     </g>
    </g>
   </g>
  </g>
 </g>
 <defs>
  <clipPath id="p91136e6d3f">
   <rect x="61.028" y="31.2" width="356.347" height="275.26"/>
  </clipPath>
 </defs>
</svg>
